<svg width="50" height="50" viewBox="0 0 50 50" fill="none" xmlns="http://www.w3.org/2000/svg">
<circle cx="25" cy="25" r="24.5" fill="#1DC0AD" fill-opacity="0.1" stroke="#1DC0AD"/>
<g clip-path="url(#clip0_16_7769)">
<path d="M30.8333 16.6667H30V15.8333C30 15.6123 29.9122 15.4004 29.7559 15.2441C29.5996 15.0878 29.3877 15 29.1667 15C28.9457 15 28.7337 15.0878 28.5774 15.2441C28.4211 15.4004 28.3333 15.6123 28.3333 15.8333V16.6667H21.6667V15.8333C21.6667 15.6123 21.5789 15.4004 21.4226 15.2441C21.2663 15.0878 21.0543 15 20.8333 15C20.6123 15 20.4004 15.0878 20.2441 15.2441C20.0878 15.4004 20 15.6123 20 15.8333V16.6667H19.1667C18.062 16.668 17.003 17.1074 16.2218 17.8885C15.4407 18.6696 15.0013 19.7287 15 20.8333L15 30.8333C15.0013 31.938 15.4407 32.997 16.2218 33.7782C17.003 34.5593 18.062 34.9987 19.1667 35H30.8333C31.938 34.9987 32.997 34.5593 33.7782 33.7782C34.5593 32.997 34.9987 31.938 35 30.8333V20.8333C34.9987 19.7287 34.5593 18.6696 33.7782 17.8885C32.997 17.1074 31.938 16.668 30.8333 16.6667V16.6667ZM16.6667 20.8333C16.6667 20.1703 16.9301 19.5344 17.3989 19.0656C17.8677 18.5967 18.5036 18.3333 19.1667 18.3333H30.8333C31.4964 18.3333 32.1323 18.5967 32.6011 19.0656C33.0699 19.5344 33.3333 20.1703 33.3333 20.8333V21.6667H16.6667V20.8333ZM30.8333 33.3333H19.1667C18.5036 33.3333 17.8677 33.0699 17.3989 32.6011C16.9301 32.1323 16.6667 31.4964 16.6667 30.8333V23.3333H33.3333V30.8333C33.3333 31.4964 33.0699 32.1323 32.6011 32.6011C32.1323 33.0699 31.4964 33.3333 30.8333 33.3333Z" fill="#1DC0AD"/>
<path d="M25 28.75C25.6904 28.75 26.25 28.1904 26.25 27.5C26.25 26.8096 25.6904 26.25 25 26.25C24.3096 26.25 23.75 26.8096 23.75 27.5C23.75 28.1904 24.3096 28.75 25 28.75Z" fill="#1DC0AD"/>
<path d="M20.8334 28.75C21.5237 28.75 22.0834 28.1904 22.0834 27.5C22.0834 26.8096 21.5237 26.25 20.8334 26.25C20.143 26.25 19.5834 26.8096 19.5834 27.5C19.5834 28.1904 20.143 28.75 20.8334 28.75Z" fill="#1DC0AD"/>
<path d="M29.1666 28.75C29.857 28.75 30.4166 28.1904 30.4166 27.5C30.4166 26.8096 29.857 26.25 29.1666 26.25C28.4763 26.25 27.9166 26.8096 27.9166 27.5C27.9166 28.1904 28.4763 28.75 29.1666 28.75Z" fill="#1DC0AD"/>
</g>
<defs>
<clipPath id="clip0_16_7769">
<rect width="20" height="20" fill="white" transform="translate(15 15)"/>
</clipPath>
</defs>
</svg>
