<svg width="50" height="50" viewBox="0 0 50 50" fill="none" xmlns="http://www.w3.org/2000/svg">
<circle cx="25" cy="25" r="24.5" fill="#1DC0AD" fill-opacity="0.1" stroke="#1DC0AD"/>
<g clip-path="url(#clip0_16_7771)">
<path d="M27.0833 20.8333C26.3069 20.8213 25.5575 21.118 24.9999 21.6583C24.5712 21.258 24.0337 20.9935 23.4549 20.898C22.8762 20.8026 22.2822 20.8805 21.7476 21.1219C21.2131 21.3633 20.7619 21.7575 20.4509 22.2549C20.1399 22.7522 19.983 23.3304 19.9999 23.9167C19.9999 26.63 24.0616 29.53 24.5249 29.8508C24.6644 29.9476 24.8301 29.9995 24.9999 29.9995C25.1697 29.9995 25.3354 29.9476 25.4749 29.8508C25.9383 29.53 29.9999 26.63 29.9999 23.9167C30.0206 23.1214 29.7252 22.3504 29.1785 21.7725C28.6318 21.1946 27.8784 20.8569 27.0833 20.8333ZM24.9999 28.135C23.5491 27.0267 21.6666 25.1683 21.6666 23.9167C21.6033 22.245 24.0941 21.9167 24.1666 23.7117V24.1667C24.1666 24.3877 24.2544 24.5997 24.4107 24.7559C24.5669 24.9122 24.7789 25 24.9999 25C25.2209 25 25.4329 24.9122 25.5892 24.7559C25.7455 24.5997 25.8333 24.3877 25.8333 24.1667V23.7117C25.9058 21.9183 28.3966 22.245 28.3333 23.9167C28.3333 25.1667 26.4508 27.0267 24.9999 28.135ZM25.6966 15.0234C24.268 14.9235 22.8347 15.1317 21.4936 15.6338C20.1524 16.1358 18.9347 16.9201 17.9229 17.9335C16.9111 18.9469 16.1288 20.1658 15.6288 21.5077C15.1288 22.8496 14.9229 24.2833 15.0249 25.7117C15.3916 31.0067 20.0683 35 25.9024 35H30.8333C31.9379 34.9987 32.9969 34.5593 33.7781 33.7782C34.5592 32.997 34.9986 31.938 34.9999 30.8333V25.2833C35.0308 22.7146 34.0889 20.2293 32.3633 18.3262C30.6377 16.4231 28.2561 15.2432 25.6966 15.0234ZM33.3332 30.8333C33.3332 31.4964 33.0699 32.1323 32.601 32.6011C32.1322 33.07 31.4963 33.3333 30.8333 33.3333H25.9024C20.8741 33.3333 16.9999 30.0833 16.6874 25.5967C16.6019 24.4059 16.7732 23.2105 17.1898 22.0917C17.6064 20.9728 18.2586 19.9566 19.1021 19.1117C19.9456 18.2668 20.9609 17.613 22.0791 17.1946C23.1973 16.7763 24.3923 16.603 25.5833 16.6867C27.722 16.8759 29.7098 17.8674 31.1475 19.4621C32.5851 21.0568 33.366 23.1365 33.3332 25.2833V30.8333Z" fill="#1DC0AD"/>
</g>
<defs>
<clipPath id="clip0_16_7771">
<rect width="20" height="20" fill="white" transform="translate(15 15)"/>
</clipPath>
</defs>
</svg>
