<svg width="50" height="50" viewBox="0 0 50 50" fill="none" xmlns="http://www.w3.org/2000/svg">
<circle cx="25" cy="25" r="24.5" fill="#1DC0AD" fill-opacity="0.1" stroke="#1DC0AD"/>
<path d="M34.8634 22.3283C34.6929 21.7857 34.3524 21.3124 33.8921 20.9784C33.4318 20.6443 32.8763 20.4672 32.3076 20.4733H28.6667L27.5609 17.0267C27.387 16.4841 27.0453 16.0108 26.585 15.6751C26.1248 15.3393 25.5698 15.1583 25.0001 15.1583C24.4303 15.1583 23.8753 15.3393 23.4151 15.6751C22.9548 16.0108 22.6131 16.4841 22.4392 17.0267L21.3334 20.4733H17.6925C17.1257 20.4741 16.5735 20.6541 16.115 20.9874C15.6565 21.3208 15.3151 21.7905 15.1395 22.3295C14.9639 22.8685 14.9631 23.4492 15.1373 23.9887C15.3114 24.5281 15.6516 24.9988 16.1092 25.3333L19.0725 27.5L17.9459 30.9892C17.7638 31.5303 17.7615 32.1158 17.9393 32.6584C18.1171 33.201 18.4655 33.6716 18.9325 34C19.3916 34.339 19.9479 34.5206 20.5185 34.5177C21.0891 34.5149 21.6436 34.3277 22.0992 33.9842L25.0001 31.8492L27.9017 33.9817C28.3599 34.3187 28.9132 34.5018 29.482 34.5045C30.0508 34.5073 30.6059 34.3296 31.0674 33.9971C31.5288 33.6645 31.873 33.1942 32.0503 32.6537C32.2276 32.1132 32.229 31.5305 32.0542 30.9892L30.9276 27.5L33.8942 25.3333C34.3571 25.003 34.7013 24.5323 34.8758 23.9911C35.0504 23.4499 35.046 22.8669 34.8634 22.3283ZM32.9109 23.9875L29.4576 26.5117C29.3157 26.6151 29.2102 26.7608 29.156 26.9278C29.1018 27.0948 29.1018 27.2746 29.1559 27.4417L30.4684 31.5C30.5348 31.7058 30.5342 31.9274 30.4668 32.1329C30.3993 32.3384 30.2684 32.5172 30.0929 32.6436C29.9174 32.7701 29.7064 32.8376 29.4901 32.8365C29.2738 32.8354 29.0634 32.7657 28.8892 32.6375L25.4934 30.1375C25.3504 30.0324 25.1775 29.9758 25.0001 29.9758C24.8226 29.9758 24.6497 30.0324 24.5067 30.1375L21.1109 32.6375C20.9368 32.7674 20.7258 32.8385 20.5086 32.8405C20.2914 32.8425 20.0792 32.7752 19.9027 32.6484C19.7263 32.5217 19.5948 32.3421 19.5274 32.1356C19.4599 31.9291 19.46 31.7064 19.5275 31.5L20.8442 27.4417C20.8983 27.2746 20.8983 27.0948 20.8441 26.9278C20.7899 26.7608 20.6844 26.6151 20.5425 26.5117L17.0892 23.9875C16.9153 23.8602 16.7861 23.6811 16.72 23.4759C16.6539 23.2708 16.6544 23.05 16.7213 22.8451C16.7882 22.6402 16.9181 22.4617 17.0926 22.335C17.267 22.2084 17.477 22.1401 17.6925 22.14H21.9425C22.119 22.14 22.2909 22.084 22.4334 21.9801C22.576 21.8761 22.6819 21.7296 22.7359 21.5617L24.0276 17.5358C24.0939 17.3298 24.2238 17.1502 24.3987 17.0227C24.5736 16.8953 24.7845 16.8266 25.0009 16.8266C25.2173 16.8266 25.4281 16.8953 25.6031 17.0227C25.778 17.1502 25.9079 17.3298 25.9742 17.5358L27.2659 21.5617C27.3199 21.7296 27.4258 21.8761 27.5683 21.9801C27.7109 22.084 27.8828 22.14 28.0592 22.14H32.3092C32.5248 22.1401 32.7348 22.2084 32.9092 22.335C33.0836 22.4617 33.2136 22.6402 33.2805 22.8451C33.3474 23.05 33.3479 23.2708 33.2818 23.4759C33.2157 23.6811 33.0865 23.8602 32.9126 23.9875H32.9109Z" fill="#1DC0AD"/>
</svg>