<svg width="50" height="50" viewBox="0 0 50 50" fill="none" xmlns="http://www.w3.org/2000/svg">
<circle cx="25" cy="25" r="24.5" fill="#1DC0AD" fill-opacity="0.1" stroke="#1DC0AD"/>
<g clip-path="url(#clip0_302_2)">
<path d="M34.1667 24.1667C33.9457 24.1667 33.7337 24.2545 33.5774 24.4107C33.4212 24.567 33.3334 24.779 33.3334 25C33.3401 26.9377 32.6737 28.8177 31.448 30.3185C30.2222 31.8193 28.5133 32.8478 26.6133 33.2282C24.7132 33.6086 22.7401 33.3173 21.031 32.404C19.322 31.4908 17.9831 30.0124 17.2434 28.2214C16.5036 26.4304 16.4089 24.4381 16.9753 22.585C17.5417 20.7319 18.7342 19.133 20.3488 18.0617C21.9635 16.9904 23.9001 16.5131 25.8276 16.7115C27.7552 16.9098 29.554 17.7715 30.9167 19.1492C30.8893 19.1566 30.8615 19.1625 30.8334 19.1667H28.3334C28.1123 19.1667 27.9004 19.2545 27.7441 19.4107C27.5878 19.567 27.5 19.779 27.5 20C27.5 20.221 27.5878 20.433 27.7441 20.5893C27.9004 20.7455 28.1123 20.8333 28.3334 20.8333H30.8334C31.4964 20.8333 32.1323 20.5699 32.6011 20.1011C33.07 19.6323 33.3334 18.9964 33.3334 18.3333V15.8333C33.3334 15.6123 33.2456 15.4004 33.0893 15.2441C32.933 15.0878 32.721 15 32.5 15C32.279 15 32.0671 15.0878 31.9108 15.2441C31.7545 15.4004 31.6667 15.6123 31.6667 15.8333V17.5542C29.9605 16.0288 27.7825 15.1351 25.4966 15.0226C23.2107 14.91 20.9554 15.5854 19.1076 16.9358C17.2598 18.2862 15.9314 20.2298 15.3444 22.4419C14.7574 24.654 14.9473 27.0006 15.8825 29.0895C16.8176 31.1783 18.4413 32.883 20.4823 33.9187C22.5232 34.9543 24.8577 35.2581 27.0958 34.7794C29.3338 34.3006 31.3397 33.0683 32.7784 31.2884C34.2171 29.5084 35.0013 27.2887 35 25C35 24.779 34.9122 24.567 34.756 24.4107C34.5997 24.2545 34.3877 24.1667 34.1667 24.1667Z" fill="#1DC0AD"/>
<path d="M25.0001 20C24.7791 20 24.5671 20.0878 24.4108 20.2441C24.2545 20.4004 24.1667 20.6123 24.1667 20.8333V25C24.1668 25.221 24.2546 25.4329 24.4109 25.5892L26.9109 28.0892C27.0681 28.241 27.2786 28.325 27.4971 28.3231C27.7156 28.3212 27.9246 28.2335 28.0791 28.079C28.2336 27.9245 28.3213 27.7155 28.3232 27.497C28.3251 27.2785 28.2411 27.068 28.0893 26.9108L25.8334 24.655V20.8333C25.8334 20.6123 25.7456 20.4004 25.5893 20.2441C25.4331 20.0878 25.2211 20 25.0001 20Z" fill="#1DC0AD"/>
</g>
<defs>
<clipPath id="clip0_302_2">
<rect width="20" height="20" fill="white" transform="translate(15 15)"/>
</clipPath>
</defs>
</svg>
