<svg width="50" height="50" viewBox="0 0 50 50" fill="none" xmlns="http://www.w3.org/2000/svg">
<circle cx="25" cy="25" r="24.5" fill="#1DC0AD" fill-opacity="0.1" stroke="#1DC0AD"/>
<path d="M30 15H20C19.7789 15 19.567 15.0878 19.4107 15.2441C19.2544 15.4004 19.1666 15.6123 19.1666 15.8333C19.1666 16.0543 19.2544 16.2663 19.4107 16.4226C19.567 16.5789 19.7789 16.6667 20 16.6667H20.8333V30.8333C20.8333 31.9384 21.2723 32.9982 22.0537 33.7796C22.8351 34.561 23.8949 35 25 35C26.105 35 27.1648 34.561 27.9462 33.7796C28.7276 32.9982 29.1666 31.9384 29.1666 30.8333V16.6667H30C30.221 16.6667 30.4329 16.5789 30.5892 16.4226C30.7455 16.2663 30.8333 16.0543 30.8333 15.8333C30.8333 15.6123 30.7455 15.4004 30.5892 15.2441C30.4329 15.0878 30.221 15 30 15V15ZM25 33.3333C24.3369 33.3333 23.701 33.0699 23.2322 32.6011C22.7634 32.1323 22.5 31.4964 22.5 30.8333V22.5H27.5V30.8333C27.5 31.4964 27.2366 32.1323 26.7677 32.6011C26.2989 33.0699 25.663 33.3333 25 33.3333ZM27.5 20.8333H22.5V16.6667H27.5V20.8333Z" fill="#1DC0AD"/>
</svg>
