<svg width="154" height="100" viewBox="0 0 154 100" fill="none" xmlns="http://www.w3.org/2000/svg">
<g clip-path="url(#clip0_16_7139)">
<path d="M20.5194 0.299041C16.2533 0.763723 10.2345 1.66728 5.89106 2.49339C1.09657 3.40985 0.439265 3.61638 0.271716 4.28758C0.168609 4.71355 0.426379 5.33313 0.851697 5.62999C1.03213 5.7591 4.92445 7.86309 9.49983 10.2898C32.5443 22.5523 56.9809 35.6926 62.2135 38.6614C65.5775 40.5589 68.0648 42.5983 69.405 44.5475C69.766 45.0636 70.333 46.0449 70.6554 46.703C71.7249 48.8974 72.0215 50.1496 73.5423 58.8881C74.3287 63.3542 75.0376 67.2525 75.1147 67.5364C75.4626 68.8013 76.8033 69.3822 77.9372 68.7886C78.6592 68.4013 78.891 67.7945 79.3423 65.1483C81.7135 51.3369 82.152 49.2716 83.2215 46.8966C84.652 43.747 86.9465 41.4883 91.3414 38.9196C95.0143 36.7769 131.244 17.2859 148.888 7.96635C151.105 6.79173 153.064 5.66872 153.309 5.43639C153.618 5.1266 153.721 4.90716 153.721 4.58449C153.721 3.73255 153.244 3.51312 149.79 2.81609C144.764 1.80927 137.405 0.673372 133.615 0.337763C127.661 -0.191464 121.371 1.12515 115.829 4.05525C113.226 5.43639 109.54 8.018 107.632 9.8122C105.467 11.8258 98.2236 20.4612 91.0575 29.5613L89.1503 31.9751H77.0092H64.8554L64.2626 31.2264C63.9406 30.8263 62.4067 28.8901 60.8601 26.941C54.3385 18.7187 49.0156 12.4325 46.541 10.0058C43.8088 7.34677 38.9499 4.19724 35.1478 2.63538C32.8021 1.66728 30.1213 0.931533 27.5436 0.544295C26.2419 0.350669 21.602 0.182867 20.5194 0.299041Z" fill="#9B9B9B"/>
<path d="M29.992 79.7216C27.0148 80.3542 24.7206 82.0322 23.4447 84.4716C22.5554 86.2013 22.3491 87.1695 22.3491 89.6737C22.3491 92.1004 22.5553 93.1331 23.3673 94.7983C25.4037 98.9157 30.7911 100.684 36.6553 99.1483C37.9054 98.8254 38.885 98.4123 38.885 98.1928C38.885 98.025 37.957 94.1398 37.9054 94.0754C37.8797 94.0496 37.5188 94.2042 37.1193 94.411C35.5984 95.211 34.7349 95.4178 32.8919 95.4178C30.8684 95.4178 30.1209 95.1725 29.0382 94.1784C27.7236 92.978 27.2081 91.4809 27.3112 89.0928C27.4143 86.8725 28.1103 85.4915 29.6053 84.5106C30.5977 83.878 31.4355 83.6716 32.9563 83.6843C34.3482 83.6975 35.418 83.9424 36.7713 84.5623L37.6864 84.9881L38.4081 82.9746C39.0525 81.2059 39.117 80.9479 38.9494 80.8186C38.5885 80.5479 36.3846 79.8767 35.2247 79.6699C33.7038 79.4119 31.3839 79.4377 29.992 79.7216Z" fill="#9B9B9B"/>
<path d="M68.464 79.6572C65.5255 80.3415 63.3344 82.1487 62.1361 84.8593C61.4916 86.3178 61.2594 87.6216 61.2725 89.7386C61.2852 92.0492 61.5174 93.1072 62.4064 94.9275C64.2882 98.761 68.5674 100.465 73.4263 99.3419C74.6378 99.058 76.3903 98.2708 76.3903 98.0123C76.3903 97.8186 76.1068 96.3343 76.0556 96.2826C76.0424 96.2568 75.656 96.4377 75.2047 96.683C74.1094 97.2894 72.9623 97.6508 71.5572 97.8186C68.4128 98.2059 65.5513 96.7602 64.2755 94.1403C63.4763 92.5267 63.3089 91.7136 63.3089 89.5449C63.3089 88.1636 63.3733 87.4538 63.5407 86.8343C64.1335 84.6013 65.4742 82.8716 67.2399 82.0195C68.5284 81.4 69.5081 81.2322 71.2094 81.3225C72.7687 81.4 73.9674 81.7225 75.192 82.3809L75.9911 82.8199L76.2615 81.9809C76.4806 81.3483 76.5064 81.103 76.4034 80.9742C76.1971 80.7288 75.2178 80.3284 73.8645 79.9157C72.4339 79.5025 69.7272 79.3733 68.464 79.6572Z" fill="#9B9B9B"/>
<path d="M86.5076 79.6699C83.3242 80.3669 80.8754 82.5356 79.7411 85.6335C79.2254 87.0919 79.0453 88.3572 79.1356 90.2157C79.2254 92.0873 79.4318 92.9394 80.1924 94.514C82.1254 98.5284 86.7009 100.542 91.186 99.3415C94.3953 98.4898 96.6894 96.1665 97.7335 92.6814C98.0428 91.6746 98.0814 91.3258 98.0814 89.6093C98.0814 88.0085 98.0297 87.4924 97.7979 86.6402C97.3598 85.0267 96.5992 83.6199 95.5551 82.497C94.1504 80.9864 92.8102 80.1864 90.9411 79.7347C89.678 79.4377 87.7064 79.3991 86.5076 79.6699ZM91.2504 81.6708C94.1504 82.7551 95.9161 85.4398 96.0708 89.0411C96.2127 91.9195 95.4521 94.114 93.7381 95.8051C92.6682 96.8636 91.8691 97.328 90.4903 97.6767C86.3144 98.7479 82.3576 96.2568 81.3394 91.9326C80.8496 89.7898 81.1462 87.1309 82.0996 85.1686C82.8729 83.5941 84.6 82.1097 86.353 81.5547C87.6288 81.1288 89.9746 81.1932 91.2504 81.6708Z" fill="#9B9B9B"/>
<path d="M41.4634 81.9288V83.9941H44.5568H47.65V91.6742V99.3547H50.0988H52.5475V91.6742V83.9941H55.6407H58.7339V81.9288V79.8636H50.0988H41.4634V81.9288Z" fill="#9B9B9B"/>
<path d="M102.683 89.5962V99.3547H103.65H104.617L104.642 95.9081L104.681 92.4746L106.601 92.0356C107.658 91.7903 108.586 91.6225 108.663 91.6483C108.753 91.6873 109.875 93.4297 111.177 95.5339L113.535 99.3547H114.618C115.211 99.3547 115.7 99.303 115.7 99.2381C115.7 99.1737 114.566 97.328 113.187 95.1466C111.808 92.9653 110.674 91.1449 110.687 91.1064C110.687 91.0674 111.087 90.8352 111.576 90.603C113.574 89.6479 114.759 87.9568 114.889 85.9042C115.043 83.4775 113.935 81.5288 111.886 80.625C110.506 80.0055 110.133 79.9538 106.331 79.9021L102.683 79.8377V89.5962ZM110.378 81.9805C111.383 82.303 112.092 82.897 112.53 83.7877C112.852 84.4331 112.917 84.6911 112.903 85.5301C112.903 86.6788 112.71 87.2212 112.014 87.9826C111.486 88.5894 110.764 89.0411 109.9 89.3508C109.269 89.5831 105.119 90.5771 104.81 90.5771C104.642 90.5771 104.617 89.9576 104.617 86.111V81.6449L107.168 81.6966C109.089 81.7479 109.875 81.8127 110.378 81.9805Z" fill="#9B9B9B"/>
<path d="M120.366 89.5703L120.405 99.2898H121.372H122.338L122.403 96.1403L122.467 92.9907L124.529 92.5131C127.429 91.8419 127.971 91.6742 129.35 91.003C131.592 89.9318 132.713 88.3699 132.816 86.1886C132.919 84.1102 132.236 82.4966 130.806 81.3864C129.208 80.1602 127.816 79.8763 123.46 79.8636H120.341L120.366 89.5703ZM128.215 82.0322C129.762 82.5483 130.664 83.6585 130.858 85.3364C131.063 87.0788 130.123 88.6797 128.435 89.5055C127.455 89.9835 126.823 90.1771 124.31 90.7576L122.403 91.1839V86.4208V81.6449L124.89 81.6966C126.991 81.7479 127.494 81.7996 128.215 82.0322Z" fill="#9B9B9B"/>
</g>
<defs>
<clipPath id="clip0_16_7139">
<rect width="153.814" height="100" fill="white"/>
</clipPath>
</defs>
</svg>
