<svg width="34" height="50" viewBox="0 0 34 50" fill="none" xmlns="http://www.w3.org/2000/svg">
<g clip-path="url(#clip0_32_190)">
<path d="M16.6666 25C16.6666 20.4446 20.3596 16.7515 24.9151 16.7515C29.4706 16.7515 33.1636 20.4446 33.1636 25C33.1636 29.5556 29.4706 33.2485 24.9151 33.2485C20.3596 33.2485 16.6666 29.5556 16.6666 25Z" fill="#1ABCFE"/>
<path d="M0.169678 41.497C0.169678 36.9415 3.86265 33.2485 8.41817 33.2485H16.6667V41.497C16.6667 46.0525 12.9737 49.7455 8.41817 49.7455C3.86265 49.7455 0.169678 46.0525 0.169678 41.497Z" fill="#0ACF83"/>
<path d="M16.6666 0.254578V16.7515H24.9151C29.4707 16.7515 33.1636 13.0586 33.1636 8.50306C33.1636 3.94756 29.4707 0.254578 24.9151 0.254578H16.6666Z" fill="#FF7262"/>
<path d="M0.169678 8.50307C0.169678 13.0586 3.86265 16.7515 8.41817 16.7515H16.6667V0.254578H8.41817C3.86265 0.254578 0.169678 3.94755 0.169678 8.50307Z" fill="#F24E1E"/>
<path d="M0.169678 25C0.169678 29.5556 3.86265 33.2485 8.41817 33.2485H16.6667V16.7515H8.41817C3.86265 16.7515 0.169678 20.4446 0.169678 25Z" fill="#A259FF"/>
</g>
<defs>
<clipPath id="clip0_32_190">
<rect width="33.3333" height="50" fill="white"/>
</clipPath>
</defs>
</svg>
