<svg width="89" height="100" viewBox="0 0 89 100" fill="none" xmlns="http://www.w3.org/2000/svg">
<g clip-path="url(#clip0_16_7162)">
<path fill-rule="evenodd" clip-rule="evenodd" d="M43.4941 0.606451C42.747 0.698601 41.3559 1.2192 41.0625 1.51672C41.0468 1.53237 40.9325 1.6184 40.808 1.70782C40.4853 1.93972 39.6117 2.85408 39.5248 3.05062C39.4844 3.14175 39.4373 3.21656 39.42 3.21656C39.3582 3.21656 38.9087 4.17172 38.8062 4.51991C38.7743 4.62906 38.7078 4.84566 38.6583 5.00174C38.2674 6.23708 38.7116 8.39564 39.6144 9.64864C39.7267 9.80435 39.8183 9.95978 39.8183 9.9945C39.8183 10.0948 40.7561 10.9711 40.9756 11.0761C41.0855 11.1285 41.1754 11.1873 41.1754 11.2067C41.1754 11.2394 41.9096 11.6195 42.1651 11.7195C44.5832 12.6644 47.5896 11.7694 48.9651 9.69521C49.1113 9.47457 49.1833 9.411 49.2542 9.44021C49.5463 9.55957 70.0249 19.8484 70.0493 19.8881C70.0653 19.9143 70.0323 19.951 69.9761 19.9697C69.9197 19.9884 69.7463 20.0632 69.5906 20.136C69.4353 20.2084 69.2446 20.2951 69.1665 20.3281C69.0888 20.3611 68.9871 20.4114 68.9406 20.44C68.8937 20.4686 68.7665 20.5298 68.6576 20.576C68.3278 20.7154 67.918 20.9004 67.4419 21.1241C66.9781 21.3424 66.4919 21.5686 65.9433 21.8216C65.7723 21.9008 65.4072 22.0694 65.132 22.1969C64.8569 22.3241 64.6241 22.4285 64.6146 22.4285C64.6055 22.4285 64.3012 22.5686 63.9385 22.74C63.5758 22.9114 63.2683 23.0518 63.2555 23.0518C63.2423 23.0518 62.886 23.2174 62.4636 23.4201C62.0412 23.6227 61.6863 23.7886 61.6754 23.7886C61.6642 23.7886 61.2778 23.9638 60.8163 24.178C60.3549 24.3919 59.8504 24.6248 59.695 24.6949C59.5393 24.7649 59.2339 24.906 59.0164 25.008C58.7986 25.11 58.4933 25.2498 58.3378 25.3188C58.1821 25.3879 57.8259 25.5531 57.546 25.6864C57.2661 25.8194 56.9098 25.9849 56.7544 26.054C56.599 26.123 56.2808 26.2689 56.0477 26.3784C55.611 26.5831 55.1713 26.7847 54.7753 26.9622C54.6508 27.0179 54.3455 27.1587 54.0968 27.2747C53.8478 27.391 53.5424 27.5311 53.4182 27.5861C53.2937 27.6412 52.9755 27.7889 52.7111 27.9139C52.2586 28.1279 51.9063 28.2873 51.4813 28.4699C51.2336 28.5764 50.9486 28.7114 50.8451 28.7712C50.7653 28.8171 50.6327 28.8779 49.9833 29.1666C49.8361 29.2323 49.6871 29.2856 49.6521 29.2856C49.6148 29.2856 49.605 29.3264 49.6281 29.3849C49.9596 30.2303 50.0834 31.2341 49.9721 32.1759C49.8805 32.9536 49.8496 32.9026 50.2886 32.6952C50.6273 32.5354 51.2739 32.2365 51.7781 32.0073C51.9026 31.9505 52.2206 31.8016 52.4852 31.6761C52.7495 31.551 53.0928 31.3929 53.2485 31.3252C53.404 31.2571 53.7223 31.1124 53.9553 31.0031C54.4198 30.7852 54.8622 30.5826 55.2558 30.4071C55.3959 30.3445 55.5486 30.2707 55.5951 30.2425C55.6419 30.2146 55.7183 30.1769 55.7647 30.1585C55.8116 30.1401 55.9578 30.0766 56.0901 30.0174C56.222 29.9579 56.4385 29.8606 56.5705 29.8015C56.7028 29.7423 57.0272 29.5914 57.2915 29.4659C57.5558 29.3407 57.8995 29.183 58.0549 29.1156C58.2106 29.0483 58.554 28.8909 58.8183 28.7654C59.0826 28.6403 59.4008 28.4927 59.5253 28.4376C59.6496 28.3829 59.9549 28.2428 60.2039 28.1268C60.4526 28.0105 60.758 27.8694 60.8825 27.8133C61.1071 27.7116 61.3161 27.6157 62.183 27.2155C62.4317 27.1009 62.7245 26.9676 62.8334 26.9194C62.942 26.8714 63.2602 26.7252 63.5401 26.5943C64.1858 26.293 64.5411 26.1288 64.8973 25.9679C65.0527 25.8979 65.4554 25.7102 65.7923 25.5511C66.1289 25.3923 66.4132 25.262 66.4237 25.262C66.4346 25.262 66.7389 25.1216 67.1003 24.9502C67.4613 24.7789 67.768 24.6387 67.7812 24.6387C67.7948 24.6387 68.0673 24.5143 68.3872 24.3623C68.9568 24.0913 70.6037 23.3316 71.3583 22.9916C71.5678 22.8971 71.8571 22.7601 72.0007 22.6873L72.2628 22.5546L72.3121 33.9536C72.3885 51.5661 72.3807 56.7774 72.2764 56.8353C72.23 56.8611 72.065 56.9369 71.9093 57.0032C71.7535 57.0699 71.4735 57.195 71.287 57.2817C70.9824 57.4231 70.714 57.5415 70.3825 57.6813C70.3201 57.7074 70.053 57.8292 69.7888 57.9519C69.5241 58.0747 69.1207 58.2569 68.8921 58.3566C68.6633 58.4566 68.2942 58.6221 68.072 58.7245C67.6088 58.9384 67.1783 59.1319 66.933 59.2366C66.7006 59.3359 66.2771 59.5273 65.7876 59.7548C65.5619 59.8599 65.3668 59.9456 65.354 59.9456C65.341 59.9456 64.9658 60.1132 64.5203 60.3182C63.6593 60.7144 63.4323 60.8161 63.1161 60.9486C63.0071 60.9946 62.8799 61.0554 62.8334 61.084C62.7865 61.1129 62.7103 61.1516 62.6638 61.1704C62.6169 61.1891 62.4962 61.2401 62.3951 61.2836C62.2939 61.3268 62.1223 61.4006 62.0133 61.4475C61.6256 61.6138 61.441 61.6974 60.8944 61.9534C60.59 62.0959 60.3301 62.2126 60.3169 62.2126C60.3037 62.2126 60.0438 62.3292 59.7395 62.4716C59.1841 62.7314 59.0001 62.8148 58.6063 62.9834C58.4898 63.0334 58.2415 63.1446 58.0549 63.2306C57.8683 63.3166 57.6268 63.4261 57.5178 63.4738C57.1351 63.6414 56.748 63.8159 56.0758 64.1222C55.7026 64.2926 55.3209 64.4649 55.2276 64.5054C55.1343 64.5462 54.9562 64.6234 54.8317 64.6775C54.7075 64.7316 54.453 64.8465 54.2664 64.9329C54.0798 65.0196 53.8254 65.1345 53.7008 65.1882C53.5763 65.2423 53.3982 65.3195 53.3049 65.3599C53.2116 65.4004 52.8852 65.5504 52.5795 65.6931C52.2738 65.836 52.0136 65.9529 52.0013 65.9529C51.9773 65.9529 51.5773 66.1325 50.8451 66.4729C50.3667 66.6952 50.2248 66.7578 49.983 66.853C49.9127 66.8806 49.6647 66.9928 49.4316 67.1026C48.8613 67.3706 48.371 67.5916 48.1308 67.6885C48.0219 67.7324 47.7548 67.8537 47.5371 67.9581L47.1414 68.1482L47.1129 55.4751C47.0888 44.5831 47.0733 42.7782 47.0031 42.632C46.3895 41.3555 44.6033 41.3494 43.9823 42.6218L43.8334 42.9269V57.0169V71.1069L43.9773 71.4115C44.396 72.2979 45.4233 72.605 46.4062 72.1371C46.6241 72.0336 46.8531 71.9293 46.9151 71.9043C46.9773 71.88 47.2191 71.77 47.4522 71.6607C47.6856 71.5507 47.9655 71.4231 48.0745 71.3765C48.4253 71.2266 48.827 71.0456 49.3078 70.8202C49.566 70.6991 49.7876 70.5999 49.7998 70.5999C49.8123 70.5999 49.9952 70.5199 50.2066 70.422C50.9723 70.067 51.2729 69.93 51.4673 69.8474C51.5759 69.8014 51.8178 69.694 52.0044 69.609C52.4166 69.4209 52.795 69.2516 53.0223 69.1534C53.1156 69.1129 53.5353 68.9228 53.9553 68.7307C54.7421 68.3706 54.9352 68.2842 55.2982 68.1291C55.4149 68.0795 55.6884 67.9547 55.9062 67.8524C56.1241 67.7497 56.391 67.6273 56.5 67.5804C56.8443 67.4318 57.2484 67.2491 57.7356 67.0227C57.9952 66.9016 58.2171 66.8031 58.2286 66.8031C58.2521 66.8031 58.6602 66.6191 59.3839 66.2828C59.6482 66.16 59.9155 66.0383 59.9776 66.0121C60.3091 65.8724 60.5775 65.754 60.8825 65.6126C61.0691 65.5259 61.3491 65.398 61.5044 65.3286C61.7857 65.2029 63.1961 64.57 63.6816 64.3521C63.8214 64.2888 64.0888 64.1671 64.2753 64.0807C64.462 63.9947 64.71 63.8835 64.8267 63.8335C65.2542 63.6502 65.415 63.5789 65.8303 63.386C66.5323 63.0606 66.9068 62.8926 66.93 62.8926C66.9421 62.8926 67.2024 62.776 67.5081 62.6339C68.3519 62.2411 68.5626 62.1452 68.6861 62.0986C68.7482 62.0749 68.9901 61.9657 69.2232 61.8562C69.4566 61.7464 69.7362 61.6185 69.845 61.5723C70.1019 61.4624 70.5165 61.2764 70.9763 61.0646C71.1781 60.9714 71.4457 60.8504 71.57 60.7964C71.83 60.6824 72.2157 60.508 72.7007 60.2839C72.8871 60.1975 73.1293 60.0894 73.2378 60.0431C73.3471 59.9969 73.5886 59.8894 73.7757 59.8044C73.9621 59.7194 74.2293 59.5991 74.3693 59.5371C74.5085 59.4749 74.6857 59.3951 74.7628 59.359C74.8393 59.3233 75.0185 59.1791 75.1607 59.0387C75.4057 58.7976 75.4521 58.7259 75.6064 58.3419C75.6757 58.1675 75.6828 43.3444 75.6193 27.9255L75.585 19.4532L75.4507 19.1982C75.1957 18.714 75.3143 18.7766 62.468 12.3397L50.0053 6.09529L49.9843 5.68997C49.9653 5.32307 49.7899 4.5512 49.6603 4.26488C49.3356 3.54707 49.1986 3.29647 48.9326 2.93297C47.6809 1.22395 45.6241 0.344284 43.4941 0.606451ZM44.9184 3.97925C45.9668 4.25298 46.6851 5.19726 46.6875 6.30509C46.6888 6.84745 46.6637 6.9719 46.4588 7.44185C45.9825 8.53235 44.4563 9.09642 43.3391 8.59457C43.2074 8.53535 43.0853 8.48707 43.068 8.48707C42.9455 8.48707 42.3148 7.822 42.1275 7.49521C41.071 5.6512 42.8308 3.43418 44.9184 3.97925ZM71.8421 77.0007C71.7428 77.0614 71.635 77.1621 71.6021 77.2236C71.5135 77.3886 71.5171 99.0479 71.6057 99.2414C71.7407 99.5379 71.61 99.5314 77.4793 99.5314C82.9735 99.5314 83.2157 99.5236 83.8121 99.3343C83.89 99.31 84.0686 99.255 84.2085 99.2136C85.135 98.9364 86.2957 98.1086 87.0514 97.1857C88.41 95.5271 88.8921 92.965 88.2307 90.9171C88.1028 90.5207 87.8943 90.0257 87.8371 89.9829C87.8157 89.9671 87.7371 89.8336 87.6635 89.6871C87.59 89.54 87.4885 89.3743 87.4378 89.3186C87.3878 89.2629 87.2707 89.115 87.1778 88.99C86.9636 88.7014 86.3935 88.1307 86.1014 87.9121C85.9778 87.82 85.8635 87.7286 85.8478 87.7093C85.8328 87.69 85.7486 87.6379 85.6621 87.5928L85.5035 87.5107L85.69 87.3129C85.9721 87.0136 86.1871 86.7564 86.1871 86.72C86.1871 86.7014 86.2193 86.6514 86.2578 86.6079C86.4386 86.4057 86.4878 86.3271 86.6928 85.9157C87.5843 84.1229 87.6 82.055 86.7364 80.2414C86.3971 79.5271 85.7121 78.6907 85.08 78.2186C84.9585 78.1279 84.8457 78.04 84.83 78.0236C84.6793 77.8679 83.6357 77.3357 83.2757 77.2314C82.11 76.8921 82.0793 76.8907 76.8057 76.8907C72.1685 76.8914 72.0171 76.8943 71.8421 77.0007ZM0.405855 77.2157C0.296605 77.2586 0.211784 77.3457 0.131034 77.4971C0.0818375 77.5893 0.0655518 80.3693 0.0655518 88.5136V99.4071L0.209749 99.5964L0.353944 99.7864H1.53534C2.70282 99.7864 2.71877 99.785 2.87552 99.65L3.0343 99.5128L3.06246 96.22L3.09063 92.9271L3.51473 92.4664C3.74816 92.2121 4.07896 91.86 4.24996 91.6836C4.42096 91.5064 4.80266 91.1007 5.09818 90.7814C5.3937 90.4621 5.88193 89.9421 6.18321 89.6257L6.73116 89.0507L6.85195 89.205C6.91845 89.29 7.00292 89.3907 7.03991 89.4293C7.07689 89.4686 7.23398 89.6536 7.38905 89.8407C7.54405 90.0271 7.68455 90.1929 7.7012 90.2086C7.71777 90.2243 7.83213 90.3643 7.95563 90.5207C8.07877 90.6764 8.21855 90.8414 8.26677 90.8886C8.31462 90.935 8.45441 91.1014 8.57755 91.2571C8.7007 91.4129 8.8412 91.5786 8.8897 91.6257C8.9382 91.6721 9.07834 91.8407 9.20084 91.9993C9.44441 92.3157 9.94012 92.915 10.1803 93.1843C10.2635 93.2771 10.4196 93.4686 10.5268 93.6093C10.634 93.7493 10.7605 93.9021 10.808 93.9493C10.8558 93.9957 10.9956 94.1614 11.1188 94.3171C11.242 94.4736 11.3818 94.6393 11.4296 94.6857C11.4778 94.7321 11.6176 94.8986 11.7407 95.0543C11.8642 95.21 11.9789 95.35 11.9958 95.3657C12.0128 95.3814 12.1397 95.5343 12.2778 95.7057C12.4159 95.8771 12.5723 96.0607 12.6249 96.1136C12.6775 96.1664 12.8437 96.3707 12.9941 96.5671C13.144 96.7636 13.3076 96.9621 13.3571 97.0093C13.4069 97.0557 13.5471 97.2221 13.6688 97.3779C13.7907 97.5336 13.9308 97.6993 13.98 97.7464C14.0292 97.7929 14.1683 97.9586 14.2894 98.1143C14.4106 98.27 14.5236 98.4107 14.5408 98.4264C14.5853 98.4657 15.118 99.1071 15.2201 99.2443C15.2669 99.3064 15.3976 99.4536 15.5105 99.5721L15.7158 99.7864H17.5337C19.1073 99.7864 19.3563 99.775 19.3848 99.7007C19.4198 99.6086 19.3159 99.3107 19.2108 99.2007C19.1761 99.1643 19.0486 99.0071 18.9271 98.8514C18.8056 98.695 18.6656 98.5293 18.616 98.4829C18.5665 98.4364 18.3992 98.2429 18.2441 98.0529C17.7179 97.4079 17.36 96.9814 17.1791 96.7829C17.0801 96.6736 16.8986 96.4564 16.7761 96.3007C16.6532 96.145 16.5131 95.9793 16.4643 95.9321C16.4154 95.8857 16.2746 95.72 16.1514 95.5643C16.0283 95.4086 15.8891 95.2429 15.8423 95.1957C15.7955 95.1493 15.6306 94.9579 15.4759 94.7707C15.3212 94.5836 15.1811 94.4179 15.1648 94.4021C15.1488 94.3864 15.0083 94.2207 14.8533 94.0343C14.6983 93.8471 14.5456 93.665 14.5141 93.63C14.4825 93.5943 14.3756 93.4671 14.2762 93.3464C14.1768 93.2257 14.037 93.0593 13.9651 92.9764C13.8935 92.8936 13.7547 92.7279 13.657 92.6086C13.5593 92.4886 13.4001 92.3079 13.3035 92.2071C13.2071 92.1057 13.1281 92.0114 13.1281 91.9964C13.1281 91.9693 12.8763 91.6743 12.6331 91.4157C12.5631 91.3414 12.5058 91.265 12.5058 91.2471C12.5058 91.2286 12.4603 91.1721 12.4051 91.1221C12.3494 91.0714 12.2031 90.9029 12.08 90.7471C11.9568 90.5914 11.8174 90.425 11.7699 90.3786C11.7227 90.3314 11.5718 90.1536 11.4343 89.9821C11.2969 89.8107 11.1575 89.645 11.1239 89.6136C11.0906 89.5821 10.9502 89.4164 10.8118 89.245C10.6733 89.0736 10.4698 88.8314 10.3595 88.7064C10.2492 88.5814 10.0701 88.3693 9.96112 88.2343C9.85255 88.1 9.69991 87.9207 9.62184 87.8371C9.5442 87.7529 9.40441 87.585 9.31105 87.4629C9.21777 87.3421 9.0712 87.1736 8.9857 87.09C8.9002 87.0064 8.83034 86.9179 8.83034 86.8943C8.83034 86.8471 9.69348 85.9079 10.4823 85.0957C10.7398 84.83 11.2946 84.2479 11.7143 83.8014C12.1339 83.355 12.6493 82.8171 12.8593 82.6057C13.0693 82.3943 13.2411 82.2121 13.2411 82.2007C13.2411 82.1893 13.4005 82.0164 13.5949 81.8164C13.8948 81.5086 14.8658 80.4736 15.4746 79.8136C16.4802 78.7236 16.831 78.3457 17.1571 78.0014C17.5364 77.6014 17.6371 77.4221 17.5747 77.2593C17.5469 77.1857 17.2958 77.1743 15.7846 77.1743C13.7801 77.1743 13.8776 77.1536 13.4286 77.6643C13.2685 77.8464 12.879 78.2636 12.5631 78.5907C12.2476 78.9179 11.6538 79.5407 11.2436 79.975C10.8338 80.4093 10.3459 80.9214 10.1593 81.1136C9.9727 81.3057 9.45084 81.8543 8.99998 82.3329C8.54905 82.8114 8.07812 83.31 7.95391 83.44C7.82941 83.5707 7.30455 84.12 6.78748 84.6614C6.2704 85.2036 5.76487 85.7357 5.6641 85.845C5.56334 85.9536 5.06764 86.4764 4.5621 87.0064C4.05691 87.5364 3.51371 88.11 3.35459 88.2814L3.06585 88.5936L3.06416 83.1421C3.06246 77.3336 3.06925 77.4721 2.76695 77.2879C2.58305 77.175 0.657944 77.1164 0.405855 77.2157ZM20.5499 77.21C20.4122 77.2686 20.4861 77.8186 20.6521 77.9671C20.6693 77.9829 20.9842 78.5057 21.352 79.1293C21.7194 79.7529 22.0866 80.3643 22.1673 80.4893C22.2484 80.6136 22.3485 80.78 22.3898 80.8578C22.4526 80.9757 22.7441 81.4707 23.0403 81.9629C23.0779 82.025 23.1234 82.0893 23.1414 82.1043C23.1593 82.12 23.2103 82.2157 23.2541 82.3171C23.2981 82.4186 23.3504 82.5014 23.3704 82.5014C23.3901 82.5014 23.421 82.5457 23.4389 82.6007C23.4566 82.655 23.5296 82.7921 23.6011 82.9043C23.6723 83.0171 23.8427 83.2971 23.9798 83.5279C24.1168 83.7579 24.4032 84.2357 24.6159 84.5886C24.8286 84.9421 25.0031 85.2421 25.0031 85.2557C25.0031 85.2836 25.2958 85.7429 25.3416 85.7878C25.3576 85.8036 25.4088 85.8929 25.4553 85.9864C25.5018 86.08 25.5527 86.1693 25.5683 86.185C25.5839 86.2 25.6307 86.2743 25.6728 86.3486C25.7146 86.4229 25.7976 86.5714 25.8577 86.6786C25.9178 86.7857 26.0145 86.9414 26.0721 87.025C26.1301 87.1086 26.4779 87.6864 26.8451 88.31C27.2125 88.9336 27.5291 89.4564 27.5487 89.4714C27.5687 89.4871 27.621 89.5829 27.6648 89.6843C27.7088 89.7857 27.7641 89.8686 27.7876 89.8686C27.811 89.8686 27.831 89.9007 27.8317 89.9393C27.8323 89.9786 27.8826 90.0743 27.9433 90.1521C28.0508 90.29 28.0539 90.415 28.0553 94.7764C28.0566 99.4864 28.059 99.53 28.3131 99.6979C28.5591 99.8586 30.7136 99.8264 30.8706 99.6586C31.0959 99.4179 31.1071 99.1821 31.1088 94.6279L31.1102 90.235L31.2513 90.0264C31.3291 89.9114 31.3928 89.7929 31.3928 89.7629C31.3928 89.7329 31.4118 89.6993 31.4352 89.6893C31.4586 89.6786 31.5641 89.53 31.6697 89.3586C32.4158 88.1471 32.5803 87.87 32.5803 87.8243C32.5803 87.7957 32.5996 87.7714 32.6234 87.7714C32.6471 87.7714 32.6916 87.7207 32.7225 87.6579C32.753 87.5957 32.9813 87.2071 33.2293 86.7943C33.4777 86.3807 33.7088 85.9921 33.7427 85.93C33.777 85.8671 33.9955 85.4979 34.2282 85.1079C34.461 84.7186 34.6686 84.3614 34.6893 84.315C34.7097 84.2679 34.7914 84.1279 34.8701 84.0029C34.9492 83.8779 35.0289 83.7314 35.0476 83.6771C35.0663 83.6229 35.1039 83.5779 35.1314 83.5779C35.1589 83.5779 35.1816 83.5543 35.1816 83.5257C35.1816 83.4979 35.3068 83.2614 35.4598 83.0021C35.7825 82.4536 36.2253 81.6979 36.3671 81.4529C36.4211 81.3593 36.6511 80.9764 36.8784 80.6029C37.1057 80.2286 37.3195 79.8657 37.3534 79.7957C37.3873 79.7257 37.4341 79.6686 37.4576 79.6679C37.481 79.6679 37.5 79.645 37.5 79.6179C37.5 79.5671 37.8379 78.9857 37.9411 78.8586C37.9716 78.82 38.0472 78.7 38.109 78.5907C38.1707 78.4814 38.3261 78.2207 38.4543 78.0107C38.9456 77.2071 38.8917 77.1743 37.0965 77.1743C35.3136 77.1743 35.3784 77.1514 34.9288 77.9193C34.8115 78.12 34.4841 78.6921 34.3503 78.9307C34.3066 79.0086 34.2089 79.1743 34.1332 79.2993C34.0576 79.4236 33.8873 79.7171 33.7549 79.9507C33.6223 80.185 33.4821 80.4271 33.4438 80.4893C33.4055 80.5514 33.3576 80.6471 33.3379 80.7021C33.3183 80.7564 33.2799 80.8007 33.2524 80.8007C33.225 80.8007 33.2022 80.8243 33.2022 80.8529C33.2022 80.8814 33.0757 81.1171 32.921 81.3771C32.7663 81.6371 32.5946 81.9386 32.5393 82.0479C32.484 82.1571 32.4198 82.2543 32.3964 82.265C32.3733 82.275 32.354 82.3079 32.354 82.3364C32.354 82.365 32.1681 82.7007 31.9404 83.0829C31.7131 83.4643 31.5098 83.8143 31.4892 83.8614C31.4688 83.9079 31.3871 84.0486 31.3083 84.1729C31.2293 84.2979 31.1496 84.4443 31.1309 84.4986C31.1122 84.5536 31.0746 84.5979 31.0471 84.5979C31.0196 84.5979 30.9968 84.6214 30.9968 84.65C30.9968 84.6786 30.8703 84.9143 30.7156 85.1743C30.5609 85.4336 30.3892 85.7357 30.3339 85.845C30.2786 85.9536 30.2145 86.0514 30.1911 86.0621C30.168 86.0721 30.1486 86.1036 30.1486 86.1314C30.1486 86.1586 30.0191 86.4014 29.8606 86.67L29.5726 87.1586L29.4365 86.9586C29.3618 86.8479 29.3004 86.7407 29.3004 86.7207C29.3004 86.7007 29.2533 86.6164 29.1956 86.5336C29.1379 86.4507 29.027 86.2686 28.9489 86.1286C28.7301 85.7329 28.6032 85.5129 28.3192 85.0329C28.1747 84.7886 28.0566 84.5779 28.0566 84.5643C28.0566 84.5507 27.9548 84.3714 27.8303 84.1664C27.7058 83.9607 27.604 83.7786 27.604 83.7607C27.604 83.7436 27.5694 83.6886 27.527 83.6393C27.4846 83.59 27.3407 83.3457 27.2077 83.0964C27.0744 82.8471 26.9217 82.5793 26.8681 82.5014C26.8148 82.4229 26.6741 82.1814 26.5553 81.9629C26.4366 81.7443 26.2679 81.4514 26.1811 81.3107C26.0938 81.1707 25.9775 80.9671 25.9228 80.8578C25.8679 80.7486 25.8038 80.6507 25.7803 80.6407C25.7573 80.63 25.7379 80.5986 25.7379 80.5714C25.7379 80.5436 25.6202 80.3221 25.4763 80.08C25.1343 79.5043 25.0213 79.3071 24.8171 78.9307C24.7238 78.7593 24.6183 78.5807 24.5827 78.5343C24.5467 78.4871 24.4802 78.3729 24.4351 78.2793C24.39 78.1857 24.3394 78.0964 24.3231 78.0807C24.3068 78.065 24.2305 77.93 24.1535 77.7814C24.0765 77.6321 23.9584 77.4407 23.8916 77.3564L23.7698 77.2021L22.1951 77.1914C21.3289 77.185 20.5886 77.1936 20.5499 77.21ZM82.1336 80.0379C83.1593 80.3736 83.7314 80.9214 84.1336 81.9514C84.3193 82.4279 84.3657 83.5857 84.215 83.975C84.0393 84.4257 83.735 85.0514 83.69 85.0514C83.6643 85.0514 83.6428 85.08 83.6428 85.115C83.6428 85.2007 83.1678 85.6514 82.8828 85.8364C82.7564 85.9186 82.6407 86.0007 82.625 86.0186C82.5664 86.0864 82.0735 86.2579 81.72 86.3336C81.4307 86.395 80.6264 86.4114 77.9171 86.4114H74.4821V83.1529V79.8943H78.0885H81.695L82.1336 80.0379ZM55.6205 86.5729C55.591 86.5986 55.1852 86.78 54.7187 86.9743C53.897 87.3179 53.7192 87.3943 53.1502 87.6507C53.0026 87.7179 52.8689 87.7714 52.8526 87.7714C52.8363 87.7714 52.7153 87.82 52.5836 87.8786C51.9671 88.1529 51.7886 88.2293 51.1281 88.5064C50.7392 88.6693 50.2618 88.8764 50.0674 88.9679C49.8731 89.0579 49.701 89.1314 49.6851 89.1314C49.6525 89.1314 49.1711 89.3414 49.0224 89.42C48.9682 89.4486 48.8891 89.4714 48.8463 89.4714C48.8039 89.4714 48.6571 89.5707 48.5206 89.6914C47.1153 90.9321 48.7147 92.98 50.3361 92.015C50.383 91.9871 50.4593 91.95 50.5058 91.9314C50.6951 91.8578 50.8295 91.8007 51.085 91.6879C51.2322 91.6221 51.3662 91.5686 51.3825 91.5686C51.3985 91.5686 51.5325 91.5143 51.6797 91.4479C52.2158 91.2064 52.4095 91.1229 52.9093 90.9179C53.1892 90.8036 53.558 90.645 53.729 90.5664C53.9003 90.4871 54.091 90.4029 54.1531 90.3786C54.2155 90.3536 54.3618 90.2929 54.4785 90.2429C54.5948 90.1929 54.773 90.1171 54.8741 90.0736C54.9752 90.0307 55.1978 89.9336 55.3691 89.8579C55.5401 89.7821 55.9578 89.6064 56.2974 89.4686C57.6356 88.9236 58.0322 87.7771 57.1786 86.9214C56.8321 86.5743 55.8631 86.3571 55.6205 86.5729ZM82.58 89.4171C83.1393 89.5264 83.6285 89.7179 83.8935 89.9329C83.9271 89.9593 84.0814 90.0786 84.2364 90.1986C84.3921 90.3179 84.5957 90.5286 84.6886 90.6664C84.7821 90.8043 84.8736 90.93 84.8921 90.9457C85.2878 91.275 85.61 93.0157 85.4021 93.7C85.375 93.79 85.3186 93.9786 85.2764 94.1193C85.1593 94.5107 84.8671 95.0421 84.6343 95.285C84.6021 95.3186 84.4964 95.4371 84.3985 95.5486C84.13 95.8564 83.65 96.1714 83.1621 96.3614C82.6057 96.5771 82.6578 96.575 78.5114 96.5964L74.4821 96.6171V92.9879V89.3586H78.3814C80.8314 89.3586 82.3914 89.38 82.58 89.4171Z" fill="#9B9B9B"/>
<path fill-rule="evenodd" clip-rule="evenodd" d="M44.1021 33.9729C44.1723 33.9862 44.2867 33.9862 44.3565 33.9729C44.4268 33.9594 44.3694 33.9481 44.2293 33.9481C44.0895 33.9481 44.0322 33.9594 44.1021 33.9729Z" fill="#9B9B9B"/>
<path fill-rule="evenodd" clip-rule="evenodd" d="M50.0098 31.4951C50.0098 31.6042 50.0213 31.6488 50.0355 31.5944C50.0498 31.54 50.0498 31.4506 50.0355 31.3961C50.0213 31.3414 50.0098 31.3863 50.0098 31.4951Z" fill="#9B9B9B"/>
<path fill-rule="evenodd" clip-rule="evenodd" d="M37.6416 7.32465C37.1751 7.55143 36.5135 7.87072 36.1712 8.03365C35.8292 8.1965 35.2313 8.48279 34.8425 8.66986C34.4537 8.8565 34.0845 9.03193 34.0225 9.0595C33.9604 9.08708 33.8712 9.13265 33.8247 9.1605C33.7368 9.21358 33.2991 9.42436 32.0434 10.0184C31.639 10.2099 31.0028 10.5145 30.6296 10.6958C30.2564 10.877 29.6073 11.1901 29.1877 11.3921C28.7676 11.5938 28.1063 11.9124 27.7175 12.0994C27.3287 12.2868 26.7051 12.5867 26.3319 12.7656C25.0735 13.3688 24.0162 13.8768 23.5612 14.0974C23.3122 14.2179 22.6761 14.5235 22.1475 14.7772C21.6189 15.0305 20.9827 15.3369 20.7337 15.4583C20.485 15.5794 19.8997 15.8612 19.4332 16.0839C17.7191 16.9034 17.1613 17.1724 16.7189 17.3927L16.2666 17.6181L16.2381 14.4834C16.2103 11.3687 16.2093 11.3466 16.082 11.0909C15.3912 9.70115 13.342 9.91608 12.9844 11.4159C12.8812 11.8488 12.8612 59.4377 12.964 59.8774C13.3291 61.4388 15.3757 61.7094 16.081 60.2898L16.21 60.03L16.2245 41.3707C16.2327 31.108 16.2473 22.7112 16.2571 22.7112C16.2666 22.7112 16.4322 22.7877 16.6249 22.8812C16.8176 22.9747 16.9862 23.0512 17.0002 23.0512C17.0137 23.0512 17.1976 23.1319 17.409 23.2304C17.8365 23.4301 18.5215 23.7439 18.8676 23.8983C18.9921 23.9541 19.2975 24.0951 19.5462 24.2121C19.7952 24.3288 20.0497 24.4437 20.1117 24.4675C20.2736 24.5291 20.6682 24.7052 21.1577 24.9354C21.856 25.2631 22.3493 25.4883 22.3704 25.4883C22.3812 25.4883 22.687 25.6284 23.0496 25.7997C23.4123 25.9711 23.7177 26.1116 23.7285 26.1116C23.739 26.1116 23.9602 26.2105 24.2198 26.3312C24.6646 26.5383 24.8448 26.6199 25.4979 26.9116C25.6455 26.9773 25.9827 27.132 26.247 27.2548C26.5114 27.3779 26.7787 27.4992 26.8408 27.5244C27.043 27.607 27.4539 27.7924 27.8872 27.996C28.1202 28.1059 28.4002 28.2341 28.5091 28.281C28.7734 28.3949 29.2226 28.5996 29.8272 28.8825C30.101 29.0104 30.3358 29.1151 30.3487 29.1151C30.3616 29.1151 30.6082 29.2269 30.8966 29.3633C31.3998 29.6014 31.5887 29.6874 32.213 29.9645C32.3685 30.0335 32.6609 30.1668 32.8631 30.261C33.3069 30.4674 33.7968 30.6864 34.2213 30.8683C34.2987 30.9013 34.3997 30.9519 34.4466 30.9805C34.493 31.0091 34.6203 31.0703 34.7292 31.1165C35.1499 31.2944 35.7454 31.5636 36.5562 31.9428C36.8304 32.0707 37.0642 32.1754 37.076 32.1754C37.0879 32.1754 37.3346 32.2869 37.624 32.4233C37.9134 32.5593 38.2727 32.7263 38.422 32.7943C38.5712 32.8623 38.7015 32.9483 38.7121 32.9857C39.2387 34.8947 40.4699 36.2426 42.335 36.9512C43.5587 37.4164 45.2664 37.3817 46.4345 36.8679C46.782 36.7152 47.3615 36.4174 47.3961 36.3738C47.4117 36.3544 47.4962 36.2925 47.584 36.2364C48.1544 35.8723 48.947 35.0011 49.294 34.3574C49.4729 34.0255 49.5278 33.9065 49.6604 33.5641C49.7677 33.2867 49.7901 33.186 49.8882 32.544C50.0517 31.4732 50.0038 30.6973 49.7192 29.7952C49.655 29.5925 49.6025 29.3844 49.6021 29.3324C49.6011 29.1875 49.08 28.2351 48.9252 28.095C48.908 28.0794 48.8272 27.9774 48.7455 27.8685C47.4351 26.1163 44.8569 25.3254 42.5895 25.9793C41.518 26.2884 40.2446 27.1711 39.7007 27.9817C39.6278 28.0909 39.5416 28.2109 39.5094 28.249C39.3622 28.4228 39.3217 28.4901 39.1199 28.9016L38.9051 29.3399L38.7257 29.2637C38.6269 29.2219 38.419 29.1304 38.2635 29.0606C38.1082 28.991 37.8791 28.8879 37.7546 28.8322C37.6301 28.7761 37.3376 28.6411 37.1042 28.5323C36.8711 28.4232 36.5783 28.2898 36.4541 28.2358C36.3296 28.1814 36.0114 28.0369 35.747 27.9144C35.4827 27.792 35.2157 27.6703 35.1533 27.6441C34.8079 27.4989 34.5857 27.3982 34.0316 27.1371C33.6947 26.9783 33.4104 26.8484 33.4002 26.8484C33.39 26.8484 32.9914 26.6675 32.5143 26.4465C32.0377 26.2255 31.5582 26.0058 31.4497 25.9586C31.3407 25.9113 31.0988 25.8011 30.9122 25.7144C30.5774 25.5584 30.1957 25.3873 29.8095 25.2206C29.7007 25.1737 29.4211 25.0456 29.1877 24.9357C28.9545 24.8259 28.6617 24.6923 28.5372 24.6382C28.413 24.5844 28.1202 24.4511 27.8872 24.3424C26.9195 23.8911 26.6932 23.7881 26.6708 23.7881C26.6576 23.7881 26.3515 23.6476 25.9902 23.4763C25.6289 23.3049 25.3212 23.1645 25.3059 23.1645C25.2807 23.1645 25.126 23.0941 24.1832 22.6541C23.833 22.4909 23.4259 22.3089 23.0805 22.1614C22.9716 22.1148 22.7046 21.9931 22.4867 21.8904C22.269 21.7877 22.0019 21.6656 21.893 21.6184C21.5476 21.4694 21.2036 21.3123 20.5739 21.0158C20.2373 20.8574 19.9523 20.7278 19.9411 20.7278C19.9299 20.7278 19.704 20.6254 19.439 20.5006C19.1743 20.3755 18.8876 20.2466 18.8021 20.2144L18.6467 20.1551L18.927 20.0191C19.4824 19.7502 20.906 19.0701 21.0166 19.0211C21.0787 18.9936 21.1676 18.9481 21.2145 18.9201C21.2609 18.8919 21.5154 18.7665 21.78 18.641C22.6147 18.2456 23.7051 17.7232 24.4658 17.3554C24.8702 17.1598 25.481 16.866 25.823 16.7028C26.1653 16.5396 26.8395 16.2155 27.3216 15.9826C27.8037 15.75 28.3761 15.4749 28.5939 15.3716C29.0533 15.1536 30.8179 14.3039 31.4778 13.9829C31.7265 13.8618 32.2863 13.5949 32.722 13.3895C33.1573 13.1845 33.5515 12.9916 33.5984 12.9614C33.6448 12.9315 33.747 12.8794 33.8247 12.8461C33.9024 12.8131 34.1948 12.6758 34.4747 12.5408C34.7547 12.4058 35.289 12.1501 35.6622 11.9726C36.0355 11.7951 36.6716 11.4894 37.076 11.2932C38.2581 10.7196 39.0863 10.3227 39.464 10.1496L39.8157 9.98815L39.5579 9.61986C39.0751 8.92993 38.69 7.98736 38.6018 7.27908C38.5489 6.8554 38.6123 6.85235 37.6416 7.32465ZM45.0258 29.1777C46.2513 29.5803 47.0456 31.1094 46.6127 32.2322C46.2829 33.0867 45.8174 33.5389 44.9162 33.8793C43.2368 34.5138 41.3612 32.5668 41.9377 30.787C42.1168 30.2334 42.772 29.3987 43.0275 29.3987C43.0665 29.3987 43.0984 29.3732 43.0984 29.3419C43.0984 29.3106 43.1448 29.2851 43.2022 29.2851C43.2592 29.2851 43.3247 29.2661 43.3481 29.2426C43.5482 29.0417 44.499 29.0046 45.0258 29.1777ZM60.006 77.9672C59.4699 78.0179 58.7449 78.1607 58.338 78.2957C57.5577 78.555 55.9756 79.4107 55.8874 79.6214C55.8772 79.6464 55.8463 79.6672 55.8189 79.6672C55.7323 79.6672 54.9177 80.4729 54.6154 80.8571C54.456 81.06 54.309 81.2386 54.2883 81.2543C53.833 81.6 53.0387 83.7236 52.8786 85.0229C52.7192 86.3172 52.808 86.5443 53.3747 86.2929C53.5229 86.2271 53.7082 86.1472 53.7859 86.1164C53.8635 86.085 54.0037 86.0264 54.097 85.9864C54.1903 85.9464 54.362 85.8722 54.4787 85.8222C54.595 85.7722 54.7861 85.6907 54.9028 85.6407C55.0192 85.5914 55.159 85.5279 55.2129 85.4993C55.2668 85.4707 55.3591 85.4479 55.4182 85.4479C55.5671 85.4479 55.633 85.3472 55.6777 85.0507C55.7157 84.7986 55.8422 84.335 55.9329 84.1157C55.9587 84.0536 56.0122 83.9129 56.052 83.8043C56.0917 83.695 56.1704 83.5379 56.2274 83.455C56.284 83.3729 56.3305 83.2864 56.3305 83.2636C56.3305 83.2029 56.7125 82.6807 56.9273 82.4472C57.0297 82.3364 57.1627 82.1886 57.2235 82.1179C57.2839 82.0479 57.3527 81.9907 57.3765 81.9907C57.4002 81.9907 57.461 81.9443 57.5112 81.8879C57.8105 81.5522 58.7781 81.0479 59.4689 80.8686C62.1052 80.1829 64.567 81.4607 65.7243 84.1157C65.9957 84.7379 66.0979 86.3307 65.9106 87.0179C65.861 87.1979 65.801 87.425 65.7769 87.5214C65.5835 88.2979 64.681 89.5586 63.9645 90.0536C63.8243 90.15 63.6971 90.2472 63.6818 90.2693C63.613 90.3657 62.8787 90.7243 62.4665 90.8622C61.2081 91.2836 59.8194 91.2043 58.5925 90.6422C58.375 90.5429 57.8312 90.195 57.8101 90.1414C57.7792 90.0643 57.631 90.0879 57.4125 90.205C57.1557 90.3429 56.1381 90.7957 55.6237 91.0014C55.3279 91.12 54.9734 91.2879 54.9734 91.31C54.9734 91.425 55.995 92.2979 56.588 92.6893C56.8025 92.8307 57.9136 93.35 58.1117 93.4014C58.1738 93.4179 58.3387 93.4729 58.4778 93.5236C59.5144 93.9043 61.3041 93.9793 62.4943 93.6922C62.572 93.6736 62.7501 93.63 62.8899 93.5964C63.8158 93.3707 65.2181 92.635 65.9401 91.9964C66.4972 91.5043 67.0807 90.8657 67.2653 90.5479C67.3288 90.4393 67.3953 90.3372 67.413 90.3214C67.5415 90.2093 68.2055 88.9164 68.2055 88.7779C68.2055 88.7357 68.2265 88.6764 68.2523 88.6464C68.3188 88.57 68.5424 87.7736 68.654 87.2143C68.7321 86.8243 68.7324 84.98 68.6547 84.5879C67.8052 80.3043 64.2284 77.5664 60.006 77.9672ZM43.155 83.86C42.4747 83.9486 41.5352 84.1693 41.4332 84.2643C41.4036 84.2914 41.3456 84.3143 41.3049 84.3143C41.1346 84.3143 39.8361 84.9922 39.5952 85.2072C39.5165 85.2772 39.4222 85.3343 39.3855 85.3343C39.3489 85.3343 39.3106 85.3536 39.3004 85.3772C39.2899 85.4 39.1426 85.5343 38.973 85.6743C38.5658 86.0107 38.3117 86.265 38.0372 86.6093C37.9127 86.765 37.7967 86.905 37.7787 86.9207C37.7509 86.945 37.4886 87.3393 37.2307 87.7443C36.2699 89.2536 35.9069 91.6136 36.3418 93.5236C36.5529 94.45 37.4184 96.3393 37.6742 96.4329C37.703 96.4429 37.7265 96.4764 37.7265 96.5079C37.7265 96.5379 37.758 96.5964 37.797 96.6372C37.836 96.6786 37.9948 96.8586 38.1505 97.0393C38.4888 97.4314 38.5913 97.5336 38.9431 97.8307C39.0907 97.955 39.2447 98.0893 39.2848 98.1279C39.3252 98.1672 39.3855 98.1986 39.4188 98.1986C39.452 98.1986 39.4792 98.2193 39.4792 98.245C39.4792 98.31 40.3081 98.7957 40.7637 98.9979C40.9747 99.0914 41.1984 99.1907 41.2605 99.2179C41.37 99.2672 41.7714 99.3857 42.5327 99.5957C42.83 99.6772 43.1282 99.6964 44.088 99.6986C45.3265 99.7007 45.586 99.6657 46.4383 99.3807C46.6117 99.3229 46.7827 99.2757 46.8186 99.2757C46.8546 99.2757 47.051 99.1993 47.2546 99.1057C47.4582 99.0122 47.6356 98.9357 47.6485 98.9357C47.6821 98.9357 48.719 98.3022 48.7532 98.2607C48.7688 98.2422 48.8832 98.1529 49.0077 98.0629C50.0945 97.2743 51.3712 95.4414 51.6959 94.2036C51.7203 94.11 51.7776 93.8929 51.8231 93.7214C51.8685 93.55 51.9212 93.2886 51.9398 93.1407C51.9588 92.9929 51.99 92.8079 52.0097 92.73C52.0535 92.555 52.0002 92.5522 51.6507 92.7086C51.382 92.8286 51.1591 92.925 50.789 93.0822C50.1395 93.3586 50.0303 93.3872 49.5679 93.4064C49.064 93.4272 49.1312 93.3679 48.8 94.09C48.7 94.3086 48.6016 94.5 48.5812 94.515C48.5605 94.5307 48.5154 94.5979 48.4804 94.6643C48.0726 95.4407 46.8393 96.3779 45.7367 96.7493C43.6697 97.4443 40.913 96.5293 39.9026 94.8129C39.8429 94.7114 39.7744 94.6286 39.75 94.6286C39.7255 94.6286 39.7055 94.6057 39.7055 94.5772C39.7055 94.5493 39.622 94.3772 39.5199 94.195C38.8678 93.0314 38.7497 91.075 39.2624 89.925C39.428 89.5529 39.5101 89.3836 39.5372 89.3579C39.5535 89.3422 39.6298 89.2072 39.7069 89.0586C40.515 87.4914 42.8208 86.3364 44.6648 86.575C45.6854 86.7072 46.989 87.2714 47.4592 87.785C47.5094 87.84 47.5732 87.885 47.6007 87.8857C47.6278 87.8864 47.7197 87.9693 47.8042 88.07C48.2168 88.5607 48.1775 88.5314 48.3295 88.4607C48.4072 88.4243 48.5405 88.3664 48.626 88.3314C48.7115 88.2964 48.8197 88.2493 48.8665 88.2257C48.9487 88.1857 50.0839 87.7043 50.5202 87.5243C50.637 87.4764 50.7323 87.4086 50.7323 87.3729C50.7323 87.155 49.5478 85.8386 49.0359 85.4879C48.8961 85.3922 48.7688 85.2986 48.7532 85.28C48.5799 85.0764 47.3418 84.4379 46.689 84.2157C46.3677 84.1064 46.2262 84.0693 45.5605 83.9172C45.2002 83.835 43.6327 83.7979 43.155 83.86Z" fill="#9B9B9B"/>
<path fill-rule="evenodd" clip-rule="evenodd" d="M43.4941 0.606451C42.747 0.698601 41.3559 1.2192 41.0625 1.51672C41.0468 1.53237 40.9325 1.6184 40.808 1.70782C40.4853 1.93972 39.6117 2.85408 39.5248 3.05062C39.4844 3.14175 39.4373 3.21656 39.42 3.21656C39.3582 3.21656 38.9087 4.17172 38.8062 4.51991C38.7743 4.62906 38.7078 4.84566 38.6583 5.00174C38.2674 6.23708 38.7116 8.39564 39.6144 9.64864C39.7267 9.80435 39.8183 9.95978 39.8183 9.9945C39.8183 10.0948 40.7561 10.9711 40.9756 11.0761C41.0855 11.1285 41.1754 11.1873 41.1754 11.2067C41.1754 11.2394 41.9096 11.6195 42.1651 11.7195C44.5832 12.6644 47.5896 11.7694 48.9651 9.69521C49.1113 9.47457 49.1833 9.411 49.2542 9.44021C49.5463 9.55957 70.0249 19.8484 70.0493 19.8881C70.0653 19.9143 70.0323 19.951 69.9761 19.9697C69.9197 19.9884 69.7463 20.0632 69.5906 20.136C69.4353 20.2084 69.2446 20.2951 69.1665 20.3281C69.0888 20.3611 68.9871 20.4114 68.9406 20.44C68.8937 20.4686 68.7665 20.5298 68.6576 20.576C68.3278 20.7154 67.918 20.9004 67.4419 21.1241C66.9781 21.3424 66.4919 21.5686 65.9433 21.8216C65.7723 21.9008 65.4072 22.0694 65.132 22.1969C64.8569 22.3241 64.6241 22.4285 64.6146 22.4285C64.6055 22.4285 64.3012 22.5686 63.9385 22.74C63.5758 22.9114 63.2683 23.0518 63.2555 23.0518C63.2423 23.0518 62.886 23.2174 62.4636 23.4201C62.0412 23.6227 61.6863 23.7886 61.6754 23.7886C61.6642 23.7886 61.2778 23.9638 60.8163 24.178C60.3549 24.3919 59.8504 24.6248 59.695 24.6949C59.5393 24.7649 59.2339 24.906 59.0164 25.008C58.7986 25.11 58.4933 25.2498 58.3378 25.3188C58.1821 25.3879 57.8259 25.5531 57.546 25.6864C57.2661 25.8194 56.9098 25.9849 56.7544 26.054C56.599 26.123 56.2808 26.2689 56.0477 26.3784C55.611 26.5831 55.1713 26.7847 54.7753 26.9622C54.6508 27.0179 54.3455 27.1587 54.0968 27.2747C53.8478 27.391 53.5424 27.5311 53.4182 27.5861C53.2937 27.6412 52.9755 27.7889 52.7111 27.9139C52.2586 28.1279 51.9063 28.2873 51.4813 28.4699C51.2336 28.5764 50.9486 28.7114 50.8451 28.7712C50.7653 28.8171 50.6327 28.8779 49.9833 29.1666C49.8361 29.2323 49.6871 29.2856 49.6521 29.2856C49.6148 29.2856 49.605 29.3264 49.6281 29.3849C49.9596 30.2303 50.0834 31.2341 49.9721 32.1759C49.8805 32.9536 49.8496 32.9026 50.2886 32.6952C50.6273 32.5354 51.2739 32.2365 51.7781 32.0073C51.9026 31.9505 52.2206 31.8016 52.4852 31.6761C52.7495 31.551 53.0928 31.3929 53.2485 31.3252C53.404 31.2571 53.7223 31.1124 53.9553 31.0031C54.4198 30.7852 54.8622 30.5826 55.2558 30.4071C55.3959 30.3445 55.5486 30.2707 55.5951 30.2425C55.6419 30.2146 55.7183 30.1769 55.7647 30.1585C55.8116 30.1401 55.9578 30.0766 56.0901 30.0174C56.222 29.9579 56.4385 29.8606 56.5705 29.8015C56.7028 29.7423 57.0272 29.5914 57.2915 29.4659C57.5558 29.3407 57.8995 29.183 58.0549 29.1156C58.2106 29.0483 58.554 28.8909 58.8183 28.7654C59.0826 28.6403 59.4008 28.4927 59.5253 28.4376C59.6496 28.3829 59.9549 28.2428 60.2039 28.1268C60.4526 28.0105 60.758 27.8694 60.8825 27.8133C61.1071 27.7116 61.3161 27.6157 62.183 27.2155C62.4317 27.1009 62.7245 26.9676 62.8334 26.9194C62.942 26.8714 63.2602 26.7252 63.5401 26.5943C64.1858 26.293 64.5411 26.1288 64.8973 25.9679C65.0527 25.8979 65.4554 25.7102 65.7923 25.5511C66.1289 25.3923 66.4132 25.262 66.4237 25.262C66.4346 25.262 66.7389 25.1216 67.1003 24.9502C67.4613 24.7789 67.768 24.6387 67.7812 24.6387C67.7948 24.6387 68.0673 24.5143 68.3872 24.3623C68.9568 24.0913 70.6037 23.3316 71.3583 22.9916C71.5678 22.8971 71.8571 22.7601 72.0007 22.6873L72.2628 22.5546L72.3121 33.9536C72.3885 51.5661 72.3807 56.7774 72.2764 56.8353C72.23 56.8611 72.065 56.9369 71.9093 57.0032C71.7535 57.0699 71.4735 57.195 71.287 57.2817C70.9824 57.4231 70.714 57.5415 70.3825 57.6813C70.3201 57.7074 70.053 57.8292 69.7888 57.9519C69.5241 58.0747 69.1207 58.2569 68.8921 58.3566C68.6633 58.4566 68.2942 58.6221 68.072 58.7245C67.6088 58.9384 67.1783 59.1319 66.933 59.2366C66.7006 59.3359 66.2771 59.5273 65.7876 59.7548C65.5619 59.8599 65.3668 59.9456 65.354 59.9456C65.341 59.9456 64.9658 60.1132 64.5203 60.3182C63.6593 60.7144 63.4323 60.8161 63.1161 60.9486C63.0071 60.9946 62.8799 61.0554 62.8334 61.084C62.7865 61.1129 62.7103 61.1516 62.6638 61.1704C62.6169 61.1891 62.4962 61.2401 62.3951 61.2836C62.2939 61.3268 62.1223 61.4006 62.0133 61.4475C61.6256 61.6138 61.441 61.6974 60.8944 61.9534C60.59 62.0959 60.3301 62.2126 60.3169 62.2126C60.3037 62.2126 60.0438 62.3292 59.7395 62.4716C59.1841 62.7314 59.0001 62.8148 58.6063 62.9834C58.4898 63.0334 58.2415 63.1446 58.0549 63.2306C57.8683 63.3166 57.6268 63.4261 57.5178 63.4738C57.1351 63.6414 56.748 63.8159 56.0758 64.1222C55.7026 64.2926 55.3209 64.4649 55.2276 64.5054C55.1343 64.5462 54.9562 64.6234 54.8317 64.6775C54.7075 64.7316 54.453 64.8465 54.2664 64.9329C54.0798 65.0196 53.8254 65.1345 53.7008 65.1882C53.5763 65.2423 53.3982 65.3195 53.3049 65.3599C53.2116 65.4004 52.8852 65.5504 52.5795 65.6931C52.2738 65.836 52.0136 65.9529 52.0013 65.9529C51.9773 65.9529 51.5773 66.1325 50.8451 66.4729C50.3667 66.6952 50.2248 66.7578 49.983 66.853C49.9127 66.8806 49.6647 66.9928 49.4316 67.1026C48.8613 67.3706 48.371 67.5916 48.1308 67.6885C48.0219 67.7324 47.7548 67.8537 47.5371 67.9581L47.1414 68.1482L47.1129 55.4751C47.0888 44.5831 47.0733 42.7782 47.0031 42.632C46.3895 41.3555 44.6033 41.3494 43.9823 42.6218L43.8334 42.9269V57.0169V71.1069L43.9773 71.4115C44.396 72.2979 45.4233 72.605 46.4062 72.1371C46.6241 72.0336 46.8531 71.9293 46.9151 71.9043C46.9773 71.88 47.2191 71.77 47.4522 71.6607C47.6856 71.5507 47.9655 71.4231 48.0745 71.3765C48.4253 71.2266 48.827 71.0456 49.3078 70.8202C49.566 70.6991 49.7876 70.5999 49.7998 70.5999C49.8123 70.5999 49.9952 70.5199 50.2066 70.422C50.9723 70.067 51.2729 69.93 51.4673 69.8474C51.5759 69.8014 51.8178 69.694 52.0044 69.609C52.4166 69.4209 52.795 69.2516 53.0223 69.1534C53.1156 69.1129 53.5353 68.9228 53.9553 68.7307C54.7421 68.3706 54.9352 68.2842 55.2982 68.1291C55.4149 68.0795 55.6884 67.9547 55.9062 67.8524C56.1241 67.7497 56.391 67.6273 56.5 67.5804C56.8443 67.4318 57.2484 67.2491 57.7356 67.0227C57.9952 66.9016 58.2171 66.8031 58.2286 66.8031C58.2521 66.8031 58.6602 66.6191 59.3839 66.2828C59.6482 66.16 59.9155 66.0383 59.9776 66.0121C60.3091 65.8724 60.5775 65.754 60.8825 65.6126C61.0691 65.5259 61.3491 65.398 61.5044 65.3286C61.7857 65.2029 63.1961 64.57 63.6816 64.3521C63.8214 64.2888 64.0888 64.1671 64.2753 64.0807C64.462 63.9947 64.71 63.8835 64.8267 63.8335C65.2542 63.6502 65.415 63.5789 65.8303 63.386C66.5323 63.0606 66.9068 62.8926 66.93 62.8926C66.9421 62.8926 67.2024 62.776 67.5081 62.6339C68.3519 62.2411 68.5626 62.1452 68.6861 62.0986C68.7482 62.0749 68.9901 61.9657 69.2232 61.8562C69.4566 61.7464 69.7362 61.6185 69.845 61.5723C70.1019 61.4624 70.5165 61.2764 70.9763 61.0646C71.1781 60.9714 71.4457 60.8504 71.57 60.7964C71.83 60.6824 72.2157 60.508 72.7007 60.2839C72.8871 60.1975 73.1293 60.0894 73.2378 60.0431C73.3471 59.9969 73.5886 59.8894 73.7757 59.8044C73.9621 59.7194 74.2293 59.5991 74.3693 59.5371C74.5085 59.4749 74.6857 59.3951 74.7628 59.359C74.8393 59.3233 75.0185 59.1791 75.1607 59.0387C75.4057 58.7976 75.4521 58.7259 75.6064 58.3419C75.6757 58.1675 75.6828 43.3444 75.6193 27.9255L75.585 19.4532L75.4507 19.1982C75.1957 18.714 75.3143 18.7766 62.468 12.3397L50.0053 6.09529L49.9843 5.68997C49.9653 5.32307 49.7899 4.5512 49.6603 4.26488C49.3356 3.54707 49.1986 3.29647 48.9326 2.93297C47.6809 1.22395 45.6241 0.344284 43.4941 0.606451ZM44.9184 3.97925C45.9668 4.25298 46.6851 5.19726 46.6875 6.30509C46.6888 6.84745 46.6637 6.9719 46.4588 7.44185C45.9825 8.53235 44.4563 9.09642 43.3391 8.59457C43.2074 8.53535 43.0853 8.48707 43.068 8.48707C42.9455 8.48707 42.3148 7.822 42.1275 7.49521C41.071 5.6512 42.8308 3.43418 44.9184 3.97925ZM71.8421 77.0007C71.7428 77.0614 71.635 77.1621 71.6021 77.2236C71.5135 77.3886 71.5171 99.0479 71.6057 99.2414C71.7407 99.5379 71.61 99.5314 77.4793 99.5314C82.9735 99.5314 83.2157 99.5236 83.8121 99.3343C83.89 99.31 84.0686 99.255 84.2085 99.2136C85.135 98.9364 86.2957 98.1086 87.0514 97.1857C88.41 95.5271 88.8921 92.965 88.2307 90.9171C88.1028 90.5207 87.8943 90.0257 87.8371 89.9829C87.8157 89.9671 87.7371 89.8336 87.6635 89.6871C87.59 89.54 87.4885 89.3743 87.4378 89.3186C87.3878 89.2629 87.2707 89.115 87.1778 88.99C86.9636 88.7014 86.3935 88.1307 86.1014 87.9121C85.9778 87.82 85.8635 87.7286 85.8478 87.7093C85.8328 87.69 85.7486 87.6379 85.6621 87.5928L85.5035 87.5107L85.69 87.3129C85.9721 87.0136 86.1871 86.7564 86.1871 86.72C86.1871 86.7014 86.2193 86.6514 86.2578 86.6079C86.4386 86.4057 86.4878 86.3271 86.6928 85.9157C87.5843 84.1229 87.6 82.055 86.7364 80.2414C86.3971 79.5271 85.7121 78.6907 85.08 78.2186C84.9585 78.1279 84.8457 78.04 84.83 78.0236C84.6793 77.8679 83.6357 77.3357 83.2757 77.2314C82.11 76.8921 82.0793 76.8907 76.8057 76.8907C72.1685 76.8914 72.0171 76.8943 71.8421 77.0007ZM0.405855 77.2157C0.296605 77.2586 0.211784 77.3457 0.131034 77.4971C0.0818375 77.5893 0.0655518 80.3693 0.0655518 88.5136V99.4071L0.209749 99.5964L0.353944 99.7864H1.53534C2.70282 99.7864 2.71877 99.785 2.87552 99.65L3.0343 99.5128L3.06246 96.22L3.09063 92.9271L3.51473 92.4664C3.74816 92.2121 4.07896 91.86 4.24996 91.6836C4.42096 91.5064 4.80266 91.1007 5.09818 90.7814C5.3937 90.4621 5.88193 89.9421 6.18321 89.6257L6.73116 89.0507L6.85195 89.205C6.91845 89.29 7.00292 89.3907 7.03991 89.4293C7.07689 89.4686 7.23398 89.6536 7.38905 89.8407C7.54405 90.0271 7.68455 90.1929 7.7012 90.2086C7.71777 90.2243 7.83213 90.3643 7.95563 90.5207C8.07877 90.6764 8.21855 90.8414 8.26677 90.8886C8.31462 90.935 8.45441 91.1014 8.57755 91.2571C8.7007 91.4129 8.8412 91.5786 8.8897 91.6257C8.9382 91.6721 9.07834 91.8407 9.20084 91.9993C9.44441 92.3157 9.94012 92.915 10.1803 93.1843C10.2635 93.2771 10.4196 93.4686 10.5268 93.6093C10.634 93.7493 10.7605 93.9021 10.808 93.9493C10.8558 93.9957 10.9956 94.1614 11.1188 94.3171C11.242 94.4736 11.3818 94.6393 11.4296 94.6857C11.4778 94.7321 11.6176 94.8986 11.7407 95.0543C11.8642 95.21 11.9789 95.35 11.9958 95.3657C12.0128 95.3814 12.1397 95.5343 12.2778 95.7057C12.4159 95.8771 12.5723 96.0607 12.6249 96.1136C12.6775 96.1664 12.8437 96.3707 12.9941 96.5671C13.144 96.7636 13.3076 96.9621 13.3571 97.0093C13.4069 97.0557 13.5471 97.2221 13.6688 97.3779C13.7907 97.5336 13.9308 97.6993 13.98 97.7464C14.0292 97.7929 14.1683 97.9586 14.2894 98.1143C14.4106 98.27 14.5236 98.4107 14.5408 98.4264C14.5853 98.4657 15.118 99.1071 15.2201 99.2443C15.2669 99.3064 15.3976 99.4536 15.5105 99.5721L15.7158 99.7864H17.5337C19.1073 99.7864 19.3563 99.775 19.3848 99.7007C19.4198 99.6086 19.3159 99.3107 19.2108 99.2007C19.1761 99.1643 19.0486 99.0071 18.9271 98.8514C18.8056 98.695 18.6656 98.5293 18.616 98.4829C18.5665 98.4364 18.3992 98.2429 18.2441 98.0529C17.7179 97.4079 17.36 96.9814 17.1791 96.7829C17.0801 96.6736 16.8986 96.4564 16.7761 96.3007C16.6532 96.145 16.5131 95.9793 16.4643 95.9321C16.4154 95.8857 16.2746 95.72 16.1514 95.5643C16.0283 95.4086 15.8891 95.2429 15.8423 95.1957C15.7955 95.1493 15.6306 94.9579 15.4759 94.7707C15.3212 94.5836 15.1811 94.4179 15.1648 94.4021C15.1488 94.3864 15.0083 94.2207 14.8533 94.0343C14.6983 93.8471 14.5456 93.665 14.5141 93.63C14.4825 93.5943 14.3756 93.4671 14.2762 93.3464C14.1768 93.2257 14.037 93.0593 13.9651 92.9764C13.8935 92.8936 13.7547 92.7279 13.657 92.6086C13.5593 92.4886 13.4001 92.3079 13.3035 92.2071C13.2071 92.1057 13.1281 92.0114 13.1281 91.9964C13.1281 91.9693 12.8763 91.6743 12.6331 91.4157C12.5631 91.3414 12.5058 91.265 12.5058 91.2471C12.5058 91.2286 12.4603 91.1721 12.4051 91.1221C12.3494 91.0714 12.2031 90.9029 12.08 90.7471C11.9568 90.5914 11.8174 90.425 11.7699 90.3786C11.7227 90.3314 11.5718 90.1536 11.4343 89.9821C11.2969 89.8107 11.1575 89.645 11.1239 89.6136C11.0906 89.5821 10.9502 89.4164 10.8118 89.245C10.6733 89.0736 10.4698 88.8314 10.3595 88.7064C10.2492 88.5814 10.0701 88.3693 9.96112 88.2343C9.85255 88.1 9.69991 87.9207 9.62184 87.8371C9.5442 87.7529 9.40441 87.585 9.31105 87.4629C9.21777 87.3421 9.0712 87.1736 8.9857 87.09C8.9002 87.0064 8.83034 86.9179 8.83034 86.8943C8.83034 86.8471 9.69348 85.9079 10.4823 85.0957C10.7398 84.83 11.2946 84.2479 11.7143 83.8014C12.1339 83.355 12.6493 82.8171 12.8593 82.6057C13.0693 82.3943 13.2411 82.2121 13.2411 82.2007C13.2411 82.1893 13.4005 82.0164 13.5949 81.8164C13.8948 81.5086 14.8658 80.4736 15.4746 79.8136C16.4802 78.7236 16.831 78.3457 17.1571 78.0014C17.5364 77.6014 17.6371 77.4221 17.5747 77.2593C17.5469 77.1857 17.2958 77.1743 15.7846 77.1743C13.7801 77.1743 13.8776 77.1536 13.4286 77.6643C13.2685 77.8464 12.879 78.2636 12.5631 78.5907C12.2476 78.9179 11.6538 79.5407 11.2436 79.975C10.8338 80.4093 10.3459 80.9214 10.1593 81.1136C9.9727 81.3057 9.45084 81.8543 8.99998 82.3329C8.54905 82.8114 8.07812 83.31 7.95391 83.44C7.82941 83.5707 7.30455 84.12 6.78748 84.6614C6.2704 85.2036 5.76487 85.7357 5.6641 85.845C5.56334 85.9536 5.06764 86.4764 4.5621 87.0064C4.05691 87.5364 3.51371 88.11 3.35459 88.2814L3.06585 88.5936L3.06416 83.1421C3.06246 77.3336 3.06925 77.4721 2.76695 77.2879C2.58305 77.175 0.657944 77.1164 0.405855 77.2157ZM20.5499 77.21C20.4122 77.2686 20.4861 77.8186 20.6521 77.9671C20.6693 77.9829 20.9842 78.5057 21.352 79.1293C21.7194 79.7529 22.0866 80.3643 22.1673 80.4893C22.2484 80.6136 22.3485 80.78 22.3898 80.8578C22.4526 80.9757 22.7441 81.4707 23.0403 81.9629C23.0779 82.025 23.1234 82.0893 23.1414 82.1043C23.1593 82.12 23.2103 82.2157 23.2541 82.3171C23.2981 82.4186 23.3504 82.5014 23.3704 82.5014C23.3901 82.5014 23.421 82.5457 23.4389 82.6007C23.4566 82.655 23.5296 82.7921 23.6011 82.9043C23.6723 83.0171 23.8427 83.2971 23.9798 83.5279C24.1168 83.7579 24.4032 84.2357 24.6159 84.5886C24.8286 84.9421 25.0031 85.2421 25.0031 85.2557C25.0031 85.2836 25.2958 85.7429 25.3416 85.7878C25.3576 85.8036 25.4088 85.8929 25.4553 85.9864C25.5018 86.08 25.5527 86.1693 25.5683 86.185C25.5839 86.2 25.6307 86.2743 25.6728 86.3486C25.7146 86.4229 25.7976 86.5714 25.8577 86.6786C25.9178 86.7857 26.0145 86.9414 26.0721 87.025C26.1301 87.1086 26.4779 87.6864 26.8451 88.31C27.2125 88.9336 27.5291 89.4564 27.5487 89.4714C27.5687 89.4871 27.621 89.5829 27.6648 89.6843C27.7088 89.7857 27.7641 89.8686 27.7876 89.8686C27.811 89.8686 27.831 89.9007 27.8317 89.9393C27.8323 89.9786 27.8826 90.0743 27.9433 90.1521C28.0508 90.29 28.0539 90.415 28.0553 94.7764C28.0566 99.4864 28.059 99.53 28.3131 99.6979C28.5591 99.8586 30.7136 99.8264 30.8706 99.6586C31.0959 99.4179 31.1071 99.1821 31.1088 94.6279L31.1102 90.235L31.2513 90.0264C31.3291 89.9114 31.3928 89.7929 31.3928 89.7629C31.3928 89.7329 31.4118 89.6993 31.4352 89.6893C31.4586 89.6786 31.5641 89.53 31.6697 89.3586C32.4158 88.1471 32.5803 87.87 32.5803 87.8243C32.5803 87.7957 32.5996 87.7714 32.6234 87.7714C32.6471 87.7714 32.6916 87.7207 32.7225 87.6579C32.753 87.5957 32.9813 87.2071 33.2293 86.7943C33.4777 86.3807 33.7088 85.9921 33.7427 85.93C33.777 85.8671 33.9955 85.4979 34.2282 85.1079C34.461 84.7186 34.6686 84.3614 34.6893 84.315C34.7097 84.2679 34.7914 84.1279 34.8701 84.0029C34.9492 83.8779 35.0289 83.7314 35.0476 83.6771C35.0663 83.6229 35.1039 83.5779 35.1314 83.5779C35.1589 83.5779 35.1816 83.5543 35.1816 83.5257C35.1816 83.4979 35.3068 83.2614 35.4598 83.0021C35.7825 82.4536 36.2253 81.6979 36.3671 81.4529C36.4211 81.3593 36.6511 80.9764 36.8784 80.6029C37.1057 80.2286 37.3195 79.8657 37.3534 79.7957C37.3873 79.7257 37.4341 79.6686 37.4576 79.6679C37.481 79.6679 37.5 79.645 37.5 79.6179C37.5 79.5671 37.8379 78.9857 37.9411 78.8586C37.9716 78.82 38.0472 78.7 38.109 78.5907C38.1707 78.4814 38.3261 78.2207 38.4543 78.0107C38.9456 77.2071 38.8917 77.1743 37.0965 77.1743C35.3136 77.1743 35.3784 77.1514 34.9288 77.9193C34.8115 78.12 34.4841 78.6921 34.3503 78.9307C34.3066 79.0086 34.2089 79.1743 34.1332 79.2993C34.0576 79.4236 33.8873 79.7171 33.7549 79.9507C33.6223 80.185 33.4821 80.4271 33.4438 80.4893C33.4055 80.5514 33.3576 80.6471 33.3379 80.7021C33.3183 80.7564 33.2799 80.8007 33.2524 80.8007C33.225 80.8007 33.2022 80.8243 33.2022 80.8529C33.2022 80.8814 33.0757 81.1171 32.921 81.3771C32.7663 81.6371 32.5946 81.9386 32.5393 82.0479C32.484 82.1571 32.4198 82.2543 32.3964 82.265C32.3733 82.275 32.354 82.3079 32.354 82.3364C32.354 82.365 32.1681 82.7007 31.9404 83.0829C31.7131 83.4643 31.5098 83.8143 31.4892 83.8614C31.4688 83.9079 31.3871 84.0486 31.3083 84.1729C31.2293 84.2979 31.1496 84.4443 31.1309 84.4986C31.1122 84.5536 31.0746 84.5979 31.0471 84.5979C31.0196 84.5979 30.9968 84.6214 30.9968 84.65C30.9968 84.6786 30.8703 84.9143 30.7156 85.1743C30.5609 85.4336 30.3892 85.7357 30.3339 85.845C30.2786 85.9536 30.2145 86.0514 30.1911 86.0621C30.168 86.0721 30.1486 86.1036 30.1486 86.1314C30.1486 86.1586 30.0191 86.4014 29.8606 86.67L29.5726 87.1586L29.4365 86.9586C29.3618 86.8479 29.3004 86.7407 29.3004 86.7207C29.3004 86.7007 29.2533 86.6164 29.1956 86.5336C29.1379 86.4507 29.027 86.2686 28.9489 86.1286C28.7301 85.7329 28.6032 85.5129 28.3192 85.0329C28.1747 84.7886 28.0566 84.5779 28.0566 84.5643C28.0566 84.5507 27.9548 84.3714 27.8303 84.1664C27.7058 83.9607 27.604 83.7786 27.604 83.7607C27.604 83.7436 27.5694 83.6886 27.527 83.6393C27.4846 83.59 27.3407 83.3457 27.2077 83.0964C27.0744 82.8471 26.9217 82.5793 26.8681 82.5014C26.8148 82.4229 26.6741 82.1814 26.5553 81.9629C26.4366 81.7443 26.2679 81.4514 26.1811 81.3107C26.0938 81.1707 25.9775 80.9671 25.9228 80.8578C25.8679 80.7486 25.8038 80.6507 25.7803 80.6407C25.7573 80.63 25.7379 80.5986 25.7379 80.5714C25.7379 80.5436 25.6202 80.3221 25.4763 80.08C25.1343 79.5043 25.0213 79.3071 24.8171 78.9307C24.7238 78.7593 24.6183 78.5807 24.5827 78.5343C24.5467 78.4871 24.4802 78.3729 24.4351 78.2793C24.39 78.1857 24.3394 78.0964 24.3231 78.0807C24.3068 78.065 24.2305 77.93 24.1535 77.7814C24.0765 77.6321 23.9584 77.4407 23.8916 77.3564L23.7698 77.2021L22.1951 77.1914C21.3289 77.185 20.5886 77.1936 20.5499 77.21ZM82.1336 80.0379C83.1593 80.3736 83.7314 80.9214 84.1336 81.9514C84.3193 82.4279 84.3657 83.5857 84.215 83.975C84.0393 84.4257 83.735 85.0514 83.69 85.0514C83.6643 85.0514 83.6428 85.08 83.6428 85.115C83.6428 85.2007 83.1678 85.6514 82.8828 85.8364C82.7564 85.9186 82.6407 86.0007 82.625 86.0186C82.5664 86.0864 82.0735 86.2579 81.72 86.3336C81.4307 86.395 80.6264 86.4114 77.9171 86.4114H74.4821V83.1529V79.8943H78.0885H81.695L82.1336 80.0379ZM55.6205 86.5729C55.591 86.5986 55.1852 86.78 54.7187 86.9743C53.897 87.3179 53.7192 87.3943 53.1502 87.6507C53.0026 87.7179 52.8689 87.7714 52.8526 87.7714C52.8363 87.7714 52.7153 87.82 52.5836 87.8786C51.9671 88.1529 51.7886 88.2293 51.1281 88.5064C50.7392 88.6693 50.2618 88.8764 50.0674 88.9679C49.8731 89.0579 49.701 89.1314 49.6851 89.1314C49.6525 89.1314 49.1711 89.3414 49.0224 89.42C48.9682 89.4486 48.8891 89.4714 48.8463 89.4714C48.8039 89.4714 48.6571 89.5707 48.5206 89.6914C47.1153 90.9321 48.7147 92.98 50.3361 92.015C50.383 91.9871 50.4593 91.95 50.5058 91.9314C50.6951 91.8578 50.8295 91.8007 51.085 91.6879C51.2322 91.6221 51.3662 91.5686 51.3825 91.5686C51.3985 91.5686 51.5325 91.5143 51.6797 91.4479C52.2158 91.2064 52.4095 91.1229 52.9093 90.9179C53.1892 90.8036 53.558 90.645 53.729 90.5664C53.9003 90.4871 54.091 90.4029 54.1531 90.3786C54.2155 90.3536 54.3618 90.2929 54.4785 90.2429C54.5948 90.1929 54.773 90.1171 54.8741 90.0736C54.9752 90.0307 55.1978 89.9336 55.3691 89.8579C55.5401 89.7821 55.9578 89.6064 56.2974 89.4686C57.6356 88.9236 58.0322 87.7771 57.1786 86.9214C56.8321 86.5743 55.8631 86.3571 55.6205 86.5729ZM82.58 89.4171C83.1393 89.5264 83.6285 89.7179 83.8935 89.9329C83.9271 89.9593 84.0814 90.0786 84.2364 90.1986C84.3921 90.3179 84.5957 90.5286 84.6886 90.6664C84.7821 90.8043 84.8736 90.93 84.8921 90.9457C85.2878 91.275 85.61 93.0157 85.4021 93.7C85.375 93.79 85.3186 93.9786 85.2764 94.1193C85.1593 94.5107 84.8671 95.0421 84.6343 95.285C84.6021 95.3186 84.4964 95.4371 84.3985 95.5486C84.13 95.8564 83.65 96.1714 83.1621 96.3614C82.6057 96.5771 82.6578 96.575 78.5114 96.5964L74.4821 96.6171V92.9879V89.3586H78.3814C80.8314 89.3586 82.3914 89.38 82.58 89.4171Z" fill="#9B9B9B"/>
<path fill-rule="evenodd" clip-rule="evenodd" d="M44.1021 33.9729C44.1723 33.9862 44.2867 33.9862 44.3565 33.9729C44.4268 33.9594 44.3694 33.9481 44.2293 33.9481C44.0895 33.9481 44.0322 33.9594 44.1021 33.9729Z" fill="#9B9B9B"/>
<path fill-rule="evenodd" clip-rule="evenodd" d="M50.0098 31.4951C50.0098 31.6042 50.0213 31.6488 50.0355 31.5944C50.0498 31.54 50.0498 31.4506 50.0355 31.3961C50.0213 31.3414 50.0098 31.3863 50.0098 31.4951Z" fill="#9B9B9B"/>
</g>
<defs>
<clipPath id="clip0_16_7162">
<rect width="88.5714" height="100" fill="white"/>
</clipPath>
</defs>
</svg>
