<svg width="120" height="80" viewBox="0 0 120 80" fill="none" xmlns="http://www.w3.org/2000/svg">
<path d="M71.324 33.3333H86.1333C87.5325 33.3333 88.6667 34.4675 88.6667 35.8666V49.356C88.6667 54.4981 84.4982 58.6666 79.356 58.6666H79.312C74.1699 58.6674 70.0007 54.4994 70 49.3573V34.6573C70 33.9261 70.5928 33.3333 71.324 33.3333Z" fill="#5059C9"/>
<path d="M81.3334 30.6666C84.6471 30.6666 87.3334 27.9803 87.3334 24.6666C87.3334 21.3529 84.6471 18.6666 81.3334 18.6666C78.0197 18.6666 75.3334 21.3529 75.3334 24.6666C75.3334 27.9803 78.0197 30.6666 81.3334 30.6666Z" fill="#5059C9"/>
<path d="M62.6667 30.6667C67.4531 30.6667 71.3333 26.7865 71.3333 22C71.3333 17.2135 67.4531 13.3333 62.6667 13.3333C57.8802 13.3333 54 17.2135 54 22C54 26.7865 57.8802 30.6667 62.6667 30.6667Z" fill="#7B83EB"/>
<path d="M74.2227 33.3333H49.7774C48.3949 33.3675 47.3013 34.5148 47.3334 35.8973V51.2827C47.1403 59.579 53.704 66.4636 62 66.6667C70.2961 66.4636 76.8597 59.579 76.6667 51.2827V35.8973C76.6987 34.5148 75.6052 33.3675 74.2227 33.3333Z" fill="#7B83EB"/>
<path opacity="0.1" d="M63.3333 33.3333V54.8933C63.3267 55.882 62.7276 56.7702 61.8133 57.1466C61.5223 57.2698 61.2094 57.3332 60.8933 57.3333H48.5067C48.3334 56.8933 48.1734 56.4533 48.04 56C47.5733 54.47 47.3351 52.8795 47.3333 51.28V35.8933C47.3013 34.513 48.3931 33.3675 49.7733 33.3333H63.3333Z" fill="black"/>
<path opacity="0.2" d="M62 33.3333V56.2266C62 56.5427 61.9365 56.8555 61.8133 57.1466C61.4369 58.0609 60.5487 58.66 59.56 58.6666H49.1334C48.9067 58.2266 48.6934 57.7866 48.5067 57.3333C48.32 56.88 48.1734 56.4533 48.04 56C47.5733 54.47 47.3351 52.8795 47.3333 51.28V35.8933C47.3013 34.513 48.3931 33.3675 49.7733 33.3333H62Z" fill="black"/>
<path opacity="0.2" d="M62 33.3333V53.56C61.9898 54.9033 60.9033 55.9898 59.56 56H48.04C47.5733 54.47 47.3351 52.8795 47.3333 51.28V35.8933C47.3013 34.513 48.3931 33.3675 49.7733 33.3333H62Z" fill="black"/>
<path opacity="0.2" d="M60.6666 33.3333V53.56C60.6565 54.9033 59.57 55.9898 58.2266 56H48.04C47.5733 54.47 47.3351 52.8795 47.3333 51.28V35.8933C47.3013 34.513 48.3931 33.3675 49.7733 33.3333H60.6666Z" fill="black"/>
<path opacity="0.1" d="M63.3333 26.44V30.64C63.1067 30.6534 62.8933 30.6667 62.6667 30.6667C62.44 30.6667 62.2267 30.6534 62 30.64C61.5499 30.6102 61.1036 30.5388 60.6667 30.4267C57.9667 29.7873 55.736 27.8937 54.6667 25.3334C54.4827 24.9034 54.3398 24.457 54.24 24.0001H60.8933C62.2388 24.0052 63.3282 25.0946 63.3333 26.44Z" fill="black"/>
<path opacity="0.2" d="M62.0001 27.7734V30.64C61.55 30.6102 61.1037 30.5388 60.6667 30.4267C57.9667 29.7873 55.7361 27.8937 54.6667 25.3334H59.5601C60.9055 25.3385 61.9949 26.4279 62.0001 27.7734Z" fill="black"/>
<path opacity="0.2" d="M62.0001 27.7734V30.64C61.55 30.6102 61.1037 30.5388 60.6667 30.4267C57.9667 29.7873 55.7361 27.8937 54.6667 25.3334H59.5601C60.9055 25.3385 61.9949 26.4279 62.0001 27.7734Z" fill="black"/>
<path opacity="0.2" d="M60.6666 27.7733V30.4266C57.9666 29.7872 55.736 27.8937 54.6666 25.3333H58.2266C59.5721 25.3384 60.6615 26.4279 60.6666 27.7733Z" fill="black"/>
<path d="M33.7774 25.3333H58.2227C59.5725 25.3333 60.6667 26.4275 60.6667 27.7773V52.2226C60.6667 53.5724 59.5725 54.6666 58.2227 54.6666H33.7774C32.4276 54.6666 31.3334 53.5724 31.3334 52.2226V27.7773C31.3334 26.4275 32.4276 25.3333 33.7774 25.3333Z" fill="url(#paint0_linear_31_175)"/>
<path d="M52.432 34.6374H47.5453V47.944H44.432V34.6374H39.568V32.056H52.432V34.6374Z" fill="white"/>
<defs>
<linearGradient id="paint0_linear_31_175" x1="36.4292" y1="23.4236" x2="55.5709" y2="56.5763" gradientUnits="userSpaceOnUse">
<stop stop-color="#5A62C3"/>
<stop offset="0.5" stop-color="#4D55BD"/>
<stop offset="1" stop-color="#3940AB"/>
</linearGradient>
</defs>
</svg>
