<svg width="73" height="100" viewBox="0 0 73 100" fill="none" xmlns="http://www.w3.org/2000/svg">
<g clip-path="url(#clip0_16_7210)">
<path fill-rule="evenodd" clip-rule="evenodd" d="M14.3835 33.2709C11.9558 38.4112 9.95502 42.6786 9.93721 42.7539C9.89612 42.9279 13.803 49.5062 13.8906 49.4109C13.9402 49.3569 25.3599 24.6531 25.615 24.0482C25.6572 23.9482 24.9427 23.9216 22.2331 23.9229L18.7975 23.9246L14.3835 33.2709ZM25.6953 33.3271C23.2501 38.4999 21.2515 42.7808 21.2536 42.8399C21.2687 43.2684 25.183 49.4947 25.2983 49.2734C25.3665 49.1424 27.9893 43.4646 31.1271 36.6558C34.2649 29.8471 36.8742 24.1964 36.9254 24.0988C37.0134 23.9314 36.823 23.9213 33.5797 23.9213H30.1405L25.6953 33.3271ZM41.4424 23.9975C40.6994 25.2254 32.569 42.8506 32.663 43.0293C32.935 43.5468 36.3399 49.249 36.4427 49.3586C36.5312 49.4534 47.6668 25.5898 48.2295 24.0988C48.3005 23.9112 41.5556 23.8101 41.4424 23.9975ZM52.8021 24.2512C52.7232 24.4325 52.1695 25.6082 51.5712 26.864C50.9728 28.1197 50.375 29.3871 50.2427 29.6808L50.0016 30.2145L54.926 30.1882L59.8503 30.1619L61.2671 27.0912C62.0462 25.4024 62.6838 23.9983 62.6838 23.9709C62.6838 23.9435 60.4928 23.9213 57.8145 23.9213H52.9454L52.8021 24.2512ZM48.8884 33.3835C48.6747 33.8438 48.0156 35.2432 47.4235 36.4928C46.8314 37.7427 46.3471 38.7813 46.3471 38.8013C46.3471 38.8213 48.5553 38.8375 51.2542 38.8375H56.1613L57.5709 35.7802C58.346 34.0986 58.9953 32.6832 59.0139 32.6345C59.0328 32.5854 56.8901 32.5462 54.1621 32.5462H49.2766L48.8884 33.3835Z" fill="white"/>
<path fill-rule="evenodd" clip-rule="evenodd" d="M2.91717 0.521105C1.80101 0.7685 0.807857 1.57809 0.316897 2.64083L0.0253906 3.27206V36.6562C0.0253906 68.2175 0.0349781 70.0678 0.203197 70.5479C0.57306 71.6021 1.57964 72.5651 2.64073 72.8801C3.42539 73.1137 69.1774 73.1137 69.9616 72.8801C71.0233 72.5651 72.0294 71.6021 72.3993 70.5479C72.5678 70.0678 72.5774 68.2175 72.5774 36.6562V3.27206L72.2856 2.64083C71.7739 1.53316 70.7212 0.70987 69.537 0.490968C68.6274 0.322748 3.67854 0.352063 2.91717 0.521105ZM25.6194 24.0992C25.5484 24.346 13.975 49.4255 13.8922 49.5112C13.8555 49.5493 12.9237 48.0633 11.8215 46.2085L9.81744 42.8362L14.0383 33.9118C16.3596 29.003 18.3662 24.7474 18.4972 24.4542L18.7355 23.9216H22.2029C25.4572 23.9216 25.6673 23.9326 25.6194 24.0992ZM36.9837 24.0485C36.8928 24.2822 25.5243 48.9299 25.3495 49.2723L25.1772 49.6107L23.1796 46.2564C22.081 44.4115 21.1821 42.8718 21.1821 42.8345C21.1821 42.7666 29.2706 25.6082 29.8224 24.5049L30.1144 23.9216H33.5739C36.3002 23.9216 37.0229 23.9485 36.9837 24.0485ZM48.2446 24.2068C46.8325 27.511 36.5306 49.5573 36.4432 49.4619C36.244 49.2447 32.4952 42.86 32.5202 42.78C32.5333 42.737 34.5405 38.4764 36.9805 33.3118L41.4169 23.9216H44.8917H48.3665L48.2446 24.2068ZM62.5821 24.3529C62.4766 24.5901 61.8205 26.017 61.1243 27.5238L59.8585 30.2636L54.9292 30.2899C51.1607 30.3101 49.9999 30.2877 49.9999 30.1951C49.9999 30.1282 50.6506 28.6907 51.4459 27.0005L52.892 23.9271L57.8328 23.9244L62.7739 23.9216L62.5821 24.3529ZM59.0525 32.5008C59.0832 32.5312 58.444 33.9923 57.6325 35.7477L56.1569 38.9394L51.3281 38.9378C48.6722 38.937 46.4492 38.9027 46.3881 38.8616C46.3144 38.8123 46.5544 38.2036 47.0983 37.0608C47.55 36.1112 48.227 34.6841 48.6024 33.8899L49.2848 32.4452H54.141C56.8117 32.4452 59.0221 32.4701 59.0525 32.5008Z" fill="#9B9B9B"/>
<path fill-rule="evenodd" clip-rule="evenodd" d="M0.177979 90.3863V99.6199H2.86619H5.55442L5.58044 93.913L5.60674 88.2055L6.82428 93.9123L8.04211 99.6192L11.3544 99.6199C13.9128 99.6199 14.6769 99.5911 14.712 99.4931C14.7369 99.4233 15.301 96.8192 15.9659 93.7055L17.1744 88.0445L17.2007 93.8322L17.2268 99.6199H19.915H22.6032V90.3863V81.1521H17.9465H13.2898L13.1372 81.837C13.0531 82.2137 12.6265 84.1993 12.189 86.2493C11.7514 88.2986 11.3659 89.8973 11.3322 89.8007C11.2983 89.7041 10.8643 87.7185 10.3679 85.389L9.46485 81.1521H4.82127H0.177979V90.3863ZM23.8207 89.0938V97.0356L25.1161 98.3274L26.4111 99.6199H30.3687H34.3259L35.669 98.274L37.0122 96.9281V89.0404V81.1521H34.3232H31.6342V88.3569V95.561H30.3657H29.0975V88.3569V81.1521H26.4591H23.8207V89.0938ZM39.5221 82.4473L38.2298 83.7425V91.6815V99.6199H40.9188H43.6079V96.0178V92.4158H47.5144H51.421V90.3863V88.3569H47.5144H43.6079V86.7329V85.1096H47.5144H51.421V83.1308V81.1521H46.1177H40.8144L39.5221 82.4473ZM52.6388 90.3863V99.6199H55.3276H58.0166V90.3863V81.1521H55.3276H52.6388V90.3863ZM59.2344 83.1308V85.1096H61.2131H63.1917V92.3651V99.6199H65.83H68.4681V92.3651V85.1096H70.4473H72.4254V83.1308V81.1521H65.83H59.2344V83.1308Z" fill="#9B9B9B"/>
<path fill-rule="evenodd" clip-rule="evenodd" d="M54.9215 30.2133L49.9495 30.267L54.8903 30.2908C58.1007 30.3064 59.8528 30.279 59.8936 30.2133C59.9281 30.1574 59.9423 30.1226 59.9251 30.1357C59.9078 30.1489 57.656 30.1837 54.9215 30.2133ZM50.9643 32.5188C55.3755 32.5894 59.1089 32.5908 59.0662 32.5218C59.0404 32.4799 56.8185 32.4557 54.1292 32.4683C51.4396 32.481 50.0155 32.5037 50.9643 32.5188ZM48.8585 38.9144C50.2119 38.9303 52.4265 38.9303 53.7799 38.9144C55.1333 38.8982 54.0259 38.8853 51.3193 38.8853C48.6125 38.8853 47.5054 38.8982 48.8585 38.9144Z" fill="white"/>
</g>
<defs>
<clipPath id="clip0_16_7210">
<rect width="72.6027" height="100" fill="white"/>
</clipPath>
</defs>
</svg>
