<svg width="97" height="100" viewBox="0 0 97 100" fill="none" xmlns="http://www.w3.org/2000/svg">
<g clip-path="url(#clip0_16_7133)">
<path fill-rule="evenodd" clip-rule="evenodd" d="M63.2477 0.296666C63.2141 0.383801 63.128 0.44327 63.0563 0.428533C62.9198 0.400349 62.8867 2.19192 63.0036 3.29753C63.0339 3.58583 63.0111 3.8718 62.9516 3.94393C62.88 4.03133 62.8798 4.07321 62.9509 4.07321C63.0087 4.07321 63.1104 4.38401 63.1765 4.76384C63.2428 5.14392 63.3454 5.54521 63.4043 5.65587C63.4682 5.77456 63.5305 7.02445 63.5574 8.71417C63.5822 10.2857 63.6474 12.434 63.7019 13.4882C63.7567 14.5424 63.8023 17.2418 63.8033 19.4868C63.8043 21.7319 63.8499 23.9877 63.9044 24.4996C63.9592 25.0116 64.0071 27.2088 64.0107 29.3825L64.0176 33.3349L64.375 33.4018C64.5715 33.4386 64.7324 33.5102 64.7324 33.5609C64.7324 33.6113 64.8492 33.6527 64.9921 33.6527C65.1352 33.6527 65.333 33.6977 65.4317 33.7527C65.5305 33.8078 66.1653 34.0891 66.8422 34.3782C67.5189 34.667 68.1937 34.9995 68.3419 35.1166C68.4898 35.2338 69.0295 35.5583 69.5418 35.8378C70.0535 36.1171 70.5624 36.403 70.6726 36.4731C72.4432 37.5975 72.9548 37.9378 73.524 38.3701C74.4658 39.0851 74.8103 39.3844 75.6795 40.2442C76.0973 40.6576 76.4788 40.9958 76.5267 40.9958C77.0891 40.9958 79.7987 45.2595 80.9788 48.0013C81.1254 48.3423 81.3343 48.5024 81.4302 48.347C81.5692 48.1223 81.4932 16.3536 81.3535 16.1349C81.2761 16.0141 81.1829 15.8339 81.1466 15.7344C81.1096 15.6348 81.0315 15.5534 80.9733 15.5534C80.9144 15.5534 80.8665 15.4603 80.8665 15.3465C80.8665 15.2327 80.8295 15.1397 80.7836 15.1397C80.7384 15.1397 80.6425 14.9768 80.5706 14.7777C80.4987 14.5786 80.3726 14.4157 80.2911 14.4157C80.2014 14.4157 80.1425 14.3128 80.1425 14.1571C80.1425 14.0149 80.0959 13.8986 80.0391 13.8986C79.9822 13.8986 79.9356 13.8055 79.9356 13.6917C79.9356 13.5779 79.8891 13.4849 79.8322 13.4849C79.7754 13.4849 79.7288 13.4262 79.7288 13.3545C79.7288 13.2829 79.624 13.1084 79.4959 12.9667C79.3685 12.825 79.1939 12.5727 79.1082 12.4059C79.0233 12.2394 78.7555 11.9017 78.5137 11.6555C78.2719 11.4097 78.074 11.1622 78.074 11.1061C78.074 10.9634 74.5973 7.48623 74.4548 7.48623C74.3911 7.48623 74.3672 7.43972 74.4028 7.3828C74.4377 7.32595 74.3939 7.27938 74.3055 7.27938C74.2165 7.27938 74.1439 7.23287 74.1439 7.17595C74.1439 7.1191 74.074 7.07253 73.9891 7.07253C73.9035 7.07253 73.8336 7.03424 73.8336 6.98746C73.8336 6.89047 73.0363 6.34856 72.8939 6.34856C72.8418 6.34856 72.7993 6.29789 72.7993 6.23583C72.7993 6.08897 72.4213 5.77067 71.998 5.56072C71.813 5.46919 71.6617 5.32957 71.6617 5.25071C71.6617 5.17184 71.5918 5.10747 71.5069 5.10747C71.4213 5.10747 71.3514 5.06093 71.3514 5.00404C71.3514 4.94716 71.2596 4.90062 71.1473 4.90062C71.0343 4.90062 70.8665 4.78426 70.7733 4.64206C70.6802 4.49984 70.5274 4.38194 70.435 4.38013C70.248 4.37651 69.8802 4.13114 69.9528 4.05874C69.9774 4.03366 69.9103 4.00651 69.8028 3.9985C69.5843 3.98195 69.163 3.60703 69.2569 3.51291C69.2904 3.47982 69.2254 3.45267 69.113 3.45267C69.0007 3.45267 68.8082 3.35958 68.6863 3.24582C68.5644 3.13205 68.3693 3.03897 68.2532 3.03897C68.1371 3.03897 68.0535 2.98648 68.0678 2.9221C68.082 2.85797 67.9894 2.79593 67.8622 2.78454C67.735 2.77291 67.5372 2.65552 67.4226 2.5234C67.2869 2.36697 67.2135 2.33387 67.2112 2.42851C67.2093 2.51564 67.1062 2.45772 66.9526 2.28345C66.8122 2.12366 66.6974 2.01998 66.6974 2.05282C66.6974 2.13866 65.8966 1.71798 65.8183 1.59077C65.7818 1.53207 65.7089 1.51113 65.6559 1.54371C65.6032 1.57654 65.5598 1.55405 65.5598 1.4938C65.5598 1.43356 65.4667 1.38417 65.3529 1.38417C65.2391 1.38417 65.1461 1.31721 65.1461 1.23524C65.1461 1.15328 65.0922 1.05296 65.0266 1.01236C64.949 0.964529 64.9356 0.98418 64.9876 1.06873C65.032 1.14009 64.9343 1.1132 64.7709 1.00849C64.3667 0.749406 64.2152 0.595305 64.2152 0.443529C64.2152 0.3732 64.1842 0.346568 64.1459 0.384577C64.1079 0.422585 63.9962 0.380957 63.8977 0.291753C63.773 0.178762 63.697 0.164541 63.6474 0.244695C63.5965 0.327176 63.538 0.328211 63.4424 0.248832C63.3439 0.167126 63.2924 0.179537 63.2477 0.296666ZM26.5169 34.8164C25.9926 34.9005 24.5255 35.1777 23.5693 35.3736C23.4271 35.4026 23.2177 35.4662 23.1039 35.5149C22.9902 35.5634 22.7109 35.6586 22.4834 35.7264C16.7549 37.4279 12.818 43.6018 13.6374 49.5981C14.3002 54.4473 18.1537 58.4229 25.1724 61.4985C28.5565 62.9813 30.3387 64.6671 30.6293 66.6597C31.1255 70.0651 28.8191 71.9199 24.0761 71.9281C21.9696 71.9315 20.8138 71.7842 18.605 71.2301C17.634 70.987 17.1924 70.8356 15.7421 70.2534C14.6063 69.7966 14.8059 69.4671 14.1067 72.9541C14.0214 73.3808 13.9032 73.9623 13.8445 74.2466C13.027 78.2075 13.0293 78.0877 13.7685 78.4267C17.843 80.2959 24.9813 80.9212 29.2577 79.7842C29.5137 79.7158 29.9093 79.6123 30.1368 79.5534C30.3643 79.4945 30.6436 79.4096 30.7574 79.3651C30.8711 79.3205 31.1271 79.226 31.3262 79.1541C33.0052 78.5541 34.6955 77.5931 36.1724 76.3973C36.7133 75.9596 36.7687 76.1342 36.69 78.0322C36.6538 78.9082 36.6567 79.6603 36.6965 79.7041C36.7363 79.7473 38.5566 79.7705 40.7419 79.7555L44.715 79.7281L44.7882 79.263C44.8565 78.8294 44.9648 76.5801 45.1915 70.8856C45.2425 69.6055 45.3291 67.5579 45.3841 66.3349C45.4782 64.2379 45.5496 62.6118 45.801 56.8198C45.8589 55.483 45.9543 53.2956 46.0127 51.9588C46.0712 50.6221 46.1182 49.0785 46.1174 48.5285C46.1167 47.9786 46.1441 47.4549 46.1787 47.365C46.2532 47.1705 46.6195 47.146 46.6858 47.3306C46.7439 47.4927 47.0356 49.1173 47.1545 49.942C47.2471 50.5836 47.3337 51.0766 47.6181 52.5794C47.7097 53.0629 47.8281 53.7144 47.8813 54.0273C47.99 54.6631 48.0582 55.0225 48.3822 56.6647C48.5055 57.2904 48.6477 57.9652 48.6982 58.1643C48.7483 58.3634 48.8448 58.8055 48.9119 59.1468C49.0283 59.7353 49.4474 61.6234 49.6357 62.4047C49.6835 62.6038 49.7706 62.9762 49.8293 63.2321C49.888 63.4881 50.1663 64.6516 50.4476 65.8177C50.7291 66.9838 50.9833 68.0543 51.0123 68.1965C51.0413 68.3387 51.1858 68.9671 51.3334 69.5925C51.7226 71.2418 51.9028 72.0137 52.0222 72.5404C52.0801 72.7966 52.1714 73.1685 52.225 73.3678C52.3201 73.7226 52.5528 74.711 53.1004 77.0911C53.2512 77.7452 53.4202 78.4315 53.4764 78.6164L53.5785 78.9527H56.9773C58.8839 78.9527 60.4017 78.9116 60.434 78.8596C60.4656 78.8082 60.7055 77.9356 60.9669 76.9199C61.2286 75.9048 61.6053 74.4459 61.8044 73.6781C62.0035 72.9103 62.2049 72.1192 62.2519 71.9199C62.299 71.7205 62.4606 71.0925 62.6108 70.5233C62.9837 69.1116 63.0509 68.8431 63.174 68.2671C63.2327 67.9933 63.3035 67.7318 63.3317 67.6866C63.3596 67.6414 63.5975 66.7719 63.8602 65.7544C64.1229 64.737 64.4298 63.5553 64.5417 63.1287C64.7383 62.3807 65.1708 60.6703 65.3524 59.9225C65.4007 59.7234 65.5398 59.1649 65.6616 58.6814C65.993 57.3656 66.4471 55.4675 66.7502 54.1307C66.8986 53.4766 67.063 52.7785 67.1155 52.5794C67.2078 52.2298 67.7756 49.6504 67.9465 48.8044C68.2617 47.2437 68.3119 47.124 68.6035 47.236C68.7432 47.2897 68.7658 47.5809 68.7637 49.344C68.761 52.5409 68.9507 58.7554 69.2884 66.49C69.437 69.8932 69.587 74.0904 69.6624 76.9356C69.6966 78.2445 69.7637 79.4199 69.8124 79.5486L69.8993 79.7822L74.1158 79.7555L78.3329 79.7281L78.3699 79.3144C78.3904 79.087 78.3562 78.0397 78.2932 76.9877C78.1856 75.1952 78.0014 71.7884 77.7651 67.214C77.7089 66.1332 77.6363 64.8068 77.6048 64.2664C77.5719 63.726 77.5055 62.4694 77.4555 61.4739C77.4055 60.4784 77.3151 58.6634 77.2541 57.4403C77.1932 56.2173 77.0966 54.5564 77.0398 53.7494C76.9829 52.9424 76.9363 51.9157 76.9363 51.4678C76.9363 50.9753 76.8856 50.5874 76.8069 50.4855C76.448 50.0181 71.5035 47.7854 68.7658 46.8543C66.0223 45.9212 62.4288 45.0162 62.2354 45.2096C62.1705 45.2745 61.7235 46.9838 61.0114 49.8903C60.9625 50.0894 60.8746 50.4385 60.8156 50.666C60.757 50.8936 60.6341 51.4288 60.5428 51.8554C60.3391 52.8082 60.1961 53.4489 60.0808 53.9239C59.9298 54.5463 59.4755 56.6357 59.3501 57.2852C59.2842 57.6265 59.1691 58.185 59.0944 58.5263C58.9439 59.2143 58.8092 59.8807 58.6395 60.7758C58.3999 62.0396 58.3122 62.5012 58.0619 63.8167C57.9195 64.565 57.8029 65.2722 57.8029 65.388C57.8029 65.9936 57.3767 65.6595 57.2756 64.9743C57.2306 64.6703 57.1198 64.0027 57.029 63.4907C56.9382 62.9788 56.8193 62.3039 56.7642 61.991C56.7091 61.6781 56.6182 61.1895 56.5618 60.9051C56.5054 60.6207 56.4147 60.132 56.3601 59.8191C56.3056 59.5062 56.1385 58.6918 55.9888 58.0092C55.8391 57.3266 55.6795 56.5586 55.6343 56.3027C55.5893 56.0467 55.4288 55.2788 55.2778 54.5962C55.127 53.9136 54.9781 53.1922 54.9471 52.9931C54.9158 52.794 54.8517 52.538 54.8043 52.4242C54.757 52.3105 54.6632 51.9381 54.5959 51.5968C54.462 50.9194 54.3152 50.2472 54.1778 49.6835C54.1295 49.4844 54.0416 49.1121 53.9826 48.8561C53.6977 47.6179 53.3615 46.1384 53.1956 45.3914C53.0947 44.9363 52.9613 44.4988 52.8995 44.4189C52.7685 44.2498 48.6834 44.3116 46.9412 44.5089C44.6571 44.7677 41.8656 45.1207 41.2032 45.2347C39.7398 45.4863 39.8621 45.5851 39.5996 43.9393C38.939 39.7966 38.9535 39.8245 38.7865 42.3641C38.7145 43.4604 38.6114 45.0087 38.5574 45.8051C38.5033 46.6014 38.4133 48.021 38.3572 48.9595C38.177 51.9816 38.0589 53.8383 37.9502 55.3462C37.8921 56.1568 37.8378 57.1264 37.8298 57.5006C37.8088 58.4568 37.6795 58.4591 36.7211 57.5213C35.0453 55.8817 33.6074 54.9405 30.4471 53.4143C24.1971 50.3961 23.3108 49.6308 23.3108 47.253C23.3108 44.8611 24.7773 43.5214 27.9013 43.0594C29.8221 42.7755 33.4448 43.2926 35.2294 44.1055C35.4704 44.2154 35.7165 44.3054 35.7765 44.3054C35.8363 44.3054 36.0677 44.3985 36.2906 44.5123C36.8651 44.8055 36.9266 44.7403 37.1234 43.6331C37.1741 43.3488 37.3339 42.6273 37.4789 42.0301C37.6237 41.4328 37.7928 40.7114 37.8543 40.427C37.9158 40.1426 38.003 39.747 38.0477 39.5479C38.7099 36.6119 38.7084 36.5871 37.8073 36.1915C35.0541 34.9829 29.6124 34.3203 26.5169 34.8164ZM64.3543 36.5012C64.278 36.6998 64.1767 36.6282 65.4563 37.2801C66.8093 37.9688 68.8473 39.1339 69.1651 39.3997C69.2966 39.5096 69.5 39.681 69.6178 39.7806C69.7356 39.8801 69.8658 39.9616 69.9082 39.9616C69.95 39.9616 70.0137 40.0779 70.0493 40.2201C70.0898 40.3817 70.1877 40.4787 70.3096 40.4787C70.4576 40.4787 70.4925 40.5348 70.4555 40.7114C70.4117 40.9183 70.4192 40.9237 70.5233 40.761C70.5877 40.6602 70.6836 40.6044 70.7363 40.6369C70.7898 40.6703 70.7576 40.8099 70.663 40.9542C70.5219 41.1699 70.5158 41.2521 70.6247 41.4561C70.6966 41.5903 70.7281 41.7441 70.6952 41.7976C70.5733 41.9941 70.5213 44.9531 70.637 45.0922C70.8411 45.3381 70.6363 45.4571 70.1384 45.3823C69.7987 45.3314 69.6877 45.3446 69.7398 45.4291C69.7795 45.4938 69.8795 45.5465 69.9617 45.5465C70.0432 45.5465 70.1103 45.5931 70.1103 45.6499C70.1103 45.7068 70.1713 45.7533 70.2452 45.7533C70.3199 45.7533 70.8432 46.0564 71.4089 46.4269C71.9747 46.7972 72.5281 47.1292 72.6391 47.1643C72.8432 47.229 74.1487 48.0794 75.8439 49.2514C76.3521 49.6028 76.8103 49.8903 76.861 49.8903C76.9117 49.8903 77.3466 50.176 77.8267 50.5251C78.7541 51.1989 78.8774 51.2321 78.6856 50.757C78.6199 50.5931 78.5288 50.3661 78.4836 50.2523C78.0521 49.1638 77.563 48.151 76.9535 47.0852C76.6315 46.5218 76.6192 46.4553 76.5589 44.965C76.5178 43.9468 76.4466 43.3213 76.3473 43.116C76.0987 42.6025 74.2925 41.1251 72.2309 39.749C69.7973 38.1253 64.5599 35.9655 64.3543 36.5012Z" fill="white"/>
<path fill-rule="evenodd" clip-rule="evenodd" d="M43.789 3.34882C43.7522 3.40829 43.2087 3.45224 42.5106 3.45224C41.8427 3.45224 41.2522 3.49568 41.1981 3.54869C41.1441 3.60195 40.7974 3.6715 40.4279 3.70356C40.0581 3.73536 39.7401 3.80828 39.721 3.86543C39.7021 3.92256 39.3905 3.96936 39.0288 3.96936C38.6674 3.96936 38.3426 4.01591 38.3074 4.07279C38.2722 4.12967 38.0926 4.17621 37.9082 4.17621C37.7239 4.17621 37.5279 4.22146 37.4725 4.2768C37.417 4.33238 37.1243 4.38643 36.8218 4.39703C36.5195 4.40788 36.2097 4.47873 36.1335 4.55501C36.0574 4.63102 35.8783 4.69334 35.7353 4.69334C35.5923 4.69334 35.4467 4.73988 35.4116 4.79676C35.3764 4.85364 35.2135 4.90019 35.0496 4.90019C34.8857 4.90019 34.7227 4.94673 34.6876 5.00361C34.6524 5.06049 34.5138 5.10704 34.3796 5.10704C34.12 5.10704 33.5 5.41654 33.499 5.54659C33.4985 5.58925 33.3353 5.62416 33.1362 5.62416C32.9371 5.62416 32.7742 5.6707 32.7742 5.72758C32.7742 5.78447 32.6114 5.83101 32.4122 5.83101C32.2131 5.83101 32.0503 5.87755 32.0503 5.93443C32.0503 5.99132 31.9091 6.03786 31.7366 6.03786C31.5535 6.03786 31.3984 6.10224 31.3637 6.19299C31.3309 6.27832 31.2187 6.34813 31.1145 6.34813C31.0101 6.34813 30.896 6.39467 30.8609 6.45156C30.8257 6.50844 30.66 6.55498 30.4927 6.55498C30.3254 6.55498 30.1886 6.60152 30.1886 6.6584C30.1886 6.71529 30.0756 6.76183 29.9375 6.76183C29.7992 6.76183 29.6164 6.83164 29.5311 6.91698C29.4457 7.00232 29.2795 7.07212 29.1618 7.07212C29.044 7.07212 28.9475 7.11862 28.9475 7.17554C28.9475 7.23239 28.8544 7.27897 28.7407 7.27897C28.6269 7.27897 28.5338 7.32547 28.5338 7.38239C28.5338 7.43924 28.4174 7.48582 28.2753 7.48582C28.1331 7.48582 28.0167 7.52718 28.0167 7.57808C28.0167 7.62876 27.9003 7.69938 27.7581 7.73506C27.6159 7.77075 27.4996 7.84575 27.4996 7.90157C27.4996 7.95718 27.4065 8.00294 27.2927 8.00294C27.179 8.00294 27.0859 8.04945 27.0859 8.10636C27.0859 8.16321 27.0199 8.20979 26.9392 8.20979C26.8588 8.20979 26.7774 8.25582 26.7583 8.31239C26.7394 8.36876 26.5959 8.4254 26.4394 8.43835C26.283 8.45129 26.1551 8.52136 26.1551 8.59424C26.1551 8.66718 26.0387 8.72691 25.8965 8.72691C25.7543 8.72691 25.6379 8.77342 25.6379 8.83034C25.6379 8.88718 25.5477 8.93376 25.4372 8.93376C25.3269 8.93376 25.2077 8.98027 25.1725 9.03718C25.1373 9.09403 25.0233 9.14061 24.9189 9.14061C24.8146 9.14061 24.7024 9.2104 24.6696 9.29575C24.637 9.38109 24.5387 9.45088 24.4519 9.45088C24.3648 9.45088 24.2934 9.49739 24.2934 9.55431C24.2934 9.61116 24.2236 9.65773 24.1383 9.65773C24.0529 9.65773 23.9831 9.70424 23.9831 9.76116C23.9831 9.81801 23.8867 9.86458 23.7687 9.86458C23.6511 9.86458 23.4844 9.93492 23.3985 10.0207C23.3127 10.1066 23.1997 10.1503 23.1474 10.1179C23.095 10.0856 23.0523 10.1151 23.0523 10.1831C23.0523 10.3473 22.7366 10.581 22.5093 10.5852C22.4098 10.587 22.3283 10.6351 22.3283 10.692C22.3283 10.7488 22.257 10.7954 22.1698 10.7954C22.0829 10.7954 21.9847 10.8652 21.9521 10.9505C21.9193 11.0359 21.8278 11.1057 21.7484 11.1057C21.6692 11.1057 21.6044 11.1522 21.6044 11.2091C21.6044 11.266 21.5324 11.3125 21.4448 11.3125C21.3569 11.3125 21.1596 11.4289 21.0063 11.5711C20.8527 11.7133 20.6686 11.8296 20.597 11.8296C20.5254 11.8296 20.4667 11.8762 20.4667 11.9331C20.4667 11.9899 20.4072 12.0365 20.3343 12.0365C20.2616 12.0365 20.135 12.1296 20.053 12.2433C19.971 12.3571 19.8464 12.4502 19.7764 12.4502C19.706 12.4502 19.5322 12.5666 19.3901 12.7088C19.2479 12.851 19.0811 12.9673 19.0195 12.9673C18.958 12.9673 18.7041 13.1768 18.4553 13.4327C18.2066 13.6887 17.9721 13.8981 17.9346 13.8981C17.8257 13.8981 17.5708 14.1828 17.5708 14.3043C17.5708 14.3653 17.4831 14.4153 17.3764 14.4153C17.2693 14.4153 16.9942 14.6247 16.7651 14.8807C16.536 15.1366 16.315 15.3461 16.2736 15.3461C16.1807 15.3461 15.7094 15.886 15.7092 15.9925C15.7092 16.0351 15.6605 16.0701 15.6011 16.0701C15.4607 16.0701 14.9852 16.5455 14.9852 16.6859C14.9852 16.7454 14.89 16.794 14.7737 16.794C14.5536 16.794 14.0544 17.2214 14.0544 17.4099C14.0544 17.4694 14.0063 17.518 13.9476 17.518C13.8892 17.518 13.8103 17.5994 13.7725 17.699C13.6854 17.9291 13.4798 18.1386 13.3415 18.1386C13.2826 18.1386 13.1789 18.2433 13.1109 18.3712C13.0431 18.4992 12.902 18.6792 12.797 18.7712C12.6922 18.8633 12.6064 18.9714 12.6064 19.0112C12.6064 19.1025 12.3339 19.3796 12.2444 19.3796C12.1346 19.3796 11.8824 19.6666 11.8824 19.792C11.8824 19.8564 11.8359 19.8802 11.779 19.8451C11.7203 19.8088 11.6756 19.8957 11.6756 20.0457C11.6756 20.2592 11.6255 20.3105 11.417 20.3105C11.2221 20.3105 11.1585 20.3648 11.1585 20.531C11.1585 20.7329 10.6959 21.2407 10.512 21.2413C10.4694 21.2413 10.4345 21.3111 10.4345 21.3964C10.4345 21.4818 10.3879 21.5516 10.3311 21.5516C10.2742 21.5516 10.2277 21.6107 10.2277 21.6831C10.2277 21.7555 10.0182 22.0428 9.76224 22.3216C9.50628 22.6003 9.29683 22.9134 9.29683 23.0173C9.29683 23.1213 9.22416 23.2064 9.13546 23.2064C9.04676 23.2064 9.00306 23.2529 9.03827 23.3098C9.07341 23.3666 9.02971 23.4132 8.94101 23.4132C8.84875 23.4132 8.77971 23.5016 8.77971 23.6201C8.77971 23.7338 8.73313 23.8269 8.67628 23.8269C8.61937 23.8269 8.57286 23.8967 8.57286 23.982C8.57286 24.0674 8.52628 24.1372 8.46943 24.1372C8.41252 24.1372 8.36601 24.2303 8.36601 24.344C8.36601 24.4588 8.29697 24.5509 8.21087 24.5509C8.12553 24.5509 8.05574 24.6207 8.05574 24.706C8.05574 24.7914 8.00916 24.8612 7.95231 24.8612C7.89539 24.8612 7.84889 24.9426 7.84889 25.0421C7.84861 25.1417 7.73327 25.3627 7.59211 25.5334C7.45121 25.704 7.29738 25.8902 7.2506 25.9471C7.20347 26.004 7.09827 26.2018 7.01628 26.3866C6.93464 26.5715 6.83247 26.7228 6.78929 26.7228C6.74637 26.7228 6.71121 26.7892 6.71121 26.8704C6.71121 26.9518 6.65019 27.0798 6.57546 27.1548C6.501 27.2301 6.37327 27.4429 6.29182 27.6277C6.21037 27.8126 6.1085 27.9639 6.06532 27.9639C6.0224 27.9639 5.98724 28.052 5.98724 28.1596C5.98724 28.2675 5.91458 28.3833 5.82563 28.4174C5.73669 28.4515 5.69041 28.5227 5.72298 28.5754C5.75556 28.6281 5.71213 28.7414 5.62628 28.8272C5.54044 28.9131 5.47011 29.0537 5.47011 29.1398C5.47011 29.2259 5.42357 29.3249 5.36669 29.3601C5.3098 29.3953 5.26326 29.5093 5.26326 29.6138C5.26326 29.7179 5.19061 29.8312 5.10166 29.8653C5.01271 29.8994 4.96643 29.9706 4.99901 30.0233C5.03159 30.0761 4.98815 30.1893 4.90231 30.2752C4.81647 30.361 4.74614 30.5045 4.74614 30.5937C4.74614 30.6832 4.6996 30.7564 4.64271 30.7564C4.58583 30.7564 4.53929 30.8727 4.53929 31.0149C4.53929 31.1571 4.49275 31.2735 4.43587 31.2735C4.37898 31.2735 4.33244 31.3609 4.33244 31.4677C4.33244 31.5744 4.26263 31.7197 4.1773 31.7906C4.09198 31.8614 4.02217 32.0766 4.02217 32.2687C4.02217 32.4608 3.97563 32.618 3.91874 32.618C3.86186 32.618 3.81532 32.7344 3.81532 32.8766C3.81532 33.0188 3.76878 33.1351 3.71189 33.1351C3.65501 33.1351 3.60847 33.2297 3.60847 33.3453C3.60847 33.4607 3.54874 33.5783 3.47556 33.6062C3.40265 33.6344 3.33258 33.782 3.31991 33.9346C3.30724 34.0871 3.25062 34.2583 3.19425 34.3146C3.13763 34.3713 3.09134 34.5014 3.09134 34.6038C3.09134 34.7061 3.0448 34.7899 2.98792 34.7899C2.93104 34.7899 2.8845 34.9528 2.8845 35.1519C2.8845 35.351 2.83795 35.5139 2.78107 35.5139C2.72419 35.5139 2.67765 35.6268 2.67765 35.7649C2.67765 35.9033 2.60783 36.0861 2.52251 36.1714C2.43537 36.2585 2.36737 36.5111 2.36737 36.7474C2.36737 36.9792 2.32083 37.1687 2.26395 37.1687C2.20706 37.1687 2.16052 37.285 2.16052 37.4272C2.16052 37.5694 2.11398 37.6858 2.0571 37.6858C2.00021 37.6858 1.95367 37.8903 1.95367 38.1401C1.95367 38.4485 1.90377 38.6135 1.79854 38.6541C1.69615 38.6934 1.6434 38.8553 1.6434 39.1304C1.6434 39.3597 1.59686 39.5474 1.53997 39.5474C1.48309 39.5474 1.43655 39.754 1.43655 40.0066C1.43655 40.2592 1.39001 40.4948 1.33313 40.53C1.27624 40.5651 1.2297 40.8033 1.2297 41.0592C1.2297 41.3431 1.18937 41.4998 1.12628 41.4608C1.06939 41.4256 1.01871 41.4577 1.0138 41.5322C0.954591 42.4053 0.891242 42.8113 0.81031 42.8397C0.75653 42.8588 0.712577 43.1497 0.712577 43.4861C0.712577 43.8251 0.666554 44.0981 0.609153 44.0981C0.548908 44.0981 0.505728 44.4407 0.505728 44.9193C0.505728 45.371 0.459187 45.7694 0.402304 45.8046C0.340249 45.8429 0.298879 46.5416 0.298879 47.553C0.298879 48.792 0.260353 49.3169 0.15305 49.538C-0.0426811 49.9409 -0.0284605 53.1077 0.169598 53.1736C0.2663 53.2059 0.298879 53.6574 0.298879 54.9603C0.298879 56.0111 0.33999 56.7291 0.402304 56.7676C0.459187 56.8028 0.505728 57.2478 0.505728 57.7563C0.505728 58.3037 0.547873 58.681 0.609153 58.681C0.666036 58.681 0.712577 58.9276 0.712577 59.2292C0.712577 59.5306 0.75653 59.8215 0.810571 59.8755C0.864351 59.9296 0.917619 60.1833 0.928735 60.4392C0.939851 60.6952 1.01225 61.0078 1.0893 61.1337C1.16661 61.2596 1.2297 61.5479 1.2297 61.7739C1.2297 62.0001 1.27624 62.2139 1.33313 62.2491C1.39001 62.2843 1.43655 62.4937 1.43655 62.7146C1.43655 62.9354 1.48309 63.1448 1.53997 63.18C1.59686 63.2151 1.64366 63.3459 1.64391 63.4706C1.64443 63.5952 1.71424 63.8305 1.79905 63.9934C1.88412 64.1563 1.95367 64.4444 1.95367 64.6336C1.95367 64.8228 2.00021 65.0064 2.0571 65.0416C2.11398 65.0768 2.16052 65.2192 2.16052 65.3581C2.16052 65.497 2.20706 65.6105 2.26395 65.6105C2.32083 65.6105 2.36737 65.7981 2.36737 66.0275C2.36737 66.3026 2.42012 66.4645 2.52251 66.5038C2.60783 66.5366 2.67765 66.6721 2.67765 66.8048C2.67765 66.9376 2.72419 67.0749 2.78107 67.1101C2.83795 67.1452 2.8845 67.311 2.8845 67.4783C2.8845 67.6456 2.93104 67.7824 2.98792 67.7824C3.0448 67.7824 3.09134 67.9192 3.09134 68.0864C3.09134 68.2537 3.13789 68.4194 3.19477 68.4546C3.25165 68.4898 3.29819 68.6335 3.29819 68.7739C3.29819 68.915 3.368 69.0568 3.45333 69.0897C3.53865 69.1219 3.60847 69.2602 3.60847 69.3965C3.60847 69.5329 3.65501 69.6438 3.71189 69.6438C3.76878 69.6438 3.81532 69.7342 3.81532 69.8445C3.81532 69.9548 3.86186 70.0739 3.91874 70.1096C3.97563 70.1445 4.02217 70.3102 4.02217 70.4774C4.02217 70.6787 4.07465 70.7815 4.1773 70.7815C4.27375 70.7815 4.33244 70.8794 4.33244 71.0404C4.33244 71.1822 4.37898 71.2986 4.43587 71.2986C4.49275 71.2986 4.53929 71.415 4.53929 71.5575C4.53929 71.6993 4.58583 71.8157 4.64271 71.8157C4.6996 71.8157 4.74614 71.889 4.74614 71.9787C4.74614 72.0678 4.81647 72.2109 4.90231 72.2972C4.98815 72.3829 5.03159 72.4959 4.99901 72.5486C4.96643 72.6013 5.01271 72.6726 5.10166 72.7068C5.19061 72.7411 5.26326 72.8568 5.26326 72.965C5.26326 73.0726 5.3098 73.1602 5.36669 73.1602C5.42357 73.1602 5.47011 73.2767 5.47011 73.4192C5.47011 73.5609 5.51665 73.6774 5.57354 73.6774C5.63042 73.6774 5.67696 73.7719 5.67696 73.8876C5.67696 74.0034 5.74677 74.1246 5.8321 74.1575C5.91742 74.1897 5.98724 74.3048 5.98724 74.413C5.98724 74.5205 6.03378 74.6082 6.09066 74.6082C6.14754 74.6082 6.19408 74.7034 6.19408 74.8198C6.19408 74.9363 6.31044 75.1479 6.45265 75.2897C6.59486 75.4322 6.71121 75.6164 6.71121 75.6993C6.71121 75.7815 6.75775 75.8493 6.81463 75.8493C6.87149 75.8493 6.91806 75.9424 6.91806 76.0561C6.91806 76.1698 6.9545 76.263 6.99923 76.263C7.04375 76.263 7.16861 76.4144 7.27615 76.5993C7.38395 76.7842 7.55697 77.0109 7.66067 77.1027C7.76409 77.1945 7.84889 77.3691 7.84889 77.4904C7.84889 77.6116 7.89539 77.7109 7.95231 77.7109C8.00916 77.7109 8.05574 77.7822 8.05574 77.8698C8.05574 77.9568 8.12553 78.0548 8.21087 78.0876C8.29621 78.1198 8.36601 78.2013 8.36601 78.2678C8.36601 78.3349 8.45909 78.4568 8.57286 78.5383C8.68663 78.6205 8.77971 78.7719 8.77971 78.8746C8.77971 78.9781 8.84923 79.089 8.9343 79.1212C9.01916 79.1541 9.06306 79.2226 9.03156 79.2733C8.99998 79.3239 9.04676 79.3657 9.13546 79.3657C9.22416 79.3657 9.29683 79.4472 9.29683 79.5472C9.29711 79.7582 9.73252 80.2965 9.90368 80.2965C9.96806 80.2965 10.0208 80.3917 10.0208 80.5082C10.0208 80.7281 10.4482 81.2274 10.6367 81.2274C10.6961 81.2274 10.7394 81.2623 10.7326 81.3055C10.6987 81.5185 10.782 81.6589 11.2102 82.1123C11.4661 82.3835 11.6756 82.6678 11.6756 82.7438C11.6756 82.8198 11.7446 82.8822 11.8287 82.8822C11.9129 82.8822 12.0112 82.9986 12.0469 83.1411C12.0826 83.2828 12.1565 83.3993 12.2114 83.3993C12.323 83.3993 12.6064 83.6589 12.6064 83.7616C12.6064 83.8712 12.8934 84.1233 13.0188 84.1233C13.0832 84.1233 13.107 84.1698 13.0718 84.2267C13.0366 84.2835 13.0803 84.3301 13.169 84.3301C13.2577 84.3301 13.3304 84.365 13.3304 84.4082C13.3307 84.513 13.8015 85.0541 13.8928 85.0541C13.9874 85.0541 14.2612 85.328 14.2612 85.4226C14.2612 85.5137 14.8024 85.9849 14.9076 85.9849C14.9503 85.9849 14.9852 86.0335 14.9852 86.0931C14.9852 86.2082 15.4496 86.7089 15.5566 86.7089C15.6618 86.7089 15.916 86.9965 15.916 87.115C15.916 87.176 15.9646 87.226 16.0238 87.226C16.0831 87.226 16.2314 87.3191 16.3535 87.4328C16.4755 87.5465 16.6366 87.6397 16.7111 87.6397C16.7858 87.6397 16.8468 87.7096 16.8468 87.7952C16.8468 87.8801 16.8965 87.95 16.9572 87.95C17.018 87.95 17.2685 88.1596 17.5137 88.4157C17.759 88.6719 18.0158 88.8808 18.084 88.8808C18.1526 88.8808 18.3669 89.0438 18.5601 89.2431C18.7535 89.4417 18.9823 89.6048 19.0686 89.6048C19.1566 89.6048 19.2256 89.6959 19.2256 89.8116C19.2256 89.9637 19.2946 90.0185 19.4842 90.0185C19.6264 90.0185 19.7427 90.0685 19.7427 90.1294C19.7427 90.3048 20.0199 90.5356 20.2296 90.5356C20.3348 90.5356 20.4881 90.6287 20.5701 90.7424C20.6521 90.8561 20.7754 90.9493 20.8442 90.9493C20.913 90.9493 21.1418 91.1123 21.3528 91.3116C21.564 91.5102 21.8233 91.6733 21.9291 91.6733C22.0348 91.6733 22.1215 91.7431 22.1215 91.8287C22.1215 91.9144 22.2135 91.9835 22.3283 91.9835C22.4421 91.9835 22.5352 92.0301 22.5352 92.087C22.5352 92.1438 22.6404 92.1904 22.7692 92.1904C22.8979 92.1904 23.0874 92.3027 23.1901 92.4397C23.293 92.5767 23.5136 92.7452 23.6801 92.8143C23.8468 92.8835 23.9831 92.9808 23.9831 93.0308C23.9831 93.0808 24.0995 93.1212 24.2417 93.1212C24.3839 93.1212 24.5003 93.1678 24.5003 93.2246C24.5003 93.2815 24.5884 93.328 24.696 93.328C24.8038 93.328 24.9186 93.3979 24.9514 93.4835C24.984 93.5685 25.1055 93.6383 25.2209 93.6383C25.3364 93.6383 25.4311 93.6849 25.4311 93.7418C25.4311 93.7986 25.5242 93.8452 25.6379 93.8452C25.7517 93.8452 25.8448 93.8917 25.8448 93.9486C25.8448 94.0054 25.9611 94.052 26.1033 94.052C26.2642 94.052 26.3619 94.1109 26.3619 94.2075C26.3619 94.2924 26.4304 94.3623 26.514 94.3623C26.5974 94.3623 26.8317 94.4554 27.0342 94.5691C27.2366 94.6828 27.4942 94.776 27.6061 94.776C27.7181 94.776 27.8098 94.8226 27.8098 94.8794C27.8098 94.9363 27.9029 94.9828 28.0167 94.9828C28.1315 94.9828 28.2235 95.052 28.2235 95.1383C28.2235 95.2349 28.3213 95.2931 28.4821 95.2931C28.6243 95.2931 28.7407 95.3397 28.7407 95.3965C28.7407 95.4534 28.8309 95.5 28.9413 95.5C29.0517 95.5 29.1709 95.5465 29.2061 95.6034C29.2412 95.6602 29.3403 95.7068 29.4264 95.7068C29.5124 95.7068 29.6526 95.7767 29.7379 95.8623C29.8233 95.9472 30.0268 96.0171 30.1899 96.0171C30.3531 96.0171 30.5154 96.0637 30.5506 96.1205C30.5857 96.1774 30.7282 96.2239 30.867 96.2239C31.0059 96.2239 31.1194 96.2705 31.1194 96.3274C31.1194 96.3842 31.1854 96.4308 31.2663 96.4308C31.347 96.4308 31.568 96.5089 31.7576 96.6034C32.404 96.9274 32.4614 96.9479 32.7212 96.9479C32.8642 96.9479 32.9811 96.9945 32.9811 97.0513C32.9811 97.1082 33.144 97.1548 33.3431 97.1548C33.5422 97.1548 33.7051 97.2013 33.7051 97.2582C33.7051 97.315 33.8214 97.3616 33.9636 97.3616C34.1244 97.3616 34.2222 97.4205 34.2222 97.5171C34.2222 97.6253 34.3313 97.6719 34.5842 97.6719C34.7833 97.6719 34.9461 97.7185 34.9461 97.7753C34.9461 97.8322 35.1556 97.8787 35.4116 97.8787C35.6675 97.8787 35.877 97.9253 35.877 97.9822C35.877 98.039 36.0577 98.0856 36.2787 98.0856C36.4998 98.0856 36.814 98.1554 36.9769 98.2404C37.1398 98.3253 37.4943 98.3952 37.7644 98.3959C38.0346 98.3959 38.2557 98.4424 38.2557 98.4993C38.2557 98.5561 38.3692 98.6027 38.5081 98.6027C38.6469 98.6027 38.7894 98.6493 38.8246 98.7061C38.8597 98.763 39.2582 98.8095 39.7099 98.8095C40.1885 98.8095 40.5311 98.8527 40.5311 98.913C40.5311 98.9739 40.8783 99.0164 41.3659 99.0164C41.97 99.0164 42.2435 99.0595 42.3557 99.1719C42.4775 99.2938 42.7966 99.3267 43.842 99.3267C44.6177 99.3267 45.1996 99.3698 45.2369 99.4301C45.3214 99.5671 51.5186 99.5712 51.6552 99.4349C51.7094 99.3801 52.2527 99.3287 52.8621 99.3198C53.665 99.3082 54.0032 99.2637 54.0895 99.1602C54.1681 99.065 54.4318 99.0164 54.8681 99.0164C55.2388 99.0164 55.5277 98.9712 55.5277 98.913C55.5277 98.8527 55.8723 98.8095 56.355 98.8095C56.8378 98.8095 57.1824 98.7664 57.1824 98.7061C57.1824 98.6493 57.4384 98.6027 57.7513 98.6027C58.0642 98.6027 58.3201 98.5561 58.3201 98.4993C58.3201 98.4424 58.5029 98.3959 58.7263 98.3959C58.95 98.3959 59.2026 98.326 59.2879 98.2411C59.3848 98.1438 59.6393 98.0856 59.9674 98.0856C60.2559 98.0856 60.492 98.039 60.492 97.9822C60.492 97.9253 60.6521 97.8787 60.8478 97.8787C61.0435 97.8787 61.2325 97.8322 61.2677 97.7753C61.3029 97.7185 61.4932 97.6719 61.6907 97.6719C61.9146 97.6719 62.0724 97.6137 62.1094 97.5171C62.1499 97.4116 62.3149 97.3616 62.6233 97.3616C62.8731 97.3616 63.0777 97.315 63.0777 97.2582C63.0777 97.2013 63.2144 97.1548 63.3817 97.1548C63.549 97.1548 63.7147 97.1082 63.7499 97.0513C63.785 96.9945 63.9118 96.9479 64.0315 96.9479C64.2991 96.9479 65.0427 96.6294 65.0427 96.5143C65.0427 96.4685 65.1823 96.4308 65.353 96.4308C65.5236 96.4308 65.6633 96.3842 65.6633 96.3274C65.6633 96.2705 65.7796 96.2239 65.9218 96.2239C66.064 96.2239 66.1804 96.1774 66.1804 96.1205C66.1804 96.0637 66.3216 96.0171 66.494 96.0171C66.6771 96.0171 66.8322 95.9527 66.8669 95.8623C66.8997 95.7767 67.0378 95.7068 67.174 95.7068C67.3101 95.7068 67.4215 95.6602 67.4215 95.6034C67.4215 95.5465 67.5146 95.5 67.6283 95.5C67.7421 95.5 67.8352 95.4534 67.8352 95.3965C67.8352 95.3397 67.9683 95.2931 68.131 95.2931C68.3257 95.2931 68.493 95.2054 68.6213 95.0349C68.7288 94.8917 68.9199 94.776 69.0507 94.776C69.1802 94.776 69.3665 94.7335 69.4651 94.6815C69.5644 94.6294 69.8199 94.5109 70.0329 94.4178C70.2459 94.3253 70.4206 94.2048 70.4206 94.1507C70.4206 94.0965 70.537 94.052 70.6795 94.052C70.8213 94.052 70.9377 94.0054 70.9377 93.9486C70.9377 93.8917 71.0309 93.8452 71.1446 93.8452C71.2583 93.8452 71.3514 93.8041 71.3514 93.7534C71.3514 93.7027 71.4679 93.6315 71.6103 93.5958C71.7521 93.5602 71.8685 93.4856 71.8685 93.4294C71.8685 93.3739 71.9528 93.328 72.0562 93.328C72.159 93.328 72.3432 93.2349 72.4658 93.1212C72.5877 93.0075 72.7562 92.9143 72.8391 92.9143C72.9227 92.9143 73.0829 92.7979 73.1946 92.6561C73.3069 92.5137 73.4727 92.3972 73.5644 92.3972C73.6555 92.3972 73.7302 92.3506 73.7302 92.2938C73.7302 92.2369 73.8268 92.1904 73.9446 92.1904C74.1733 92.1904 74.4542 91.9664 74.4542 91.7842C74.4542 91.7233 74.5603 91.6733 74.6905 91.6733C74.8199 91.6733 74.9932 91.5801 75.0747 91.4664C75.1569 91.3527 75.274 91.2596 75.335 91.2596C75.3959 91.2596 75.6179 91.0965 75.8295 90.8979C76.0405 90.6986 76.2596 90.5356 76.3165 90.5356C76.3727 90.5356 76.4192 90.489 76.4192 90.4322C76.4192 90.3753 76.5124 90.3287 76.6261 90.3287C76.7411 90.3287 76.8329 90.2596 76.8329 90.1739C76.8329 90.0883 76.922 90.0185 77.0302 90.0185C77.1391 90.0185 77.4432 89.8089 77.7069 89.5534C77.9699 89.2972 78.2384 89.0876 78.3028 89.0876C78.3672 89.0876 78.6206 88.8781 78.8658 88.6226C79.111 88.3664 79.359 88.1568 79.4172 88.1568C79.4747 88.1568 79.522 88.1102 79.522 88.0534C79.522 87.9965 79.5816 87.95 79.6542 87.95C79.8247 87.95 80.1425 87.5794 80.1425 87.3801C80.1425 87.2849 80.2411 87.226 80.4014 87.226C80.5432 87.226 80.6596 87.176 80.6596 87.115C80.6596 86.9965 80.9137 86.7089 81.0192 86.7089C81.1261 86.7089 81.5905 86.2082 81.5905 86.0931C81.5905 86.0335 81.6391 85.9849 81.6987 85.9849C81.8138 85.9849 82.3144 85.5205 82.3144 85.4137C82.3144 85.3308 82.5911 85.0541 82.674 85.0541C82.7809 85.0541 83.2453 84.5534 83.2453 84.4383C83.2453 84.3787 83.2939 84.3301 83.3535 84.3301C83.5172 84.3301 83.9432 83.8698 83.9857 83.6472C84.0062 83.539 84.1213 83.437 84.2405 83.4198C84.3596 83.4027 84.5185 83.2746 84.5925 83.1356C84.6672 82.9965 84.7672 82.8822 84.8144 82.8822C84.8617 82.8822 84.9001 82.789 84.9001 82.6753C84.9001 82.5616 84.9501 82.4685 85.011 82.4685C85.1316 82.4685 85.4172 82.2143 85.4172 82.1068C85.4172 82.0705 85.6268 81.8404 85.8829 81.5952C86.1391 81.3493 86.348 81.0733 86.348 80.9815C86.348 80.8897 86.3946 80.8137 86.4514 80.8137C86.5083 80.8137 86.5548 80.7493 86.5548 80.6698C86.5548 80.5904 86.6247 80.4986 86.7103 80.4664C86.7953 80.4335 86.8651 80.3459 86.8651 80.2712C86.8651 80.1965 86.9583 80.0685 87.072 79.9863C87.1857 79.9048 87.2788 79.7828 87.2788 79.7157C87.2788 79.6493 87.3487 79.5678 87.4343 79.5356C87.5192 79.5027 87.5891 79.4048 87.5891 79.3178C87.5891 79.2301 87.6357 79.1589 87.6925 79.1589C87.7494 79.1589 87.7959 79.089 87.7959 79.0041C87.7959 78.9185 87.8425 78.8486 87.8994 78.8486C87.9562 78.8486 88.0028 78.7671 88.0028 78.6664C88.0028 78.5664 88.1192 78.3965 88.2617 78.2897C88.4035 78.1835 88.5199 78.0198 88.5199 77.926C88.5199 77.8328 88.6131 77.6897 88.7268 77.6075C88.8405 77.526 88.9336 77.3527 88.9336 77.2233C88.9336 77.0822 88.9966 76.987 89.0891 76.987C89.174 76.987 89.2439 76.9027 89.2439 76.8C89.2439 76.6965 89.337 76.5123 89.4507 76.3904C89.5644 76.2685 89.6576 76.1178 89.6576 76.0561C89.6576 75.9938 89.774 75.8356 89.9165 75.7034C90.0583 75.5712 90.1747 75.3876 90.1747 75.2945C90.1747 75.2013 90.2213 75.1253 90.2781 75.1253C90.335 75.1253 90.3816 75.0089 90.3816 74.8671C90.3816 74.7246 90.4281 74.6082 90.485 74.6082C90.5418 74.6082 90.5884 74.5205 90.5884 74.413C90.5884 74.3048 90.6583 74.1897 90.7439 74.1575C90.8288 74.1246 90.9001 74.0383 90.9014 73.965C90.9028 73.8924 90.9946 73.7164 91.1055 73.5739C91.2172 73.4322 91.309 73.2541 91.3103 73.1787C91.3117 73.1041 91.3822 72.9726 91.4679 72.887C91.5528 72.802 91.6227 72.6191 91.6227 72.4808C91.6227 72.3424 91.6692 72.2294 91.7261 72.2294C91.7829 72.2294 91.8295 72.1363 91.8295 72.0226C91.8295 71.9089 91.8761 71.8157 91.9329 71.8157C91.9898 71.8157 92.0364 71.6993 92.0364 71.5575C92.0364 71.415 92.0829 71.2986 92.1398 71.2986C92.1966 71.2986 92.2432 71.2041 92.2432 71.0883C92.2432 70.9733 92.3131 70.852 92.3987 70.8192C92.4836 70.7863 92.5535 70.6739 92.5535 70.5698C92.5535 70.4657 92.6001 70.3513 92.6569 70.3164C92.7138 70.2808 92.7603 70.115 92.7603 69.9479C92.7603 69.7808 92.8069 69.6438 92.8637 69.6438C92.9206 69.6438 92.9672 69.5274 92.9672 69.3856C92.9672 69.2246 93.0261 69.1267 93.1227 69.1267C93.2076 69.1267 93.2775 69.037 93.2775 68.926C93.2775 68.8157 93.324 68.6965 93.3809 68.6616C93.4377 68.626 93.4843 68.4606 93.4843 68.2933C93.4843 68.126 93.5309 67.9892 93.5877 67.9892C93.6446 67.9892 93.6911 67.8462 93.6911 67.6714C93.6911 67.4969 93.761 67.2841 93.8466 67.1988C93.9316 67.1135 94.0014 66.9307 94.0014 66.7923C94.0014 66.6543 94.048 66.5413 94.1049 66.5413C94.1617 66.5413 94.2083 66.3784 94.2083 66.1793C94.2083 65.9802 94.2549 65.8173 94.3117 65.8173C94.3686 65.8173 94.4151 65.6544 94.4151 65.4553C94.4151 65.2562 94.4617 65.0933 94.5185 65.0933C94.5754 65.0933 94.622 64.8888 94.622 64.639C94.622 64.3306 94.672 64.1656 94.7775 64.125C94.8795 64.0857 94.9322 63.9238 94.9322 63.6487C94.9322 63.4194 94.9788 63.2317 95.0357 63.2317C95.0925 63.2317 95.1391 63.0483 95.1391 62.8242C95.1391 62.6 95.1857 62.3877 95.2425 62.3526C95.2994 62.3174 95.3459 62.0407 95.3459 61.7377C95.3459 61.4347 95.4158 61.0535 95.5007 60.8907C95.5857 60.7278 95.6555 60.3994 95.6562 60.161C95.6562 59.9226 95.7028 59.6987 95.7596 59.6635C95.8165 59.6283 95.8631 59.2997 95.8631 58.9333C95.8631 58.5582 95.9083 58.2673 95.9665 58.2673C96.0281 58.2673 96.0699 57.89 96.0699 57.3426C96.0699 56.8341 96.1165 56.3891 96.1733 56.354C96.2343 56.3162 96.2768 55.698 96.2768 54.8481C96.2768 53.9558 96.3165 53.4063 96.3802 53.4063C96.437 53.4063 96.4836 53.1736 96.4836 52.8892C96.4836 52.6048 96.437 52.3721 96.3802 52.3721C96.2384 52.3721 96.2494 52.0882 96.3939 52.0401C96.5953 51.9729 96.635 50.9867 96.4432 50.7951C96.3007 50.6521 96.2768 50.3067 96.2768 48.352C96.2768 46.9459 96.2377 46.051 96.1733 46.0115C96.1165 45.9763 96.0699 45.5779 96.0699 45.1261C96.0699 44.6476 96.0268 44.305 95.9665 44.305C95.9076 44.305 95.8631 43.9947 95.8631 43.581C95.8631 43.1828 95.8227 42.857 95.772 42.857C95.7226 42.857 95.6603 42.5687 95.635 42.2166C95.609 41.8572 95.5357 41.5583 95.4672 41.5358C95.3932 41.5109 95.3459 41.2594 95.3459 40.8834C95.3459 40.5444 95.3 40.2714 95.2425 40.2714C95.1857 40.2714 95.1391 40.1085 95.1391 39.9094C95.1391 39.7103 95.0925 39.5474 95.0357 39.5474C94.9788 39.5474 94.9322 39.338 94.9322 39.082C94.9322 38.7374 94.8918 38.6166 94.7775 38.6166C94.6692 38.6166 94.622 38.508 94.622 38.2608C94.622 38.0651 94.5754 37.8761 94.5185 37.8409C94.4617 37.8057 94.4151 37.6401 94.4151 37.4727C94.4151 37.3055 94.3686 37.1687 94.3117 37.1687C94.2549 37.1687 94.2083 36.9853 94.2083 36.7611C94.2083 36.537 94.1617 36.3247 94.1049 36.2896C94.048 36.2544 94.0014 36.1153 94.0014 35.9806C94.0014 35.8459 93.9316 35.6657 93.8466 35.5803C93.761 35.495 93.6911 35.2822 93.6911 35.1077C93.6911 34.9329 93.6446 34.7899 93.5877 34.7899C93.5309 34.7899 93.4836 34.7085 93.4829 34.6089C93.4802 34.2976 93.1918 33.5992 93.0768 33.6264C93.0158 33.6409 92.9672 33.4922 92.9672 33.2903C92.9672 33.0912 92.9206 32.9283 92.8637 32.9283C92.8069 32.9283 92.7603 32.8119 92.7603 32.6697C92.7603 32.5275 92.7138 32.4111 92.6569 32.4111C92.6001 32.4111 92.5535 32.323 92.5535 32.2154C92.5535 32.1076 92.4836 31.9928 92.3987 31.9599C92.3076 31.9253 92.2432 31.7702 92.2432 31.5871C92.2432 31.4146 92.1966 31.2735 92.1398 31.2735C92.0829 31.2735 92.0364 31.1571 92.0364 31.0149C92.0364 30.8727 91.9898 30.7564 91.9329 30.7564C91.8761 30.7564 91.8295 30.6938 91.8295 30.617C91.8295 30.4096 91.5192 29.8255 91.4083 29.8255C91.3555 29.8255 91.3124 29.7092 91.3124 29.567C91.3124 29.4248 91.2768 29.3084 91.2336 29.3084C91.1898 29.3084 91.0781 29.1339 90.9843 28.9205C90.8905 28.7072 90.7172 28.4301 90.598 28.3044C90.4788 28.1788 90.3816 27.9809 90.3816 27.8648C90.3816 27.7488 90.335 27.6536 90.2781 27.6536C90.2213 27.6536 90.1747 27.5776 90.1747 27.4845C90.1747 27.3914 90.0583 27.2076 89.9165 27.0757C89.774 26.9438 89.6576 26.7668 89.6576 26.6822C89.6576 26.5974 89.611 26.4994 89.5542 26.4642C89.4973 26.429 89.4507 26.3301 89.4507 26.244C89.4507 26.0632 89.2069 25.792 89.0446 25.792C88.9836 25.792 88.9336 25.6756 88.9336 25.5334C88.9336 25.3912 88.887 25.2748 88.8302 25.2748C88.7733 25.2748 88.7268 25.1988 88.7268 25.1057C88.7268 25.0127 88.6103 24.8288 88.4685 24.697C88.3261 24.5651 88.2096 24.3854 88.2096 24.2972C88.2096 24.2093 88.1631 24.1372 88.1062 24.1372C88.0494 24.1372 88.0028 24.0645 88.0028 23.9758C88.0028 23.8871 87.9562 23.8434 87.8994 23.8786C87.8418 23.9143 87.7959 23.8339 87.7959 23.6953C87.7959 23.5376 87.7028 23.3982 87.5377 23.3098C87.3953 23.2338 87.2788 23.1094 87.2788 23.0336C87.2788 22.9581 87.2377 22.8961 87.1877 22.8961C87.137 22.8961 87.0233 22.7448 86.9357 22.5599C86.8466 22.3751 86.6788 22.1553 86.5617 22.0718C86.4439 21.988 86.348 21.852 86.348 21.7695C86.348 21.687 86.1391 21.4189 85.8829 21.1736C85.6268 20.9284 85.4172 20.6538 85.4172 20.5633C85.4172 20.3762 85.1761 20.1036 85.011 20.1036C84.9501 20.1036 84.9001 20.0309 84.9001 19.9422C84.9001 19.8536 84.8535 19.8099 84.7966 19.8451C84.7398 19.8802 84.6932 19.8564 84.6932 19.792C84.6932 19.6666 84.4411 19.3796 84.3316 19.3796C84.2055 19.3796 83.9692 19.0841 83.9692 18.9272C83.9692 18.7262 82.2651 17.0009 82.0672 17.0009C81.5576 17.0009 81.5905 15.9059 81.5905 32.9332C81.5905 42.6916 81.5535 48.7631 81.4932 48.8C81.4398 48.8331 81.3076 48.7654 81.2001 48.6493C80.9973 48.4321 80.9103 48.2731 80.6083 47.5629C80.3514 46.9607 79.5117 45.2963 79.4336 45.2358C79.3973 45.2074 79.2535 44.9746 79.1144 44.7187C78.5959 43.7648 76.8172 41.4091 76.6144 41.4091C76.4932 41.4091 76.5199 42.1943 76.7295 44.8686C76.8781 46.7618 76.8322 46.6144 77.7295 48.0518C77.8624 48.2641 77.9706 48.4763 77.9706 48.5239C77.9706 48.5712 78.087 48.8513 78.2295 49.146C78.3713 49.4408 78.4877 49.7294 78.4877 49.7872C78.4877 49.8455 78.5288 49.9734 78.5788 50.0722C79.3117 51.5222 79.0932 51.7609 77.9014 50.8124L77.0918 50.1681L77.0548 50.6237C77.035 50.8742 77.0699 51.7309 77.1329 52.5272C77.1959 53.3236 77.3179 55.3714 77.4035 57.0779C77.4891 58.7844 77.6049 60.8392 77.661 61.6439C77.7179 62.4487 77.7637 63.4726 77.7631 63.9192C77.7624 64.366 77.809 65.2898 77.8658 65.9724C77.9227 66.655 78.0405 68.726 78.1268 70.5746C78.2138 72.4233 78.3295 74.6342 78.3843 75.4876C78.5343 77.828 78.5836 79.7281 78.4987 79.8657C78.4411 79.9582 77.3384 79.9822 74.0336 79.9616L69.6453 79.9349L69.5822 78.487C69.548 77.6904 69.4685 75.6191 69.4055 73.8842C69.3425 72.1493 69.2637 70.2644 69.2295 69.6959C69.1959 69.1267 69.1199 67.4048 69.0624 65.869C69.0042 64.3331 68.9131 61.9596 68.861 60.5944C68.8083 59.2291 68.7377 55.7013 68.7042 52.7548C68.6336 46.6594 68.5617 46.2752 68.0394 49.2177C67.9888 49.502 67.8716 50.0605 67.7785 50.4587C67.5027 51.6404 67.4254 51.9855 67.3255 52.4755C67.2733 52.7315 67.1092 53.4296 66.9607 54.0269C66.8123 54.6242 66.6481 55.3223 66.5959 55.5783C66.544 55.8342 66.4547 56.2298 66.3981 56.4574C66.1284 57.541 65.9544 58.2513 65.8662 58.6293C65.8132 58.8568 65.7194 59.2292 65.6579 59.4567C65.5963 59.6842 65.5092 60.0333 65.4639 60.2324C65.2912 60.9912 64.9093 62.4648 64.8335 62.6628C64.7901 62.7766 64.6787 63.1955 64.5861 63.5937C64.4933 63.9918 64.3438 64.5736 64.2538 64.8865C64.1639 65.1994 64.0535 65.6415 64.0085 65.869C63.9288 66.2724 63.7556 66.9389 63.4303 68.0926C63.2491 68.7356 63.1746 69.0212 62.8648 70.2644C62.7441 70.7479 62.6001 71.3068 62.5445 71.5055C62.4889 71.7048 62.4041 72.0308 62.3563 72.2294C62.3084 72.4287 62.1453 73.0568 61.9938 73.626C61.8425 74.1945 61.6354 75.0089 61.5335 75.4356C61.3693 76.1239 61.1214 77.1034 60.787 78.3835C60.582 79.1678 60.8982 79.1075 57.0201 79.1075H53.5189L53.393 78.8486C53.2803 78.6164 52.8924 77.1308 52.7724 76.4698C52.7466 76.3281 52.6829 76.0486 52.6312 75.8493C52.5795 75.6507 52.3685 74.7664 52.163 73.8842C51.9572 73.0027 51.747 72.1185 51.696 71.9192C51.6448 71.7205 51.4832 71.0219 51.3366 70.3678C51.1901 69.7137 51.0292 69.0157 50.9793 68.8164C50.5547 67.1248 50.3548 66.2548 50.3557 66.1005C50.3561 66.0001 50.314 65.8372 50.2623 65.7384C50.2106 65.6396 50.0456 65.0002 49.8959 64.3176C49.7459 63.635 49.582 62.9137 49.5311 62.7146C49.4186 62.2737 49.2803 61.6713 49.0566 60.6461C48.9635 60.2194 48.8495 59.7307 48.8032 59.5601C48.7572 59.3894 48.5506 58.3655 48.3446 57.2848C48.1385 56.204 47.9249 55.1767 47.8703 55.0022C47.8155 54.8274 47.7708 54.5515 47.7708 54.3889C47.7708 54.2262 47.7274 53.9503 47.6741 53.7756C47.5823 53.4744 47.2209 51.5752 47.0427 50.4587C46.9974 50.1743 46.9044 49.5926 46.8361 49.1659C46.7679 48.7393 46.6828 48.1909 46.6468 47.9473C46.4474 46.5974 46.2471 47.8333 46.2311 50.5105C46.2248 51.5059 46.1744 53.0418 46.1188 53.9235C46.0633 54.8052 45.9666 56.853 45.9038 58.4742C45.8409 60.0953 45.7453 62.3991 45.6912 63.5937C45.5322 67.1005 45.397 70.2541 45.2966 72.7986C45.1635 76.1664 44.977 79.7048 44.9248 79.8582C44.8899 79.9609 43.9839 79.9828 40.6632 79.9616L36.4458 79.9349L36.4518 79.3657C36.4548 79.0534 36.4972 78.2397 36.5459 77.5589L36.634 76.3212L36.3357 76.5164C36.1717 76.6239 35.9897 76.7513 35.9313 76.7993C35.2396 77.3664 33.2414 78.6417 33.0434 78.6417C33.0095 78.6417 32.6219 78.8082 32.1818 79.0116C31.742 79.2144 31.1368 79.4472 30.8371 79.5287C29.5068 79.889 29.1572 79.9733 28.3787 80.1239C26.3435 80.5171 22.6159 80.6507 20.8564 80.3938C18.9231 80.1109 18.0476 79.95 16.9503 79.676C16.7511 79.6267 16.3555 79.5308 16.0711 79.4637C15.5592 79.3431 13.7617 78.6561 13.1887 78.3623C12.8668 78.1972 12.8619 78.1041 13.1122 76.8835C13.1646 76.6281 13.3314 75.7897 13.4827 75.0219C13.6337 74.2541 13.7992 73.4164 13.8501 73.1602C13.901 72.9048 13.9907 72.439 14.049 72.126C14.5205 69.6007 14.564 69.5246 15.3288 69.8863C15.5096 69.9719 15.9134 70.1397 16.2263 70.2596C16.5392 70.3794 16.8882 70.5185 17.002 70.5685C17.7874 70.9144 19.8898 71.4089 21.4492 71.6137C27.217 72.3726 30.4531 70.8637 30.4443 67.4204C30.4376 64.8898 28.9025 63.3413 24.4485 61.3724C23.4373 60.9253 22.7824 60.597 21.9257 60.1077C21.4482 59.835 21.0417 59.6118 21.0221 59.6118C20.9681 59.6118 20.0683 59.0086 19.1069 58.3278C18.0101 57.5511 16.0155 55.5459 15.3622 54.5629C14.774 53.6779 14.0554 52.2924 14.0548 52.0422C14.0546 51.946 14.0133 51.8418 13.9629 51.8107C13.9124 51.7795 13.8457 51.6256 13.8146 51.4684C13.7834 51.3112 13.6634 50.7638 13.5481 50.2519C13.2608 48.9759 13.2603 47.2156 13.5466 45.6477C13.8296 44.0986 14.3344 42.5912 14.7983 41.9102C14.9011 41.7592 14.9852 41.6046 14.9852 41.5663C14.9852 41.474 15.839 40.1579 16.0267 39.9611C16.1081 39.8758 16.3946 39.5578 16.6637 39.2542C17.0565 38.8111 17.9118 38.0516 18.7615 37.3913C19.6235 36.7214 22.7255 35.307 23.3329 35.307C23.4561 35.307 23.5829 35.2657 23.6142 35.215C23.6455 35.1646 23.8226 35.0999 24.0079 35.0715C24.1933 35.0431 24.9269 34.9148 25.6379 34.7863C29.1901 34.1451 34.5479 34.6531 37.6256 35.9234C38.8313 36.4209 38.9124 36.7123 38.4109 38.7402C38.2687 39.3147 38.1523 39.8924 38.1523 40.0235C38.1523 40.1545 38.1102 40.3686 38.0587 40.4992C38.0075 40.6301 37.8831 41.1324 37.7828 41.6159C37.6825 42.0994 37.5679 42.5416 37.5284 42.5985C37.4885 42.6553 37.4283 42.8881 37.394 43.1156C37.1194 44.9374 36.9867 45.099 36.1166 44.6719C34.9658 44.1069 33.4998 43.6529 31.8951 43.3646C30.934 43.1921 27.2346 43.1841 27.0642 43.3545C26.9964 43.4222 26.8542 43.4776 26.7482 43.4776C26.3089 43.4776 25.0086 44.1969 24.4643 44.7409C23.0921 46.1133 23.1131 48.4613 24.5096 49.7384C25.0078 50.194 26.0876 51.0276 26.1796 51.0276C26.2114 51.0276 26.5331 51.2055 26.8943 51.4229C27.2557 51.6401 28.04 52.0528 28.6372 52.3395C33.8121 54.825 35.2432 55.7072 36.8595 57.4083C37.6427 58.2326 37.5905 58.2653 37.6776 56.8969C37.7184 56.257 37.797 55.0818 37.8524 54.2855C37.9077 53.4891 37.9969 52.0696 38.0505 51.131C38.4212 44.6297 38.6805 40.9716 38.8866 39.3406C38.9407 38.914 39.0311 37.8668 39.0878 37.0135C39.2196 35.0224 39.0986 35.2039 40.295 35.202C40.8514 35.2013 41.3732 35.1583 41.4544 35.1069C41.622 35.0011 41.6868 18.8028 41.5413 13.4327C41.4246 9.12355 41.4208 8.00239 41.5229 7.90314C42.1455 7.29835 52.3336 7.58506 56.355 8.32068C59.8583 8.96143 59.6295 8.76102 59.6543 11.2091C59.6641 12.2046 59.7194 14.5316 59.7766 16.3803C59.834 18.229 59.9235 21.5335 59.9752 23.7235C60.0548 27.0742 60.2441 33.0596 60.3167 34.5231C60.341 35.0105 60.5458 35.1557 61.7848 35.5648C62.2399 35.7153 62.9321 35.9842 63.3233 36.1626L64.0343 36.4871L64.28 36.2016C64.4149 36.0444 64.5256 35.8115 64.5256 35.684C64.5256 35.2496 64.6903 35.2036 66.2466 35.2036C67.8336 35.2036 68.0759 35.1279 67.3928 34.8453C66.3135 34.399 64.7464 33.7885 64.3501 33.66C63.7814 33.4757 63.8187 33.6962 63.753 30.1128C63.3732 9.39396 63.2568 6.02674 62.908 5.65027C62.772 5.50367 62.6841 5.30975 62.7131 5.21951C62.7573 5.08041 62.6784 5.06075 62.1975 5.09075C61.8342 5.1135 61.6297 5.08558 61.6297 5.01318C61.6297 4.95112 61.4668 4.90019 61.2677 4.90019C61.0686 4.90019 60.9057 4.85364 60.9057 4.79676C60.9057 4.73988 60.7627 4.69334 60.5879 4.69334C60.4134 4.69334 60.2006 4.62353 60.1153 4.5382C60.024 4.44693 59.7714 4.38306 59.502 4.38306C59.2502 4.38306 59.0441 4.33652 59.0441 4.27964C59.0441 4.22275 58.8346 4.17621 58.5787 4.17621C58.3227 4.17621 58.1133 4.12967 58.1133 4.07279C58.1133 4.01591 57.9542 3.96936 57.7598 3.96936C57.5656 3.96936 57.3893 3.91739 57.3681 3.85405C57.3469 3.7907 57.2094 3.72554 57.062 3.70951C56.9148 3.69322 56.6987 3.62884 56.5816 3.56627C56.4567 3.4993 55.7911 3.45224 54.9718 3.45224C54.1521 3.45224 53.5483 3.40958 53.5109 3.34882C53.4698 3.28236 51.7364 3.24539 48.6499 3.24539C45.5635 3.24539 43.8301 3.28236 43.789 3.34882ZM56.3033 3.65909C56.3395 3.71753 56.2547 3.76252 56.1086 3.76252C55.9664 3.76252 55.8214 3.71597 55.7862 3.65909C55.75 3.60066 55.8348 3.55567 55.9809 3.55567C56.1231 3.55567 56.2682 3.60221 56.3033 3.65909ZM52.4249 41.7261C52.4249 42.0405 52.8288 43.7674 52.9919 44.1498C53.0646 44.3205 53.1724 44.6463 53.2316 44.8738C53.2908 45.1013 53.3896 45.4791 53.4509 45.7131C53.5124 45.9474 53.5626 46.2387 53.5626 46.3611C53.5626 46.4831 53.6032 46.6638 53.6531 46.7626C53.7371 46.9296 53.8912 47.5655 54.1855 48.9591C54.2514 49.272 54.3457 49.6908 54.3954 49.8899C54.4448 50.089 54.6074 50.7871 54.7566 51.4413C54.9058 52.0955 55.0669 52.7935 55.1142 52.9926C55.1618 53.1918 55.3239 53.9596 55.4749 54.6992C55.6257 55.4386 55.789 56.2066 55.8377 56.4057C55.8863 56.6048 55.9807 57.0469 56.0474 57.3882C56.1141 57.7295 56.2324 58.288 56.3103 58.6293C56.4522 59.2519 56.7183 60.6624 56.8763 61.6286C56.9229 61.913 57.0364 62.5413 57.1287 63.0248C57.2209 63.5083 57.3306 64.1599 57.3725 64.4728C57.5134 65.5251 57.6194 65.4253 57.8733 64.0024C58.0049 63.2658 58.1631 62.3836 58.2252 62.0423C58.287 61.701 58.3742 61.2123 58.4186 60.9563C58.4631 60.7004 58.6273 59.8859 58.7838 59.1464C58.9401 58.4069 59.1038 57.6157 59.1478 57.3882C59.2623 56.7924 59.563 55.3892 59.6796 54.906C59.8017 54.3995 59.9449 53.7577 60.0661 53.1736C60.1164 52.9319 60.2384 52.385 60.3377 51.9584C60.4367 51.5318 60.5407 51.0542 60.5685 50.897C60.5965 50.7398 60.6603 50.5859 60.7108 50.5546C60.7612 50.5236 60.8023 50.3633 60.8023 50.1981C60.8023 49.9305 61.1731 48.2775 61.4169 47.4594C61.4676 47.2887 61.6095 46.7318 61.7318 46.222C61.8544 45.7118 62.0173 45.1766 62.0941 45.0326C62.3077 44.6303 62.5799 43.4951 62.5132 43.2844C62.4692 43.1461 62.2309 43.0483 61.602 42.9118C61.1338 42.81 60.4946 42.667 60.1818 42.5938C58.4649 42.1925 55.7498 41.7944 53.123 41.5588C52.4516 41.4985 52.4249 41.5048 52.4249 41.7261Z" fill="#9B9B9B"/>
<path fill-rule="evenodd" clip-rule="evenodd" d="M64.422 0.740706C64.4222 0.782076 64.5589 0.893514 64.7255 0.988411C64.9355 1.1076 65.013 1.12001 64.9778 1.02823C64.9212 0.880589 64.4209 0.621768 64.422 0.740706ZM66.0305 1.7641C66.1342 1.83985 66.2585 1.9019 66.3066 1.9019C66.355 1.9019 66.3363 1.83985 66.2654 1.7641C66.1946 1.68808 66.0702 1.62602 65.9894 1.62602C65.882 1.62602 65.8934 1.66377 66.0305 1.7641ZM62.8698 3.33873C62.8698 3.71416 62.9104 3.95747 62.967 3.92257C63.0663 3.86103 63.0329 2.85781 62.928 2.75284C62.8959 2.72103 62.8698 2.98451 62.8698 3.33873ZM62.8499 4.51338C62.8279 4.81616 62.8783 5.03852 63.0115 5.22779C63.3109 5.65364 63.3763 6.54981 63.4855 11.7273C63.5413 14.3723 63.6344 18.5843 63.6928 21.0872C63.751 23.5901 63.8339 27.3133 63.8772 29.3612C63.9203 31.409 63.979 32.6888 64.0074 32.2053C64.0359 31.7218 64.0289 29.9067 63.992 28.1718C63.9552 26.4368 63.8808 22.2667 63.827 18.9052C63.7729 15.5433 63.7021 12.7499 63.6696 12.6971C63.637 12.6444 63.5982 11.3223 63.5834 9.75958C63.5552 6.79389 63.5113 6.20127 63.2212 4.87536C63.0252 3.97997 62.8974 3.85534 62.8499 4.51338ZM49.7348 7.97657C49.7348 8.02725 50.2853 8.12808 50.9584 8.20047C52.2776 8.34219 52.6571 8.45849 52.1858 8.57691C52.0324 8.61547 51.8018 8.62061 51.6733 8.58828C51.3643 8.51075 51.2413 8.60458 51.0965 9.02787C50.9602 9.42527 50.9335 10.2793 51.0572 10.2793C51.2068 10.2793 51.2107 10.5888 51.2493 25.666L51.2875 40.6908L51.0026 40.794C50.8457 40.8509 50.6212 40.946 50.5038 41.0057C50.3864 41.0655 49.8745 41.1485 49.3661 41.1901L48.442 41.2658L49.9417 41.3414C51.535 41.4218 52.0831 41.4052 52.2993 41.2694C52.3727 41.2232 52.4891 41.2296 52.5578 41.2837C52.6263 41.3377 52.7523 41.3879 52.8376 41.3949C55.6316 41.6291 58.7211 42.0977 61.1115 42.6502C61.3107 42.6962 61.7161 42.7833 62.0124 42.8441C62.3087 42.9049 62.6345 43.0033 62.7363 43.0631C62.8383 43.1228 63.3404 43.2829 63.8523 43.4189C64.9057 43.6986 66.3084 44.1827 67.1731 44.5651C67.4939 44.707 67.8016 44.8231 67.8567 44.8231C68.0211 44.8231 70.3794 45.9588 71.1698 46.4187C71.4397 46.576 71.6609 46.6781 71.6609 46.6457C71.6609 46.5521 70.3924 45.754 70.2438 45.754C70.1698 45.754 70.1096 45.7074 70.1096 45.6505C70.1096 45.5936 70.0424 45.5471 69.9602 45.5471C69.8787 45.5471 69.7787 45.4944 69.739 45.4297C69.6863 45.3452 69.7979 45.332 70.1376 45.3829C70.6356 45.4577 70.8397 45.3387 70.6363 45.0928C70.5205 44.9537 70.5726 41.9947 70.6938 41.7982C70.7274 41.7447 70.6959 41.5909 70.6239 41.4566C70.5144 41.2527 70.5212 41.1704 70.6623 40.9548C70.7568 40.8105 70.789 40.6709 70.7349 40.6375C70.6822 40.605 70.587 40.6608 70.5226 40.7616C70.4185 40.9243 70.4109 40.9188 70.4548 40.712C70.4918 40.5354 70.4568 40.4793 70.3089 40.4793C70.187 40.4793 70.089 40.3823 70.0486 40.2207C70.013 40.0786 69.9493 39.9622 69.9075 39.9622C69.865 39.9622 69.7349 39.8807 69.6171 39.7812C69.4993 39.6816 69.2959 39.5102 69.1644 39.4003C68.8349 39.1247 66.7722 37.9482 65.4257 37.2679C64.5225 36.8116 64.3193 36.6681 64.3583 36.5138C64.4044 36.3327 64.3968 36.3323 64.2096 36.5016C64.0326 36.6619 63.9891 36.6642 63.7763 36.5249C63.6463 36.4398 63.0185 36.1781 62.3811 35.9436C61.7437 35.7091 60.988 35.4149 60.7015 35.2897L60.1807 35.0625L60.1686 34.332C60.1619 33.9302 60.1585 33.5762 60.1613 33.5452C60.1645 33.5139 60.1226 32.5366 60.0685 31.3733C60.0145 30.2098 59.9255 27.3728 59.8713 25.069C59.6931 17.5307 59.5708 12.9481 59.4976 11.0723L59.4257 9.22828L59.1568 9.12588C58.3439 8.81636 56.0407 8.37006 54.4407 8.21184C53.815 8.15006 52.9539 8.06034 52.5273 8.01225C51.4272 7.88862 49.7348 7.86691 49.7348 7.97657ZM64.304 33.5046C64.4954 33.5923 64.6776 33.638 64.7089 33.6067C64.7966 33.5193 64.7115 33.4762 64.3177 33.4081L63.9557 33.3456L64.304 33.5046ZM65.4554 33.9216C65.8252 34.0616 66.2324 34.2288 66.3601 34.294C66.4881 34.3589 66.6176 34.3873 66.6479 34.357C66.6781 34.3268 66.4571 34.2009 66.1566 34.0776C65.8562 33.954 65.5296 33.8081 65.4309 33.7531C65.3321 33.6983 65.1459 33.6566 65.0172 33.6605C64.8806 33.6646 65.0632 33.7735 65.4554 33.9216ZM67.0068 34.5324C67.149 34.6136 67.3119 34.6803 67.3687 34.6803C67.4257 34.6803 67.3559 34.6136 67.2136 34.5324C67.0714 34.4512 66.9085 34.3845 66.8516 34.3845C66.7948 34.3845 66.8646 34.4512 67.0068 34.5324ZM17.2013 38.9538L16.8975 39.2899L17.2337 38.9861C17.547 38.703 17.6174 38.6177 17.5375 38.6177C17.5196 38.6177 17.3684 38.7689 17.2013 38.9538ZM38.8 41.5135C38.8 41.7695 38.8202 41.8742 38.8448 41.7462C38.8696 41.6183 38.8696 41.4088 38.8448 41.2808C38.8202 41.1529 38.8 41.2576 38.8 41.5135ZM38.6924 43.0649C38.6924 43.264 38.7137 43.3455 38.7398 43.2459C38.7657 43.1464 38.7657 42.9835 38.7398 42.8839C38.7137 42.7844 38.6924 42.8658 38.6924 43.0649ZM78.1767 43.0649C78.2979 43.2355 78.4205 43.3752 78.4493 43.3752C78.4774 43.3752 78.4013 43.2355 78.2801 43.0649C78.1589 42.8942 78.0363 42.7546 78.0075 42.7546C77.9794 42.7546 78.0555 42.8942 78.1767 43.0649ZM29.7998 43.0329C29.8993 43.0587 30.0622 43.0587 30.1618 43.0329C30.2613 43.0068 30.1798 42.9855 29.9807 42.9855C29.7817 42.9855 29.7003 43.0068 29.7998 43.0329ZM38.5911 44.4612C38.5922 44.6887 38.6133 44.7696 38.6382 44.6409C38.663 44.5123 38.662 44.3262 38.6361 44.2272C38.6102 44.1284 38.5898 44.2336 38.5911 44.4612ZM13.4674 48.0293C13.4674 48.456 13.4858 48.6305 13.5081 48.4171C13.5305 48.2038 13.5305 47.8548 13.5081 47.6414C13.4858 47.4281 13.4674 47.6027 13.4674 48.0293ZM81.2486 48.512C81.2774 48.5878 81.3431 48.6499 81.3938 48.6499C81.4445 48.6499 81.4863 48.5878 81.4863 48.512C81.4863 48.436 81.4205 48.374 81.3411 48.374C81.2609 48.374 81.2191 48.436 81.2486 48.512ZM38.1774 50.8735C38.1785 51.101 38.1996 51.1819 38.2245 51.0532C38.2493 50.9246 38.2483 50.7385 38.2224 50.6395C38.1965 50.5407 38.1761 50.6459 38.1774 50.8735ZM46.0426 51.132C46.0426 51.4449 46.062 51.5729 46.0858 51.4164C46.1093 51.2601 46.1093 51.004 46.0858 50.8476C46.062 50.6912 46.0426 50.8192 46.0426 51.132ZM78.7507 50.951C78.8308 51.1612 78.6904 51.1902 78.5013 51.0027C78.3972 50.8991 78.3842 50.9079 78.437 51.0464C78.4733 51.1416 78.5712 51.2455 78.6541 51.2773C78.8486 51.352 78.9664 51.0524 78.8048 50.8923C78.7096 50.798 78.6972 50.8114 78.7507 50.951ZM76.9596 52.58C76.9596 52.7791 76.9808 52.8605 77.0068 52.7609C77.0328 52.6614 77.0328 52.4986 77.0068 52.399C76.9808 52.2994 76.9596 52.3809 76.9596 52.58ZM45.9363 52.8903C45.9363 53.1462 45.9565 53.2509 45.9811 53.1229C46.0059 52.995 46.0059 52.7855 45.9811 52.6575C45.9565 52.5296 45.9363 52.6343 45.9363 52.8903ZM68.789 53.4074C68.789 53.6065 68.8102 53.6879 68.8363 53.5883C68.8623 53.4888 68.8623 53.326 68.8363 53.2264C68.8102 53.1268 68.789 53.2083 68.789 53.4074ZM77.1705 55.993C77.1705 56.249 77.1911 56.3537 77.215 56.2257C77.2404 56.0977 77.2404 55.8883 77.215 55.7603C77.1911 55.6323 77.1705 55.737 77.1705 55.993ZM68.8965 56.6136C68.8965 56.8695 68.9171 56.9742 68.9411 56.8462C68.9664 56.7183 68.9664 56.5088 68.9411 56.3808C68.9171 56.2529 68.8965 56.3576 68.8965 56.6136ZM36.4965 57.2858C36.6894 57.4849 36.8707 57.6478 36.8991 57.6478C36.9275 57.6478 36.7929 57.4849 36.5999 57.2858C36.407 57.0867 36.2258 56.9238 36.1974 56.9238C36.1689 56.9238 36.3036 57.0867 36.4965 57.2858ZM77.2719 58.5269C77.2733 58.7544 77.2945 58.8354 77.3192 58.7066C77.3438 58.5781 77.3424 58.3919 77.3171 58.2929C77.2911 58.1941 77.2705 58.2994 77.2719 58.5269ZM77.3774 59.6129C77.3774 59.8688 77.3979 59.9735 77.4219 59.8455C77.4472 59.7176 77.4472 59.5081 77.4219 59.3801C77.3979 59.2522 77.3774 59.3569 77.3774 59.6129ZM45.624 60.6988C45.625 60.9264 45.6462 61.0072 45.6711 60.8785C45.6959 60.75 45.6948 60.5638 45.669 60.4648C45.6431 60.366 45.6227 60.4713 45.624 60.6988ZM69 61.0608C69 61.3168 69.0205 61.4215 69.0445 61.2935C69.0698 61.1655 69.0698 60.9561 69.0445 60.8281C69.0205 60.7001 69 60.8049 69 61.0608ZM77.4767 62.5088C77.4767 62.7079 77.4979 62.7893 77.5239 62.6897C77.55 62.5902 77.55 62.4273 77.5239 62.3277C77.4979 62.2282 77.4767 62.3096 77.4767 62.5088ZM69.1013 62.6639C69.1027 62.8914 69.1239 62.9724 69.1486 62.8436C69.1733 62.7151 69.1719 62.5289 69.1465 62.4299C69.1205 62.3311 69.1 62.4364 69.1013 62.6639ZM45.5185 63.4396C45.5185 63.6387 45.5397 63.7201 45.5658 63.6205C45.5917 63.521 45.5917 63.3581 45.5658 63.2585C45.5397 63.159 45.5185 63.2405 45.5185 63.4396ZM77.5801 63.543C77.5801 63.7421 77.6013 63.8236 77.6274 63.724C77.6534 63.6244 77.6534 63.4616 77.6274 63.362C77.6013 63.2625 77.5801 63.3439 77.5801 63.543ZM29.3602 64.2153C29.5531 64.4144 29.7344 64.5772 29.7628 64.5772C29.7912 64.5772 29.6565 64.4144 29.4636 64.2153C29.2707 64.0162 29.0895 63.8533 29.0611 63.8533C29.0326 63.8533 29.1673 64.0162 29.3602 64.2153ZM45.422 65.3012C45.422 65.6141 45.4415 65.742 45.4652 65.5856C45.4887 65.4292 45.4887 65.1732 45.4652 65.0168C45.4415 64.8604 45.422 64.9883 45.422 65.3012ZM69.2068 66.0252C69.2068 66.2812 69.2274 66.3859 69.2513 66.2579C69.2767 66.1299 69.2767 65.9205 69.2513 65.7925C69.2274 65.6645 69.2068 65.7692 69.2068 66.0252ZM77.6876 66.1286C77.6876 66.3846 77.7082 66.4893 77.7322 66.3613C77.7575 66.2333 77.7575 66.0239 77.7322 65.8959C77.7082 65.7679 77.6876 65.8727 77.6876 66.1286ZM77.7924 67.5249C77.7931 67.8092 77.8137 67.9135 77.837 67.7563C77.8609 67.5988 77.8602 67.3661 77.8356 67.2392C77.8116 67.1119 77.7918 67.2404 77.7924 67.5249ZM69.3082 68.042C69.3096 68.2695 69.3308 68.3504 69.3555 68.2217C69.3801 68.0931 69.3787 67.907 69.3534 67.8079C69.3274 67.7092 69.3068 67.8144 69.3082 68.042ZM45.2137 69.4897C45.2144 69.7747 45.2346 69.8788 45.2584 69.7212C45.2822 69.5637 45.2817 69.3315 45.2571 69.2041C45.2325 69.0767 45.2129 69.2055 45.2137 69.4897ZM77.8959 69.9034C77.8965 70.1883 77.9171 70.2925 77.9404 70.1349C77.9644 69.9774 77.9637 69.7445 77.939 69.6178C77.915 69.4904 77.8952 69.6192 77.8959 69.9034ZM69.4226 71.0931C69.4226 71.6335 69.4404 71.8548 69.4616 71.5842C69.4828 71.3144 69.4828 70.8719 69.4616 70.602C69.4404 70.3315 69.4226 70.5527 69.4226 71.0931ZM45.1128 73.213C45.1133 73.5548 45.1327 73.6815 45.1557 73.4959C45.1787 73.3096 45.1783 73.0308 45.1547 72.8753C45.1311 72.7199 45.1123 72.8719 45.1128 73.213ZM78.0993 73.3164C78.1007 73.5438 78.1219 73.6253 78.1465 73.4966C78.1712 73.3678 78.1698 73.1815 78.1445 73.0829C78.1185 72.9836 78.0979 73.089 78.0993 73.3164ZM69.513 73.989C69.513 74.1877 69.5342 74.2692 69.5602 74.1699C69.5863 74.0705 69.5863 73.9075 69.5602 73.8082C69.5342 73.7082 69.513 73.7897 69.513 73.989ZM45.0013 74.6096C45.0013 74.8082 45.0226 74.8897 45.0487 74.7904C45.0746 74.6911 45.0746 74.5281 45.0487 74.4288C45.0226 74.3288 45.0013 74.4103 45.0013 74.6096ZM69.6233 76.0575C69.6233 76.3705 69.6431 76.4979 69.6664 76.3418C69.6904 76.1856 69.6904 75.9294 69.6664 75.7733C69.6431 75.6164 69.6233 75.7445 69.6233 76.0575ZM78.3041 77.2986C78.3041 77.4973 78.3253 77.5788 78.3513 77.4794C78.3774 77.3801 78.3774 77.2171 78.3513 77.1178C78.3253 77.0178 78.3041 77.0993 78.3041 77.2986ZM13.1205 78.1C13.1825 78.2281 13.3131 78.3294 13.4106 78.3246C13.5544 78.3178 13.5585 78.3048 13.4328 78.2561C13.3475 78.2226 13.2169 78.1219 13.1427 78.0315C13.0282 77.8925 13.0248 77.9027 13.1205 78.1ZM53.4848 78.85C53.521 78.9822 53.9085 79.0055 56.1557 79.0075L58.7845 79.0109L56.2038 78.9801C54.3068 78.9575 53.5994 78.9157 53.5328 78.8219C53.467 78.7294 53.454 78.737 53.4848 78.85ZM59.7929 79.0246C59.8924 79.0507 60.0553 79.0507 60.1549 79.0246C60.2544 78.9986 60.173 78.9774 59.9739 78.9774C59.7748 78.9774 59.6934 78.9986 59.7929 79.0246ZM44.786 79.3205C44.7774 79.4938 44.7126 79.7034 44.642 79.7856C44.5711 79.8685 44.598 79.8609 44.702 79.7685C44.8287 79.6562 44.8757 79.5041 44.846 79.3034L44.8015 79.0048L44.786 79.3205Z" fill="white"/>
<path fill-rule="evenodd" clip-rule="evenodd" d="M42.9101 7.7139C42.199 7.76588 41.5749 7.85041 41.5232 7.90164C41.4223 8.00143 41.4257 9.1776 41.5374 12.864C41.5762 14.1438 41.6101 20.996 41.6127 28.0906L41.6173 40.9905L41.8896 41.2631L42.1621 41.5356L44.9406 41.4156C48.5253 41.2612 50.3101 41.1276 50.5369 40.9968C50.637 40.9394 50.8469 40.8465 51.0039 40.791L51.2888 40.6899L51.2505 25.6651C51.212 10.5878 51.2081 10.2784 51.0584 10.2784C50.9349 10.2784 50.9614 9.42431 51.0977 9.02691C51.2425 8.60362 51.3656 8.50979 51.6746 8.58732C51.8031 8.61965 52.0337 8.61451 52.187 8.57595C52.6584 8.45753 52.2788 8.34116 50.9597 8.19952C50.2866 8.12712 49.7362 8.02732 49.7362 7.97739C49.7362 7.86904 51.6226 7.88924 52.4252 8.00636C52.738 8.05184 53.4362 8.11287 53.9766 8.14184L54.9591 8.19431L54.1317 8.05136C51.6505 7.62267 46.334 7.46287 42.9101 7.7139ZM52.7812 41.419C52.7494 41.4704 52.8423 41.5126 52.9878 41.5126C53.3048 41.5126 53.3304 41.4536 53.0457 41.3792C52.9322 41.3494 52.813 41.3673 52.7812 41.419Z" fill="#E1E1E1"/>
<path fill-rule="evenodd" clip-rule="evenodd" d="M55.7863 3.65918C55.8214 3.71606 55.9665 3.7626 56.1087 3.7626C56.2548 3.7626 56.3396 3.71761 56.3034 3.65918C56.2682 3.6023 56.1232 3.55576 55.981 3.55576C55.8349 3.55576 55.7501 3.60074 55.7863 3.65918ZM62.731 5.15625C62.6604 5.34008 62.7499 5.62425 62.8783 5.62425C63.2486 5.62425 63.3528 8.42369 63.6975 27.6418C63.8097 33.8855 63.765 33.4703 64.3465 33.659C64.746 33.7883 66.3105 34.3977 67.3929 34.8453C68.076 35.1279 67.8337 35.2037 66.2466 35.2037C64.6903 35.2037 64.5257 35.2497 64.5257 35.6841C64.5257 35.8116 64.415 36.0445 64.28 36.2018L64.0344 36.4872L63.3234 36.1627C62.9321 35.9843 62.24 35.7154 61.7849 35.5649C60.5459 35.1559 60.3411 35.0105 60.3168 34.5231C60.2441 33.0597 60.0549 27.0742 59.9752 23.7236C59.9235 21.5336 59.834 18.2291 59.7766 16.3804C59.7195 14.5317 59.6642 12.2047 59.6544 11.2092C59.6308 8.87178 59.7399 9.03678 57.9453 8.63054C56.562 8.31719 56.4309 8.37972 57.7514 8.72335C58.377 8.88602 59.01 9.06595 59.1579 9.12308L59.4268 9.22732L59.4987 11.0714C59.5718 12.9473 59.6942 17.5297 59.8723 25.0681C59.9266 27.3718 60.0155 30.2088 60.0696 31.3723C60.1236 32.5356 60.1655 33.5129 60.1625 33.5442C60.1596 33.5753 60.1629 33.9292 60.1697 34.331L60.1818 35.0615L60.7026 35.2888C60.989 35.4139 61.7449 35.7081 62.3822 35.9427C63.0195 36.1772 63.6434 36.4362 63.7686 36.5182C63.9723 36.6519 64.0261 36.6449 64.2875 36.4518L64.5789 36.2362L65.2504 36.4869C67.4797 37.319 68.2264 37.6267 69.3864 38.1916C71.1761 39.063 71.7281 39.3846 73.2131 40.4222C74.0597 41.0135 74.5261 41.3779 75.385 42.1184C76.5398 43.1139 76.5227 43.0875 76.5227 43.8989C76.5227 45.112 76.7357 46.7105 76.9357 46.9941C77.1795 47.3406 77.9802 48.8964 78.2138 49.4763C78.5357 50.2781 78.609 50.4492 78.7754 50.7978C79.009 51.2875 78.8172 51.4253 78.424 51.0496C77.9946 50.639 76.9898 49.89 76.8692 49.89C76.8138 49.89 76.3528 49.6025 75.8439 49.2511C74.0097 47.9826 73.4535 47.6327 72.3343 47.0412C71.7083 46.7107 71.0336 46.3409 70.8343 46.2197C70.6357 46.0987 70.2165 45.8918 69.9035 45.7605C69.5912 45.6289 69.0371 45.3642 68.6727 45.1718C68.3089 44.9794 67.9539 44.8222 67.8841 44.8222C67.8146 44.8222 67.495 44.7061 67.1741 44.5642C66.3094 44.1817 64.9068 43.6977 63.8534 43.4179C63.3414 43.2819 62.8393 43.1219 62.7375 43.0622C62.6355 43.0025 62.3098 42.9039 62.0135 42.8431C61.7172 42.7824 61.3117 42.695 61.1127 42.6487C58.826 42.1174 54.6204 41.4963 53.5203 41.5273C53.0753 41.54 53.1221 41.5553 53.8212 41.6261C56.8366 41.9315 58.1022 42.1329 60.9058 42.7527C61.4462 42.8721 62.015 42.9965 62.1697 43.0293C62.6244 43.1253 62.5875 44.1042 62.0942 45.0327C62.0173 45.1767 61.8544 45.7119 61.7319 46.222C61.6096 46.7319 61.4677 47.2889 61.417 47.4595C61.1731 48.2776 60.8024 49.9306 60.8024 50.1982C60.8024 50.3634 60.7612 50.5238 60.7108 50.5548C60.6604 50.586 60.5966 50.7399 60.5686 50.8971C60.5407 51.0543 60.4368 51.5318 60.3377 51.9585C60.2384 52.3851 60.1164 52.932 60.0662 53.1738C59.945 53.7578 59.8017 54.3996 59.6797 54.9061C59.5631 55.3894 59.2624 56.7926 59.1479 57.3883C59.1039 57.6158 58.9402 58.407 58.7838 59.1465C58.6273 59.886 58.4631 60.7005 58.4187 60.9564C58.3742 61.2124 58.287 61.7011 58.2253 62.0424C58.1632 62.3837 58.005 63.2659 57.8734 64.0025C57.6194 65.4254 57.5135 65.5252 57.3725 64.4729C57.3307 64.16 57.221 63.5084 57.1288 63.0249C57.0364 62.5414 56.9229 61.9131 56.8764 61.6287C56.7184 60.6624 56.4523 59.252 56.3104 58.6294C56.2325 58.2881 56.1141 57.7296 56.0474 57.3883C55.9807 57.047 55.8864 56.6049 55.8377 56.4057C55.7891 56.2066 55.6257 55.4388 55.475 54.6992C55.324 53.9598 55.1618 53.1918 55.1142 52.9927C55.067 52.7936 54.9059 52.0955 54.7567 51.4414C54.6075 50.7872 54.4449 50.0891 54.3955 49.89C54.3458 49.6909 54.2514 49.272 54.1855 48.9592C53.8913 47.5655 53.7372 46.9297 53.6531 46.7627C53.6032 46.6639 53.5627 46.4832 53.5627 46.3612C53.5627 46.2388 53.5125 45.9475 53.451 45.7132C53.3897 45.4792 53.2909 45.1014 53.2317 44.8739C53.1725 44.6464 53.0647 44.3206 52.992 44.1499C52.5845 43.1943 52.3329 41.5126 52.5975 41.5126C52.6921 41.5126 52.743 41.4859 52.7104 41.4531C52.5814 41.3241 47.0583 41.2988 44.6751 41.4164L42.1479 41.5408L41.8493 41.2064L41.5506 40.8721L41.5662 38.3742C41.5747 37.0002 41.5781 35.7131 41.5736 35.514L41.5656 35.152L40.4536 35.1864C39.0863 35.2285 39.2215 35.0478 39.0866 37.0136C39.024 37.9238 38.9329 38.9709 38.8849 39.3407C38.6966 40.7796 38.4086 44.8514 38.0505 51.1311C37.997 52.0696 37.9078 53.4892 37.8525 54.2855C37.7971 55.0819 37.7185 56.257 37.6777 56.897C37.5905 58.2653 37.6427 58.2327 36.8596 57.4085C35.2433 55.7074 33.8122 54.8252 28.6373 52.3396C28.04 52.0529 27.2558 51.6402 26.8943 51.423C26.5331 51.2055 26.2115 51.0277 26.1796 51.0277C26.0876 51.0277 25.0079 50.194 24.5096 49.7385C23.1131 48.4614 23.0922 46.1134 24.4644 44.741C25.0086 44.197 26.309 43.4777 26.7483 43.4777C26.8542 43.4777 26.9965 43.4223 27.0642 43.3546C27.2346 43.1842 30.9341 43.1922 31.8952 43.3646C33.4998 43.653 34.9659 44.107 36.1167 44.672C36.9868 45.0991 37.1194 44.9375 37.394 43.1157C37.4284 42.8881 37.4886 42.6555 37.5285 42.5986C37.568 42.5417 37.6826 42.0995 37.7829 41.616C37.8832 41.1325 38.0076 40.6301 38.0588 40.4993C38.1102 40.3688 38.1524 40.1546 38.1524 40.0236C38.1524 39.8925 38.2687 39.3149 38.411 38.7403C38.9125 36.7124 38.8314 36.421 37.6257 35.9235C34.548 34.6532 29.1901 34.1451 25.638 34.7864C24.9269 34.9149 24.1934 35.0431 24.008 35.0716C23.8226 35.1 23.6455 35.1646 23.6142 35.2151C23.5829 35.2657 23.4562 35.3071 23.3329 35.3071C22.7255 35.3071 19.6236 36.7214 18.7616 37.3914C17.9119 38.0518 17.0566 38.8112 16.6638 39.2543C16.3946 39.5579 16.1082 39.8759 16.0267 39.9612C15.839 40.158 14.9853 41.4741 14.9853 41.5664C14.9853 41.6046 14.9012 41.7592 14.7983 41.9103C13.6265 43.6305 12.9995 47.8153 13.5481 50.252C13.6635 50.764 13.7835 51.3113 13.8147 51.4685C13.8457 51.6257 13.9125 51.7796 13.9629 51.8109C14.0133 51.8419 14.0547 51.9461 14.0549 52.0422C14.0555 52.2925 14.774 53.6779 15.3622 54.563C16.0156 55.546 18.0101 57.5511 19.107 58.3279C20.0683 59.0087 20.9681 59.6119 21.0221 59.6119C21.0418 59.6119 21.4483 59.8351 21.9258 60.1079C22.7825 60.597 23.4374 60.9254 24.4486 61.3724C28.9026 63.3414 30.4377 64.8899 30.4444 67.4205C30.4532 70.8637 27.217 72.3726 21.4493 71.6144C19.8899 71.4089 17.7875 70.9144 17.002 70.5685C16.8883 70.5185 16.5392 70.3794 16.2264 70.2596C15.9135 70.1397 15.5096 69.9719 15.3289 69.8863C14.564 69.5246 14.5206 69.6007 14.049 72.126C13.9908 72.439 13.9011 72.9048 13.8501 73.1603C13.7992 73.4164 13.6338 74.2541 13.4827 75.0219C13.3315 75.7904 13.1647 76.6281 13.1122 76.8835C12.8619 78.1048 12.8668 78.1972 13.1888 78.3623C13.7617 78.6562 15.5592 79.3431 16.0712 79.4637C16.3556 79.5308 16.7512 79.6267 16.9503 79.676C18.0477 79.95 18.9231 80.1109 20.8564 80.3938C22.6159 80.6514 26.3436 80.5171 28.3788 80.124C29.1572 79.974 29.5068 79.889 30.8371 79.5288C31.1368 79.4472 31.7421 79.215 32.1819 79.0116C32.622 78.8082 33.0096 78.6418 33.0434 78.6418C33.2415 78.6418 35.2396 77.3671 35.9313 76.7993C35.9898 76.7514 36.1718 76.624 36.3357 76.5164L36.6341 76.3212L36.5459 77.5589C36.4973 78.2397 36.4549 79.0534 36.4518 79.3657L36.4459 79.9349L40.6633 79.9616C43.984 79.9829 44.89 79.9609 44.9249 79.8582C44.9771 79.7048 45.1636 76.1664 45.2967 72.7986C45.397 70.2541 45.5323 67.1006 45.6912 63.5938C45.7453 62.3992 45.841 60.0954 45.9038 58.4742C45.9666 56.8531 46.0634 54.8053 46.1189 53.9235C46.1745 53.0418 46.2249 51.506 46.2312 50.5105C46.2469 47.8748 46.4507 46.6184 46.6469 47.9475C46.6828 48.191 46.7679 48.7394 46.8362 49.166C46.9044 49.5927 46.9975 50.1744 47.0427 50.4588C47.2209 51.5753 47.5824 53.4744 47.6742 53.7757C47.7275 53.9505 47.7709 54.2264 47.7709 54.389C47.7709 54.5516 47.8156 54.8275 47.8704 55.0023C47.925 55.1768 48.1386 56.2041 48.3446 57.2848C48.5507 58.3657 48.7573 59.3896 48.8033 59.5602C48.8496 59.7309 48.9636 60.2195 49.0567 60.6461C49.2803 61.6714 49.4187 62.2738 49.5312 62.7146C49.5821 62.9138 49.746 63.6351 49.896 64.3177C50.0457 65.0003 50.2107 65.6398 50.2624 65.7386C50.3141 65.8373 50.3562 66.0002 50.3557 66.1005C50.3549 66.2548 50.5548 67.1249 50.9794 68.8164C51.0292 69.0157 51.1901 69.7137 51.3367 70.3678C51.4833 71.0219 51.6449 71.7205 51.6961 71.9192C51.747 72.1185 51.9573 73.0027 52.1631 73.8842C52.3686 74.7664 52.5796 75.6507 52.6313 75.8493C52.683 76.0486 52.7466 76.3281 52.7725 76.4698C52.8925 77.1308 53.2803 78.6164 53.393 78.8486L53.519 79.1075H57.0201C60.8983 79.1075 60.5821 79.1685 60.7871 78.3836C61.1214 77.1034 61.3694 76.124 61.5336 75.4356C61.6355 75.0096 61.8425 74.1945 61.9938 73.626C62.1453 73.0568 62.3085 72.4288 62.3563 72.2294C62.4042 72.0308 62.489 71.7048 62.5446 71.5055C62.6001 71.3068 62.7442 70.7479 62.8649 70.2644C63.1747 69.0212 63.2492 68.7363 63.4304 68.0927C63.7557 66.939 63.9289 66.2725 64.0086 65.8691C64.0536 65.6416 64.1639 65.1994 64.2539 64.8866C64.3439 64.5737 64.4934 63.992 64.5862 63.5938C64.6787 63.1956 64.7902 62.7767 64.8336 62.6629C64.9094 62.4649 65.2912 60.9914 65.464 60.2324C65.5092 60.0333 65.5964 59.6843 65.6579 59.4568C65.7194 59.2292 65.8133 58.8569 65.8663 58.6294C65.9544 58.2514 66.1285 57.5411 66.3981 56.4575C66.4548 56.2299 66.544 55.8343 66.596 55.5783C66.6482 55.3224 66.8124 54.6242 66.9608 54.027C67.1092 53.4297 67.2734 52.7316 67.3256 52.4756C67.4254 51.9856 67.5027 51.6405 67.7786 50.4588C67.8717 50.0607 67.9888 49.5022 68.0395 49.2177C68.5617 46.2753 68.6336 46.6595 68.7042 52.7548C68.7377 55.7014 68.8083 59.2292 68.861 60.5944C68.9138 61.9596 69.0042 64.3333 69.0624 65.8691C69.1206 67.405 69.196 69.1267 69.2295 69.6959C69.2638 70.2644 69.3425 72.1493 69.4055 73.8842C69.4686 75.6192 69.548 77.6904 69.5829 78.487L69.6453 79.9349L74.0343 79.9616C77.3384 79.9822 78.4412 79.9582 78.4987 79.8657C78.5836 79.7281 78.5343 77.8281 78.3843 75.4876C78.3295 74.6342 78.2138 72.424 78.1268 70.5746C78.0405 68.726 77.9227 66.6551 77.8658 65.9725C77.809 65.2899 77.7624 64.3661 77.7631 63.9193C77.7638 63.4727 77.7179 62.4488 77.661 61.644C77.6049 60.8393 77.4891 58.7845 77.4035 57.078C77.3179 55.3715 77.196 53.3237 77.1329 52.5273C77.0699 51.7309 77.035 50.8744 77.0549 50.6238L77.0919 50.1682L77.9014 50.8125C79.0932 51.7609 79.3117 51.5223 78.5788 50.0723C78.5288 49.9735 78.4877 49.8455 78.4877 49.7873C78.4877 49.7294 78.3713 49.4409 78.2295 49.1461C78.0871 48.8514 77.9706 48.5755 77.9706 48.5331C77.9706 48.4614 77.6275 47.8611 77.0905 46.9941C76.7925 46.5124 76.3569 41.4092 76.6145 41.4092C76.8172 41.4092 78.5966 43.7649 79.1145 44.7188C79.2535 44.9747 79.3973 45.2075 79.4336 45.2359C79.5117 45.2964 80.3514 46.9607 80.6083 47.5629C80.911 48.2732 80.9973 48.4323 81.2001 48.6494C81.3076 48.7655 81.4398 48.8333 81.4932 48.8001C81.5535 48.7632 81.5905 42.6883 81.5905 32.9242V17.1083L81.8494 17.0434C82.1234 16.9746 82.2069 16.7941 81.9638 16.7941C81.8843 16.7941 81.7843 16.7127 81.7405 16.6131C81.5384 16.1503 81.511 18.0031 81.4994 32.8508C81.4918 42.7384 81.4508 48.6489 81.3891 48.6489C81.3014 48.6489 81.1145 48.2921 80.4939 46.9424C79.6953 45.2044 77.1158 41.3347 76.611 41.1183C76.5699 41.1005 76.172 40.7276 75.7281 40.2899C74.3501 38.9322 71.1864 36.5482 70.7624 36.5482C70.7254 36.5482 70.622 36.4828 70.5323 36.4029C70.4425 36.323 69.911 36.0236 69.3507 35.7376C68.7905 35.4516 68.2554 35.1533 68.1613 35.0744C68.0675 34.9958 67.6646 34.8011 67.2664 34.6421C66.8682 34.4831 66.4028 34.2941 66.2322 34.2222C66.0615 34.1503 65.4934 33.9406 64.9696 33.756L64.0173 33.4204L63.9659 32.9933C63.9377 32.7585 63.887 30.9607 63.8534 28.9982C63.8198 27.0357 63.7494 23.5917 63.697 21.3448C63.6444 19.0979 63.5752 15.3746 63.5431 13.0708C63.4836 8.78979 63.3518 6.13878 63.1695 5.55495C63.0389 5.13686 62.8163 4.93415 62.731 5.15625ZM55.5277 8.26547C56.4037 8.44595 56.8003 8.43767 55.9931 8.25534C55.6518 8.17856 55.2562 8.11808 55.114 8.12116C54.9718 8.12431 55.1579 8.18917 55.5277 8.26547ZM32.3924 34.7967C33.5846 34.9733 34.85 35.213 35.4634 35.3785C35.7762 35.4628 36.1718 35.5696 36.3425 35.6156C38.5699 36.2159 38.8275 36.5694 38.3502 38.3708C38.2315 38.8189 38.0927 39.4183 38.0417 39.7027C37.9907 39.9871 37.899 40.4292 37.8382 40.6852C37.7772 40.9412 37.6898 41.3368 37.6435 41.5643C37.5975 41.7918 37.4651 42.327 37.349 42.7537C37.2329 43.1803 37.1049 43.7388 37.0643 43.9948C36.9555 44.6831 36.8456 44.8496 36.5909 44.7133C32.9555 42.7677 27.534 42.4838 24.9675 44.1046C22.7261 45.5203 22.7067 48.6859 24.9295 50.367C25.5816 50.8601 27.3926 51.9024 28.6373 52.5009C32.2103 54.2188 32.6158 54.4321 34.0578 55.3539C35.301 56.1485 35.9207 56.6483 36.8233 57.5843C37.7216 58.5153 37.8023 58.4818 37.8286 57.1654C37.8398 56.6053 37.9173 55.3345 38.0006 54.3411C38.0841 53.348 38.1521 52.2077 38.1516 51.8072C38.1511 51.407 38.1974 50.5209 38.2542 49.8383C38.3859 48.2623 38.5286 46.1344 38.6703 43.6328C38.8709 40.0884 38.9464 39.6282 39.1186 40.892C39.387 42.8592 39.8302 45.2896 39.9323 45.3527C40.0003 45.3949 40.1979 45.4053 40.3711 45.3763C40.5446 45.347 40.919 45.2832 41.2034 45.2343C41.4878 45.1852 42.3023 45.0725 43.0133 44.9836C43.7244 44.8946 44.6552 44.7775 45.0818 44.7231C47.7569 44.3821 52.6435 44.153 52.894 44.3568C52.9641 44.4137 53.0939 44.8092 53.1823 45.2359C53.271 45.6625 53.4641 46.5003 53.6115 47.0975C53.7589 47.6948 53.9223 48.3929 53.9745 48.6489C54.0899 49.2149 54.1775 49.596 54.5452 51.1311C54.8658 52.4696 54.8829 52.5462 55.2555 54.3372C55.4031 55.0483 55.6205 56.0722 55.7379 56.6126C55.8555 57.153 56.0469 58.0838 56.163 58.6811C56.2791 59.2783 56.4826 60.3255 56.6152 61.0081C56.7479 61.6907 56.9103 62.6216 56.9762 63.0766C57.0421 63.5317 57.1388 64.0724 57.191 64.2779C57.2433 64.4838 57.2859 64.8178 57.2859 65.0205C57.2859 65.8327 57.6965 65.8675 57.8214 65.066C58.0267 63.7463 58.1012 63.3222 58.3065 62.3009C58.4264 61.7037 58.5756 60.959 58.6377 60.6461C58.6997 60.3333 58.7903 59.8912 58.8386 59.6636C59.0514 58.6623 59.2375 57.7567 59.3495 57.1814C59.5747 56.022 59.9804 54.1834 60.0812 53.8646C60.1366 53.6898 60.1818 53.4475 60.1818 53.3263C60.1818 53.205 60.2234 52.999 60.2741 52.8683C60.3248 52.7375 60.4429 52.2584 60.5366 51.8033C60.6299 51.3483 60.7491 50.8131 60.8016 50.614C60.8538 50.4148 61.0635 49.5539 61.2673 48.7006C61.4707 47.8474 61.6781 47.0096 61.7275 46.839C61.7769 46.6683 61.8764 46.2727 61.9488 45.9599C62.1477 45.0996 62.1549 45.096 63.29 45.3313C67.1025 46.122 71.0186 47.5032 74.8549 49.4106C77.1042 50.5286 76.8939 50.1845 77.0432 52.9927C77.1083 54.2157 77.2049 56.0076 77.2583 56.9746C77.311 57.9416 77.3987 59.6171 77.4528 60.6979C77.5062 61.7787 77.5987 63.5007 77.6576 64.5246C77.7549 66.2127 77.8795 68.5801 78.1877 74.5568C78.3966 78.6068 78.4357 79.6973 78.372 79.7356C78.3254 79.7651 71.4829 79.802 69.8781 79.7822C69.7172 79.7801 69.6966 79.6596 69.6973 78.7198C69.698 78.1363 69.6302 76.0541 69.5466 74.0911C69.4638 72.1287 69.3466 69.1733 69.287 67.5239C69.2268 65.8743 69.1323 63.4774 69.0761 62.1975C68.9213 58.6531 68.7631 52.2877 68.7645 49.6635C68.7658 48.364 68.724 47.2907 68.672 47.2583C68.5199 47.1645 68.249 47.3127 68.249 47.4898C68.249 47.5797 68.1827 47.9353 68.1021 48.2802C67.9425 48.9609 67.6118 50.4454 67.3636 51.5965C67.2778 51.9947 67.1594 52.5299 67.1004 52.7859C67.0414 53.0418 66.952 53.4375 66.9016 53.665C66.7136 54.5105 66.2816 56.301 65.8657 57.9571C65.63 58.8957 65.3975 59.8498 65.3492 60.0773C65.2106 60.7279 64.9114 61.887 64.6154 62.9215C64.5585 63.1206 64.474 63.4464 64.4279 63.6455C64.3512 63.9751 63.5847 66.9153 63.2142 68.2996C63.1307 68.6123 63.0247 69.0315 62.979 69.2301C62.8957 69.5924 62.1549 72.45 61.6652 74.2979C61.522 74.8383 61.3663 75.4671 61.3192 75.6945C61.0563 76.965 60.5001 78.887 60.3765 78.95C60.2979 78.9904 58.7223 79.0192 56.8751 79.0137L53.5164 79.0041L53.3305 78.2281C53.2281 77.802 53.0944 77.2198 53.0329 76.9356C52.8581 76.1253 52.772 75.7589 52.5346 74.8151C52.3192 73.9582 52.1954 73.4349 52.0084 72.5918C51.7979 71.6418 51.3718 69.8801 51.2814 69.5849C51.2278 69.4103 51.1839 69.1678 51.1839 69.0466C51.1839 68.9253 51.1405 68.7192 51.0877 68.589C51.0347 68.4581 50.8692 67.8161 50.7198 67.1619C50.5703 66.5077 50.3513 65.5769 50.2329 65.0934C50.1144 64.6099 49.9808 64.0281 49.9363 63.8006C49.8916 63.5731 49.805 63.2007 49.7437 62.9732C49.625 62.5318 49.1472 60.4549 49.0063 59.767C48.9597 59.5395 48.8018 58.7949 48.6554 58.1123C48.509 57.4296 48.3431 56.6152 48.2864 56.3023C48.2298 55.9894 48.1416 55.524 48.0902 55.2681C48.039 55.0121 47.9477 54.5307 47.8877 54.1979C47.8275 53.8654 47.7536 53.5145 47.7228 53.4181C47.6923 53.3216 47.6227 52.9188 47.5684 52.5229C47.5141 52.1273 47.4003 51.4776 47.3158 51.0794C47.1824 50.4503 47.0319 49.5551 46.7514 47.7191C46.6999 47.3825 46.6275 47.2444 46.4881 47.2175C46.1673 47.1557 46.1192 47.3951 46.1189 49.0626C46.1186 49.9443 46.0701 51.6663 46.0108 52.8893C45.7794 57.6751 45.6951 59.5602 45.5945 62.1975C45.5371 63.7049 45.442 65.9157 45.3833 67.1102C45.3246 68.3048 45.2372 70.3527 45.1891 71.6609C45.0138 76.4445 44.8476 79.6274 44.7677 79.7281C44.5846 79.9596 36.5449 79.7561 36.5816 79.5212C36.5994 79.4075 36.646 78.6671 36.6851 77.876C36.7737 76.0835 36.7127 75.9411 36.0963 76.4986C35.3703 77.1541 33.5016 78.315 32.5977 78.6719C32.3583 78.7664 31.9627 78.9363 31.7185 79.05C31.4745 79.163 31.0186 79.3253 30.7058 79.4096C30.3929 79.4938 29.8809 79.6349 29.5681 79.7226C26.3423 80.6287 21.5357 80.6013 17.5709 79.6534C16.8598 79.4835 16.1263 79.3205 15.9409 79.2918C15.7555 79.2637 15.5784 79.1979 15.5471 79.1479C15.5158 79.0972 15.4201 79.0555 15.3346 79.0555C15.249 79.0555 14.9245 78.9397 14.6137 78.7972C14.3027 78.6548 13.9825 78.5383 13.9024 78.5383C13.822 78.5383 13.7276 78.4918 13.6925 78.4349C13.6572 78.3781 13.5404 78.3315 13.4329 78.3315C12.9755 78.3315 12.9418 78.5788 14.3672 71.4541C14.4128 71.2267 14.4937 70.7952 14.5472 70.4952C14.601 70.1952 14.674 69.9205 14.7098 69.8849C14.7626 69.8322 15.6699 70.1685 17.4157 70.8877C17.5295 70.9349 17.7389 70.9966 17.8812 71.0253C18.0233 71.0541 18.768 71.2178 19.5359 71.3883C24.9675 72.5972 29.1259 71.7911 30.2636 69.3082C31.4318 66.7591 30.055 63.9868 26.8274 62.3894C26.6567 62.3051 26.2611 62.0933 25.9483 61.919C25.6354 61.7448 25.0143 61.4508 24.5683 61.2657C23.8342 60.9611 23.2342 60.6521 21.3542 59.6106C15.99 56.6392 12.9736 51.7444 13.5324 46.9176C14.2238 40.9414 17.5057 37.2044 23.7246 35.3115C24.0271 35.2194 25.2163 34.9906 26.362 34.804C27.1759 34.6711 31.5104 34.6662 32.3924 34.7967Z" fill="#9B9B9B"/>
</g>
<defs>
<clipPath id="clip0_16_7133">
<rect width="96.5753" height="100" fill="white"/>
</clipPath>
</defs>
</svg>
