<svg width="50" height="50" viewBox="0 0 50 50" fill="none" xmlns="http://www.w3.org/2000/svg">
<circle cx="25" cy="25" r="24.5" fill="#1DC0AD" fill-opacity="0.1" stroke="#1DC0AD"/>
<g clip-path="url(#clip0_302_6)">
<path d="M29.5832 16.5974C28.6448 16.612 27.7269 16.874 26.9222 17.3568C26.1174 17.8397 25.4543 18.5263 24.9999 19.3474C24.5454 18.5263 23.8823 17.8397 23.0776 17.3568C22.2728 16.874 21.3549 16.612 20.4165 16.5974C18.9207 16.6624 17.5113 17.3168 16.4964 18.4176C15.4814 19.5184 14.9434 20.9762 14.9999 22.4724C14.9999 26.2616 18.9882 30.3999 22.3332 33.2057C23.0801 33.8334 24.0243 34.1774 24.9999 34.1774C25.9754 34.1774 26.9197 33.8334 27.6665 33.2057C31.0115 30.3999 34.9999 26.2616 34.9999 22.4724C35.0563 20.9762 34.5183 19.5184 33.5034 18.4176C32.4885 17.3168 31.0791 16.6624 29.5832 16.5974ZM26.5957 31.9307C26.149 32.3069 25.5838 32.5132 24.9999 32.5132C24.4159 32.5132 23.8507 32.3069 23.404 31.9307C19.1224 28.3382 16.6665 24.8916 16.6665 22.4724C16.6096 21.418 16.9719 20.3839 17.6744 19.5955C18.3768 18.8071 19.3626 18.3285 20.4165 18.2641C21.4705 18.3285 22.4562 18.8071 23.1587 19.5955C23.8612 20.3839 24.2235 21.418 24.1665 22.4724C24.1665 22.6934 24.2543 22.9054 24.4106 23.0617C24.5669 23.2179 24.7789 23.3057 24.9999 23.3057C25.2209 23.3057 25.4329 23.2179 25.5891 23.0617C25.7454 22.9054 25.8332 22.6934 25.8332 22.4724C25.7762 21.418 26.1385 20.3839 26.841 19.5955C27.5435 18.8071 28.5292 18.3285 29.5832 18.2641C30.6372 18.3285 31.6229 18.8071 32.3254 19.5955C33.0279 20.3839 33.3902 21.418 33.3332 22.4724C33.3332 24.8916 30.8774 28.3382 26.5957 31.9274V31.9307Z" fill="#1DC0AD"/>
</g>
<defs>
<clipPath id="clip0_302_6">
<rect width="20" height="20" fill="white" transform="translate(15 15)"/>
</clipPath>
</defs>
</svg>
