<svg width="300" height="364" viewBox="0 0 300 364" fill="none" xmlns="http://www.w3.org/2000/svg">
<path d="M63.048 255.744C113.448 281.508 195.162 281.508 245.556 255.744C295.95 229.98 295.956 188.196 245.556 162.432C195.156 136.668 113.448 136.632 63.048 162.432C12.648 188.232 12.648 229.974 63.048 255.744Z" fill="#F5F5F5"/>
<path d="M90.942 255C90.1753 255.01 89.419 254.822 88.746 254.454L69.402 243.288C68.9703 243.076 68.6068 242.747 68.3525 242.339C68.0983 241.93 67.9635 241.459 67.9635 240.978C67.9635 240.497 68.0983 240.026 68.3525 239.617C68.6068 239.209 68.9703 238.88 69.402 238.668L123.906 207.216L113.268 201.072C111.72 200.178 111.852 198.924 111.93 198.564C112.008 198.204 112.398 197.004 114.18 196.824L172.614 190.866H173.01C173.645 190.86 174.271 191.014 174.831 191.316C175.39 191.617 175.864 192.054 176.208 192.588C176.348 192.808 176.439 193.055 176.474 193.313C176.509 193.571 176.488 193.833 176.412 194.082L166.2 227.4C166.031 228.015 165.664 228.558 165.157 228.944C164.65 229.331 164.03 229.541 163.392 229.542C162.848 229.539 162.315 229.394 161.844 229.122L149.412 221.922L93.144 254.4C92.475 254.789 91.7158 254.996 90.942 255Z" fill="#E0E0E0"/>
<path d="M242.046 231.168C257.779 231.168 270.534 224.235 270.534 215.682C270.534 207.129 257.779 200.196 242.046 200.196C226.312 200.196 213.558 207.129 213.558 215.682C213.558 224.235 226.312 231.168 242.046 231.168Z" fill="#E0E0E0"/>
<path d="M250.8 199.974C250.8 199.974 251.052 194.112 253.626 189.39C256.2 184.668 259.98 181.59 263.67 181.02C267.36 180.45 270.594 183.666 266.79 186.288C262.986 188.91 256.104 191.802 253.476 200.802L250.8 199.974Z" fill="#1DC0AD"/>
<path opacity="0.15" d="M250.8 199.974C250.8 199.974 251.052 194.112 253.626 189.39C256.2 184.668 259.98 181.59 263.67 181.02C267.36 180.45 270.594 183.666 266.79 186.288C262.986 188.91 256.104 191.802 253.476 200.802L250.8 199.974Z" fill="black"/>
<path d="M251.778 198.39H251.736C251.711 198.382 251.688 198.369 251.668 198.352C251.648 198.335 251.632 198.314 251.62 198.29C251.609 198.267 251.602 198.241 251.6 198.215C251.598 198.189 251.602 198.163 251.61 198.138C254.844 188.22 262.014 183.672 265.356 182.652C265.381 182.644 265.407 182.641 265.433 182.643C265.459 182.645 265.484 182.653 265.508 182.665C265.531 182.677 265.551 182.694 265.567 182.715C265.583 182.735 265.595 182.759 265.602 182.784C265.617 182.834 265.612 182.888 265.587 182.934C265.562 182.98 265.52 183.015 265.47 183.03C262.2 184.032 255.174 188.502 251.988 198.264C251.971 198.304 251.941 198.338 251.903 198.361C251.866 198.383 251.822 198.394 251.778 198.39Z" fill="white"/>
<path d="M271.698 197.094C271.398 197.928 270.552 198.408 269.754 198.792C268.956 199.176 268.098 199.596 267.708 200.388C266.928 201.99 268.542 204.048 267.708 205.614C267.504 205.924 267.239 206.191 266.93 206.397C266.621 206.603 266.273 206.745 265.908 206.814C265.308 206.97 264.708 207.012 264.072 207.108C263.778 207.123 263.484 207.123 263.19 207.108C262.321 206.974 261.433 207.132 260.664 207.558C259.464 208.332 259.224 209.898 258.564 211.158C258.154 211.893 257.59 212.53 256.911 213.026C256.232 213.523 255.453 213.866 254.628 214.032C253.929 214.224 253.191 214.224 252.492 214.032L252.366 213.966C252.283 213.891 252.205 213.811 252.132 213.726V213.69C251.856 212.91 252.132 212.052 252.132 211.23C252.135 211.18 252.135 211.13 252.132 211.08C252.03 210.126 251.94 209.178 251.85 208.224C251.682 206.464 251.54 204.706 251.424 202.95C251.358 201.804 251.13 200.55 251.538 199.452C251.988 198.252 253.338 198.114 253.74 196.92C253.908 196.44 253.98 195.936 254.142 195.456C254.391 194.756 254.825 194.137 255.399 193.665C255.973 193.194 256.665 192.888 257.4 192.78C259.716 192.492 261.936 194.232 264.24 193.896C264.834 193.772 265.421 193.616 265.998 193.428C267.852 192.948 270.066 193.326 271.236 194.844C271.495 195.151 271.673 195.517 271.754 195.91C271.834 196.303 271.815 196.71 271.698 197.094Z" fill="#1DC0AD"/>
<g opacity="0.07">
<path opacity="0.07" d="M271.698 197.094C271.398 197.928 270.552 198.408 269.754 198.792C268.956 199.176 268.098 199.596 267.708 200.388C266.928 201.99 268.542 204.048 267.708 205.614C267.504 205.924 267.239 206.191 266.93 206.397C266.621 206.603 266.273 206.745 265.908 206.814C265.307 206.969 264.692 207.068 264.072 207.108C263.778 207.123 263.484 207.123 263.19 207.108C262.321 206.974 261.433 207.132 260.664 207.558C259.464 208.332 259.224 209.898 258.564 211.158C258.154 211.893 257.59 212.53 256.911 213.026C256.232 213.523 255.453 213.866 254.628 214.032C253.929 214.224 253.191 214.224 252.492 214.032L252.366 213.966C252.329 213.949 252.297 213.925 252.27 213.894C252.214 213.847 252.167 213.79 252.132 213.726V213.69C251.772 213.054 252.132 211.944 252.132 211.23C252.135 211.18 252.135 211.13 252.132 211.08C252.03 210.126 251.94 209.178 251.85 208.224C251.682 206.464 251.54 204.706 251.424 202.95C251.358 201.804 251.13 200.55 251.538 199.452C251.988 198.252 253.338 198.114 253.74 196.92C253.908 196.44 253.98 195.936 254.142 195.456C254.391 194.756 254.825 194.137 255.399 193.665C255.973 193.194 256.665 192.888 257.4 192.78C259.716 192.492 261.936 194.232 264.24 193.896C264.834 193.772 265.421 193.616 265.998 193.428C267.852 192.948 270.066 193.326 271.236 194.844C271.495 195.151 271.673 195.517 271.754 195.91C271.834 196.303 271.815 196.71 271.698 197.094Z" fill="#263238"/>
</g>
<path d="M251.634 210.042C251.583 210.03 251.538 210 251.509 209.956C251.48 209.913 251.469 209.86 251.478 209.808C253.8 197.538 266.4 194.904 269.4 194.91C269.452 194.91 269.503 194.931 269.54 194.968C269.577 195.005 269.598 195.055 269.598 195.108C269.598 195.16 269.577 195.211 269.54 195.248C269.503 195.285 269.452 195.306 269.4 195.306C266.484 195.306 254.19 197.88 251.88 209.886C251.876 209.913 251.866 209.94 251.851 209.963C251.836 209.986 251.816 210.006 251.793 210.02C251.769 210.035 251.743 210.045 251.716 210.049C251.688 210.052 251.66 210.05 251.634 210.042Z" fill="white"/>
<path d="M265.302 202.95C265.263 202.943 265.226 202.926 265.194 202.902C263.949 201.973 262.513 201.33 260.991 201.019C259.469 200.707 257.896 200.736 256.386 201.102C256.334 201.111 256.281 201.1 256.238 201.071C256.194 201.042 256.164 200.997 256.152 200.946C256.141 200.895 256.151 200.842 256.179 200.798C256.207 200.755 256.251 200.724 256.302 200.712C257.875 200.338 259.511 200.315 261.094 200.646C262.677 200.977 264.167 201.653 265.458 202.626C265.477 202.644 265.491 202.666 265.502 202.691C265.512 202.715 265.517 202.741 265.517 202.767C265.517 202.793 265.512 202.819 265.502 202.843C265.491 202.868 265.477 202.89 265.458 202.908C265.413 202.942 265.357 202.957 265.302 202.95Z" fill="white"/>
<path d="M91.878 39.06L86.556 42.132C86.5817 41.8988 86.5958 41.6645 86.598 41.43V39.888C86.598 37.146 84.672 36.03 82.296 37.404C81.2758 38.0337 80.4022 38.8746 79.734 39.87C79.344 36.42 76.638 35.136 73.356 37.032C69.798 39.084 66.918 44.076 66.918 48.18V50.484C66.8953 51.4038 67.082 52.3168 67.464 53.154L63.042 55.704C62.345 56.1557 61.7644 56.7655 61.3473 57.4838C60.9303 58.2021 60.6887 59.0087 60.642 59.838C60.642 61.362 61.71 61.974 63.042 61.218L91.878 44.568C92.5748 44.1175 93.1555 43.5089 93.5725 42.7915C93.9896 42.0742 94.2313 41.2684 94.278 40.44C94.26 38.916 93.192 38.298 91.878 39.06Z" fill="#EBEBEB"/>
<path d="M114 52.7639L110.1 55.0199C110.119 54.8485 110.129 54.6763 110.13 54.5039V53.3999C110.13 51.3899 108.72 50.5739 106.98 51.5999C106.23 52.0574 105.587 52.6714 105.096 53.3999C104.814 50.8739 102.828 49.9319 100.422 51.3239C99.049 52.2182 97.9064 53.4238 97.0869 54.8427C96.2675 56.2616 95.7944 57.8538 95.706 59.4899V61.1819C95.6893 61.8554 95.8246 62.524 96.102 63.1379L92.862 65.0099C92.3571 65.3392 91.9363 65.7819 91.6331 66.3028C91.33 66.8237 91.1529 67.4083 91.116 68.0099C91.116 69.1259 91.896 69.5759 92.862 69.0179L114 56.8079C114.509 56.4757 114.932 56.0282 115.235 55.5018C115.539 54.9753 115.714 54.3847 115.746 53.7779C115.728 52.6619 114.948 52.1999 114 52.7639Z" fill="#EBEBEB"/>
<path d="M175.038 185.034V189C174.996 190.48 174.779 191.951 174.39 193.38L164.724 224.982C164.619 225.371 164.387 225.713 164.064 225.954C163.783 226.159 163.447 226.273 163.1 226.283C162.753 226.293 162.411 226.197 162.12 226.008L149.442 218.688L92.886 251.34C92.2881 251.658 91.6192 251.819 90.942 251.808C90.2717 251.822 89.6088 251.665 89.016 251.352L70.956 240.918C70.3872 240.55 69.9134 240.053 69.5735 239.467C69.2336 238.881 69.0371 238.222 69 237.546V233.58C69.0314 232.899 69.2381 232.238 69.6 231.66C69.9308 231.064 70.4077 230.562 70.986 230.202L120.228 201.78L114.864 198.684C114.296 198.316 113.823 197.818 113.484 197.232C113.145 196.646 112.95 195.988 112.914 195.312V191.4C112.918 191.063 112.989 190.731 113.123 190.422C113.257 190.113 113.451 189.833 113.694 189.6C114.083 189.211 114.593 188.968 115.14 188.91L172.8 183C173.168 182.957 173.54 183.017 173.876 183.172C174.211 183.328 174.497 183.574 174.702 183.882C174.927 184.224 175.044 184.625 175.038 185.034Z" fill="#1DC0AD"/>
<path opacity="0.1" d="M90.942 243.99V251.79C90.2717 251.804 89.6088 251.647 89.016 251.334L70.956 240.9C70.3872 240.532 69.9134 240.035 69.5735 239.449C69.2336 238.863 69.0371 238.204 69 237.528V233.58C69.0314 232.899 69.2381 232.238 69.6 231.66L90.942 243.99Z" fill="black"/>
<path opacity="0.1" d="M127.506 197.562L120.198 201.762L114.834 198.666C114.266 198.296 113.794 197.797 113.455 197.21C113.116 196.623 112.92 195.965 112.884 195.288V191.4C112.887 191.063 112.957 190.73 113.091 190.421C113.225 190.112 113.42 189.832 113.664 189.6L127.506 197.562Z" fill="black"/>
<path opacity="0.1" d="M164.064 218.67V225.93C163.784 226.136 163.448 226.252 163.1 226.262C162.753 226.271 162.411 226.174 162.12 225.984L149.442 218.67V210.228L164.064 218.67Z" fill="black"/>
<path opacity="0.2" d="M149.442 210.228V218.67L92.886 251.316C92.2881 251.634 91.6192 251.795 90.942 251.784V243.984L149.442 210.228Z" fill="black"/>
<path opacity="0.2" d="M175.038 185.034V189C174.996 190.481 174.779 191.951 174.39 193.38L164.724 224.982C164.619 225.371 164.386 225.713 164.064 225.954V218.664L174.696 183.864C174.926 184.21 175.045 184.618 175.038 185.034Z" fill="black"/>
<path d="M224.934 65.022L207.786 55.122C207.621 52.0875 206.963 49.1003 205.836 46.278C209.252 45.8029 212.732 46.4048 215.79 48L216.168 48.222C221.094 51.066 224.328 56.856 224.934 65.022Z" fill="#1DC0AD"/>
<path opacity="0.3" d="M224.934 65.022L207.786 55.122C207.621 52.0875 206.963 49.1003 205.836 46.278C209.252 45.8029 212.732 46.4048 215.79 48L216.168 48.222C221.094 51.066 224.328 56.856 224.934 65.022Z" fill="black"/>
<path d="M222.426 67.584C222.235 67.538 222.033 67.5592 221.856 67.644L215.436 70.536C215.335 70.5848 215.224 70.6107 215.112 70.6117C214.999 70.6127 214.888 70.5888 214.786 70.5418C214.684 70.4948 214.593 70.4257 214.521 70.3397C214.449 70.2536 214.397 70.1526 214.368 70.044C214.116 69.234 209.718 68.298 209.358 67.602L211.8 61.476L222.426 67.584Z" fill="#455A64"/>
<path d="M211.83 61.494C211.744 61.4488 211.648 61.4251 211.551 61.4251C211.454 61.4251 211.358 61.4488 211.272 61.494L206.532 50.526C206.637 50.3065 206.656 50.0559 206.586 49.8229C206.517 49.5899 206.362 49.3914 206.154 49.266L201.51 46.59C201.299 46.4692 201.05 46.4324 200.813 46.4869C200.577 46.5414 200.369 46.6832 200.232 46.884L194.898 54.906C194.732 55.1195 194.52 55.293 194.278 55.4135C194.036 55.534 193.77 55.5984 193.5 55.602C192.879 55.5858 192.257 55.6139 191.64 55.686V49.8L188.076 47.742C187.98 47.6973 187.874 47.6787 187.769 47.6882C187.663 47.6977 187.562 47.7349 187.476 47.796L180.276 51.96C180.041 52.1116 179.842 52.3115 179.691 52.5464C179.54 52.7812 179.441 53.0457 179.4 53.322L178.68 61.344C178.598 61.9118 178.335 62.438 177.93 62.844C176.501 64.1667 175.162 65.5839 173.922 67.0859C173.747 67.2786 173.522 67.4184 173.271 67.4894C173.021 67.5605 172.756 67.56 172.506 67.488L167.88 65.868C167.64 65.793 167.382 65.8001 167.146 65.8881C166.91 65.9761 166.71 66.14 166.578 66.3539L161.274 75.5339C161.156 75.7557 161.115 76.0103 161.157 76.2579C161.2 76.5055 161.323 76.732 161.508 76.9019L165.222 80.1059C165.411 80.2853 165.546 80.5148 165.609 80.7676C165.673 81.0205 165.664 81.2863 165.582 81.5339C164.899 83.3557 164.342 85.222 163.914 87.1199C163.766 87.6737 163.441 88.1644 162.99 88.5179L156.39 93.1559C156.173 93.3272 155.995 93.5425 155.868 93.7877C155.741 94.0328 155.667 94.3022 155.652 94.5779V102.906C155.645 103.01 155.665 103.113 155.71 103.207C155.756 103.301 155.824 103.381 155.91 103.44L164.256 108.24L161.214 114.378C161.108 114.596 161.088 114.846 161.158 115.079C161.228 115.311 161.383 115.509 161.592 115.632L172.944 122.232C173.155 122.353 173.404 122.39 173.64 122.335C173.877 122.281 174.085 122.139 174.222 121.938L179.382 116.658C179.383 116.757 179.409 116.855 179.457 116.942C179.505 117.029 179.574 117.102 179.658 117.156L190.23 123.258L190.512 114.978C190.512 114.978 188.28 112.092 188.322 111.594L199.848 99.042C200.087 99.1185 200.346 99.1128 200.582 99.0258C200.817 98.9389 201.017 98.7756 201.15 98.5619L206.454 89.3819C206.572 89.1602 206.613 88.9056 206.571 88.658C206.528 88.4104 206.405 88.1839 206.22 88.014L211.326 71.7539C211.542 71.5841 211.72 71.3698 211.846 71.1255C211.972 70.8812 212.044 70.6126 212.058 70.338L211.83 61.494ZM183.888 96.528C180.792 98.3279 178.236 98.6939 176.376 97.8299C174.192 96.8159 191.898 66.468 193.776 68.124C195.282 69.462 196.098 71.9459 196.098 75.4199C196.074 83.1959 190.614 92.6399 183.888 96.528Z" fill="#263238"/>
<path d="M213.6 54.6L212.166 57.498L207.558 62.814L202.128 59.676L194.52 55.278C194.673 55.1828 194.804 55.056 194.904 54.906L200.238 46.89C200.374 46.6914 200.578 46.5502 200.812 46.4936C201.046 46.4371 201.292 46.4693 201.504 46.584L206.16 49.272L213.222 53.346C213.43 53.4704 213.584 53.6678 213.654 53.8998C213.724 54.1318 213.705 54.3815 213.6 54.6Z" fill="#455A64"/>
<path d="M163.494 88.0079C163.362 88.2042 163.198 88.3767 163.008 88.5179L156.408 93.1559C156.223 93.3005 156.068 93.4799 155.952 93.6839L167.034 100.092L175.8 95.1179L163.494 88.0079Z" fill="#455A64"/>
<path d="M167.46 65.8199C167.284 65.8352 167.114 65.8915 166.964 65.9842C166.814 66.0769 166.688 66.2036 166.596 66.3539L161.292 75.5339C161.175 75.7501 161.132 75.9992 161.172 76.2419L172.8 82.962L180.06 73.1399L167.46 65.8199Z" fill="#455A64"/>
<path d="M198.678 53.88V56.52L192.258 60.228L179.538 52.878C179.687 52.508 179.947 52.1935 180.282 51.978L187.482 47.814C187.591 47.7478 187.715 47.7106 187.842 47.706C187.919 47.7046 187.996 47.7232 188.064 47.76L191.538 49.758L191.628 49.812L196.428 52.584L198.678 53.88Z" fill="#455A64"/>
<path d="M222.69 76.4579V68.1299C222.705 68.0286 222.69 67.925 222.648 67.8317C222.606 67.7383 222.538 67.6591 222.452 67.6034C222.366 67.5478 222.266 67.518 222.163 67.5178C222.061 67.5175 221.96 67.5467 221.874 67.6019L215.454 70.4939C215.352 70.5427 215.241 70.5683 215.128 70.569C215.016 70.5696 214.904 70.5452 214.802 70.4976C214.7 70.45 214.61 70.3803 214.538 70.2935C214.466 70.2068 214.414 70.1051 214.386 69.9959C214.036 68.8828 213.554 67.8153 212.952 66.8159C212.821 66.5806 212.744 66.3188 212.727 66.0498C212.711 65.7809 212.755 65.5116 212.856 65.2619L217.134 56.6339C217.239 56.4145 217.258 56.1639 217.188 55.9309C217.119 55.6979 216.964 55.4993 216.756 55.3739L212.112 52.6919C211.9 52.5731 211.651 52.5381 211.415 52.5936C211.178 52.6491 210.971 52.7912 210.834 52.9919L205.5 61.0139C205.336 61.2287 205.124 61.4027 204.882 61.5224C204.639 61.642 204.372 61.7042 204.102 61.7039C202.936 61.684 201.772 61.8029 200.634 62.0579C200.525 62.0885 200.411 62.0945 200.3 62.0754C200.188 62.0564 200.083 62.0129 199.99 61.948C199.898 61.8831 199.821 61.7985 199.765 61.7002C199.709 61.602 199.676 61.4926 199.668 61.3799L198.966 54.3719C198.969 54.2696 198.943 54.1685 198.891 54.0804C198.839 53.9922 198.763 53.9207 198.672 53.8742C198.58 53.8276 198.478 53.808 198.376 53.8175C198.274 53.827 198.177 53.8653 198.096 53.9279L190.896 58.0919C190.666 58.2423 190.47 58.4399 190.322 58.6716C190.174 58.9033 190.077 59.1639 190.038 59.4359L189.312 67.4639C189.23 68.0318 188.967 68.558 188.562 68.9639C187.133 70.2867 185.794 71.7039 184.554 73.2059C184.379 73.3986 184.154 73.5383 183.903 73.6094C183.653 73.6805 183.388 73.6799 183.138 73.6079L178.5 71.9999C178.26 71.9245 178.003 71.9307 177.767 72.0175C177.531 72.1044 177.331 72.267 177.198 72.4799L171.894 81.6659C171.776 81.8877 171.735 82.1423 171.777 82.3899C171.82 82.6375 171.943 82.864 172.128 83.0339L175.842 86.2379C176.031 86.4173 176.166 86.6468 176.229 86.8996C176.293 87.1525 176.284 87.4183 176.202 87.6659C175.519 89.4877 174.962 91.354 174.534 93.2519C174.386 93.8057 174.061 94.2963 173.61 94.6499L167.01 99.2879C166.793 99.4592 166.615 99.6745 166.488 99.9196C166.361 100.165 166.287 100.434 166.272 100.71V109.038C166.259 109.139 166.274 109.243 166.318 109.336C166.361 109.429 166.429 109.507 166.515 109.563C166.602 109.618 166.702 109.648 166.804 109.648C166.907 109.649 167.007 109.62 167.094 109.566L173.514 106.674C173.615 106.625 173.726 106.599 173.838 106.598C173.951 106.597 174.062 106.621 174.164 106.668C174.266 106.715 174.356 106.784 174.429 106.87C174.501 106.956 174.553 107.057 174.582 107.166C174.928 108.282 175.41 109.352 176.016 110.352C176.147 110.587 176.224 110.849 176.241 111.118C176.257 111.387 176.213 111.656 176.112 111.906L171.834 120.534C171.723 120.752 171.7 121.004 171.768 121.239C171.835 121.474 171.99 121.674 172.2 121.8L176.844 124.482C177.056 124.602 177.305 124.638 177.542 124.582C177.779 124.527 177.986 124.384 178.122 124.182L183.456 116.166C183.621 115.953 183.832 115.78 184.073 115.66C184.314 115.539 184.579 115.474 184.848 115.47C186.016 115.496 187.183 115.377 188.322 115.116C188.431 115.087 188.544 115.081 188.655 115.101C188.766 115.12 188.872 115.164 188.964 115.229C189.056 115.293 189.133 115.378 189.189 115.475C189.245 115.573 189.279 115.682 189.288 115.794L189.99 122.802C189.986 122.905 190.011 123.007 190.062 123.096C190.114 123.185 190.19 123.257 190.281 123.305C190.373 123.352 190.476 123.372 190.578 123.363C190.681 123.353 190.779 123.315 190.86 123.252L198.06 119.088C198.291 118.937 198.487 118.738 198.635 118.506C198.783 118.273 198.879 118.011 198.918 117.738L199.644 109.716C199.726 109.148 199.989 108.622 200.394 108.216C201.821 106.893 203.158 105.476 204.396 103.974C204.571 103.78 204.797 103.639 205.049 103.568C205.301 103.496 205.567 103.498 205.818 103.572L210.444 105.192C210.684 105.266 210.942 105.258 211.178 105.17C211.413 105.082 211.613 104.919 211.746 104.706L217.05 95.5199C217.167 95.2991 217.208 95.0454 217.166 94.7989C217.124 94.5523 217 94.3269 216.816 94.1579L213.102 90.9539C212.913 90.7746 212.778 90.5451 212.714 90.2922C212.651 90.0394 212.66 89.7736 212.742 89.5259C213.42 87.7006 213.977 85.8326 214.41 83.9339C214.561 83.3815 214.885 82.8918 215.334 82.5359L221.934 77.8979C222.158 77.7279 222.341 77.5107 222.472 77.2619C222.603 77.0131 222.677 76.7387 222.69 76.4579ZM194.49 102.648C187.758 106.53 182.304 103.38 182.304 95.6099C182.304 87.8399 187.758 78.3899 194.49 74.5079C201.222 70.6259 206.676 73.7699 206.676 81.5399C206.676 89.3099 201.216 98.7599 194.49 102.648Z" fill="#37474F"/>
<path d="M200.61 79.728L197.4 77.88H197.37C195.948 77.076 193.992 77.196 191.832 78.444C187.488 80.952 183.96 87.06 183.96 92.082C183.96 94.584 184.842 96.348 186.258 97.17L189.174 98.838L189.87 97.674C190.662 97.4946 191.422 97.1973 192.126 96.792C196.476 94.284 199.998 88.176 200.004 83.154C200.003 82.4762 199.918 81.8011 199.752 81.144L200.61 79.728Z" fill="#1DC0AD"/>
<path opacity="0.1" d="M183.96 92.0699C183.96 94.5779 184.842 96.3359 186.258 97.1579L189.174 98.826L189.87 97.662C190.662 97.4816 191.422 97.1843 192.126 96.7799C194.625 95.2141 196.654 93.0021 198 90.378L186.6 83.778C184.988 86.2532 184.076 89.1184 183.96 92.0699Z" fill="black"/>
<path opacity="0.4" d="M200.61 79.728L197.4 77.88H197.364C195.942 77.076 193.986 77.196 191.826 78.444C189.668 79.7783 187.866 81.617 186.576 83.802L197.976 90.402C199.217 88.1988 199.908 85.7291 199.992 83.202C199.991 82.5242 199.906 81.8491 199.74 81.192L200.61 79.728Z" fill="white"/>
<path d="M194.88 80.178C190.53 82.686 187.008 88.794 187.008 93.816C187.008 98.838 190.53 100.872 194.88 98.358C199.23 95.844 202.752 89.742 202.752 84.72C202.752 79.698 199.23 77.664 194.88 80.178Z" fill="#1DC0AD"/>
<path d="M196.686 83.7839C196.706 83.7645 196.733 83.7537 196.761 83.7537C196.789 83.7537 196.816 83.7645 196.836 83.7839C196.859 83.8099 196.876 83.8404 196.886 83.8735C196.897 83.9066 196.9 83.9415 196.896 83.976V85.248C196.894 85.3405 196.876 85.4319 196.842 85.5179C196.812 85.5997 196.778 85.6799 196.74 85.7579L195.798 87.762C195.97 87.7185 196.15 87.7176 196.323 87.7594C196.495 87.8013 196.655 87.8845 196.788 88.002C196.936 88.1785 197.046 88.3835 197.112 88.6043C197.178 88.8251 197.199 89.0571 197.172 89.286C197.194 90.1257 196.987 90.9555 196.572 91.686C196.163 92.3803 195.577 92.9537 194.874 93.348C194.573 93.539 194.236 93.6656 193.884 93.72C193.633 93.7555 193.378 93.7136 193.152 93.6C192.951 93.4866 192.791 93.3122 192.696 93.102C192.584 92.8593 192.527 92.5951 192.528 92.328C192.529 92.2527 192.547 92.1787 192.582 92.112C192.603 92.0512 192.646 92.0001 192.702 91.968L193.686 91.398C193.794 91.338 193.878 91.326 193.932 91.368L194.124 91.506C194.205 91.5577 194.298 91.5867 194.394 91.59C194.566 91.5844 194.733 91.5281 194.874 91.428C195.11 91.2902 195.315 91.1041 195.474 90.882C195.639 90.6652 195.726 90.3986 195.72 90.126C195.72 89.844 195.642 89.6879 195.474 89.6579C195.261 89.6395 195.049 89.6969 194.874 89.82L194.226 90.198C194.206 90.2157 194.181 90.2255 194.154 90.2255C194.127 90.2255 194.102 90.2157 194.082 90.198C194.059 90.1721 194.041 90.1417 194.029 90.1087C194.018 90.0757 194.013 90.0408 194.016 90.0059V88.9739C194.016 88.8813 194.035 88.7896 194.07 88.7039C194.106 88.608 194.148 88.524 194.184 88.446L195.006 86.6879L192.972 87.8579C192.952 87.8757 192.927 87.8854 192.9 87.8854C192.873 87.8854 192.848 87.8757 192.828 87.8579C192.805 87.8319 192.787 87.8015 192.776 87.7685C192.764 87.7356 192.76 87.7007 192.762 87.666V86.4C192.763 86.3081 192.786 86.2177 192.828 86.1359C192.856 86.0608 192.906 85.9959 192.972 85.9499L196.686 83.7839Z" fill="#37474F"/>
<path d="M199.38 38.304L199.092 38.136C193.572 34.86 185.892 35.28 177.408 40.176C160.608 49.878 146.946 73.506 146.946 92.94C146.946 112.374 133.302 136.014 116.478 145.74C113.038 147.825 109.211 149.19 105.228 149.754C106.487 153.037 108.756 155.835 111.708 157.746L112.008 157.926C117.528 161.178 125.208 160.74 133.65 155.856C150.45 146.142 164.112 122.508 164.112 103.056C164.112 83.604 177.75 60 194.58 50.292C198.021 48.2046 201.851 46.8389 205.836 46.278C209.252 45.8029 212.732 46.4048 215.79 48L199.38 38.304Z" fill="#1DC0AD"/>
<path d="M145.854 113.55L160.674 110.226H160.644L154.308 106.56L148.428 103.158C148.303 103.082 148.16 103.04 148.014 103.038L142.812 102.744C142.698 102.748 142.585 102.729 142.479 102.688C142.373 102.648 142.276 102.586 142.194 102.507C142.113 102.428 142.048 102.333 142.003 102.229C141.959 102.124 141.936 102.012 141.936 101.898C142.086 100.229 142.086 98.5506 141.936 96.882C141.956 96.3168 142.168 95.7752 142.536 95.346L150.858 94.668C151.212 94.236 158.022 87.666 158.022 87.666H157.986L145.758 80.58C145.685 80.5452 145.605 80.5288 145.524 80.532C142.002 78.498 135.828 74.922 135.684 74.832C135.501 74.7313 135.291 74.6914 135.084 74.718L129.018 75.318C128.737 75.3492 128.469 75.45 128.238 75.6114C128.006 75.7728 127.818 75.9896 127.692 76.242L124.404 85.062C124.114 85.6231 123.648 86.0739 123.078 86.346C122.436 86.646 121.794 86.988 121.146 87.36L114.78 83.676C114.528 83.508 114.126 83.616 113.796 83.964L107.136 90.996C106.944 91.1842 106.797 91.4141 106.708 91.6679C106.618 91.9218 106.588 92.1927 106.62 92.46L108.474 98.736C108.556 99.2651 108.434 99.8058 108.132 100.248C107.006 101.959 105.984 103.736 105.072 105.57C104.748 106.102 104.229 106.487 103.626 106.644L97.926 108.018C97.6422 108.084 97.3778 108.216 97.1539 108.402C96.9299 108.589 96.7526 108.825 96.636 109.092L93.768 118.746C93.7211 118.87 93.7169 119.007 93.756 119.134C93.7951 119.261 93.8753 119.371 93.984 119.448C94.11 119.55 100.44 123.192 100.44 123.192C100.44 124.074 100.44 124.938 100.548 125.778C100.54 126.339 100.341 126.881 99.984 127.314L94.17 134.346C93.9981 134.54 93.8764 134.773 93.8157 135.026C93.755 135.278 93.7572 135.541 93.822 135.792L96.582 141.894C96.6183 141.976 96.679 142.045 96.756 142.092L109.002 149.178C109.018 149.163 109.03 149.145 109.038 149.124L109.218 149.232L119.064 154.926C119.232 154.47 124.23 133.764 124.464 134.094L127.572 138.84C127.599 138.88 127.631 138.916 127.668 138.948L133.59 142.386L139.98 146.088L135.36 131.688C139.44 133.05 148.746 115.5 145.854 113.55ZM109.974 123.186L132.492 99.42C133.152 100.982 133.47 102.668 133.422 104.364C133.915 104.072 134.426 103.812 134.952 103.584C135 104.108 135.024 104.66 135.024 105.24C135.024 113.04 129.57 122.46 122.838 126.348C122.346 126.63 121.86 126.882 121.398 127.098C121.326 126.513 121.294 125.923 121.302 125.334C116.496 128.142 111.93 127.5 109.974 123.186Z" fill="#263238"/>
<path d="M108.99 149.154L108.39 143.478L93.7739 135.042C93.6948 135.275 93.6948 135.529 93.7739 135.762L96.5339 141.864C96.5702 141.946 96.631 142.015 96.7079 142.062H96.7379L108.99 149.154Z" fill="#455A64"/>
<path d="M110.838 116.748L96.8159 108.684C96.7243 108.793 96.655 108.92 96.6119 109.056L93.7439 118.716C93.6971 118.84 93.6929 118.977 93.732 119.104C93.7711 119.231 93.8513 119.341 93.9599 119.418L94.0619 119.484L100.38 123.138H100.416L106.29 126.54L110.838 116.748Z" fill="#455A64"/>
<path d="M106.638 91.8L118.902 98.838L126.99 90.726L114.756 83.64C114.504 83.478 114.108 83.586 113.778 83.934L107.112 90.966C106.893 91.2045 106.731 91.4897 106.638 91.8Z" fill="#455A64"/>
<path d="M135.66 74.802C135.478 74.6984 135.267 74.6583 135.06 74.688L128.994 75.288C128.612 75.3321 128.256 75.5008 127.98 75.768L143.928 84.978L148.002 82.62L147.888 81.882C147.888 81.882 135.858 74.928 135.66 74.802Z" fill="#455A64"/>
<path d="M160.674 110.226H160.644C160.526 110.167 160.397 110.134 160.266 110.13L155.064 109.836C154.95 109.84 154.837 109.821 154.731 109.78C154.625 109.74 154.528 109.678 154.446 109.599C154.364 109.52 154.299 109.425 154.255 109.321C154.211 109.216 154.188 109.104 154.188 108.99C154.26 108.168 154.302 107.352 154.308 106.56C154.316 105.697 154.278 104.833 154.194 103.974C154.208 103.413 154.408 102.872 154.764 102.438L160.572 95.3999C160.744 95.2061 160.867 94.973 160.929 94.7209C160.99 94.4689 160.989 94.2055 160.926 93.9539L158.166 87.8519C158.132 87.7716 158.073 87.7043 157.998 87.6599H157.962C157.803 87.6142 157.634 87.6159 157.477 87.665C157.319 87.714 157.179 87.8082 157.074 87.9359L150.87 93.5999C150.704 93.7867 150.479 93.911 150.232 93.9525C149.985 93.9939 149.732 93.95 149.514 93.8279C148.718 93.1757 147.823 92.6551 146.862 92.2859C146.653 92.2004 146.48 92.0461 146.371 91.8486C146.262 91.6511 146.223 91.4222 146.262 91.1999L148.176 82.5179C148.204 82.4028 148.193 82.2817 148.145 82.1733C148.098 82.0649 148.016 81.9751 147.912 81.9179C147.727 81.8233 147.518 81.7877 147.312 81.8159L141.246 82.4159C140.965 82.445 140.695 82.545 140.464 82.7066C140.232 82.8682 140.045 83.0862 139.92 83.3399L136.632 92.1599C136.345 92.7218 135.878 93.1716 135.306 93.4379C133.998 94.0634 132.742 94.7917 131.55 95.6159C131.04 95.9579 130.47 95.9819 130.248 95.6159L127.146 90.8759C126.924 90.5399 126.426 90.6119 126.024 91.0259L119.364 98.0639C119.172 98.2513 119.026 98.4801 118.936 98.7329C118.847 98.9857 118.817 99.2556 118.848 99.5219L120.702 105.804C120.782 106.332 120.663 106.871 120.366 107.316C119.238 109.024 118.214 110.8 117.3 112.632C116.977 113.166 116.458 113.554 115.854 113.712L110.154 115.086C109.871 115.153 109.608 115.284 109.384 115.469C109.16 115.654 108.982 115.889 108.864 116.154L105.996 125.814C105.966 125.92 105.961 126.031 105.984 126.139C106.006 126.247 106.054 126.348 106.123 126.434C106.193 126.519 106.282 126.586 106.383 126.63C106.484 126.673 106.594 126.692 106.704 126.684L111.912 126.978C112.024 126.972 112.137 126.989 112.243 127.028C112.349 127.066 112.446 127.125 112.529 127.202C112.612 127.279 112.678 127.371 112.725 127.474C112.771 127.576 112.797 127.687 112.8 127.8C112.647 129.468 112.647 131.147 112.8 132.816C112.795 133.399 112.582 133.96 112.2 134.4L106.392 141.438C106.219 141.631 106.096 141.865 106.034 142.117C105.973 142.369 105.974 142.632 106.038 142.884L108.798 148.98C108.83 149.061 108.889 149.129 108.966 149.172C109.032 149.208 109.106 149.227 109.182 149.226C109.439 149.205 109.679 149.092 109.86 148.908L116.058 143.238C116.225 143.052 116.45 142.928 116.696 142.887C116.942 142.846 117.195 142.889 117.414 143.01C118.212 143.66 119.107 144.18 120.066 144.552C120.275 144.637 120.449 144.791 120.559 144.988C120.668 145.186 120.706 145.416 120.666 145.638L118.8 154.308C118.77 154.422 118.778 154.542 118.824 154.651C118.87 154.759 118.95 154.85 119.052 154.908C119.235 155.007 119.446 155.043 119.652 155.01L125.718 154.41C125.998 154.379 126.267 154.278 126.498 154.116C126.73 153.955 126.918 153.738 127.044 153.486L130.338 144.666C130.626 144.104 131.092 143.652 131.664 143.382C132.3 143.082 132.948 142.74 133.59 142.368C134.232 141.996 134.79 141.624 135.42 141.21C135.924 140.862 136.5 140.838 136.716 141.174L139.824 145.92C139.861 145.978 139.913 146.025 139.974 146.058C140.226 146.214 140.616 146.106 140.94 145.764L147.6 138.732C147.79 138.544 147.935 138.314 148.023 138.062C148.111 137.809 148.141 137.54 148.11 137.274L146.256 130.998C146.177 130.469 146.299 129.929 146.598 129.486C147.727 127.777 148.749 125.999 149.658 124.164C149.984 123.631 150.505 123.245 151.11 123.09L156.804 121.716C157.088 121.651 157.353 121.519 157.577 121.333C157.801 121.146 157.978 120.91 158.094 120.642L160.98 111C161.029 110.856 161.025 110.698 160.969 110.557C160.913 110.415 160.809 110.298 160.674 110.226ZM130.26 133.8L129.924 133.884L129.684 133.938C129.504 133.974 129.324 134.004 129.144 134.028C128.928 134.064 128.724 134.076 128.514 134.094H128.13H127.944C126.715 134.104 125.512 133.742 124.492 133.056C123.473 132.369 122.685 131.391 122.232 130.248C121.788 129.239 121.507 128.165 121.398 127.068C121.326 126.483 121.294 125.893 121.302 125.304C121.338 119.802 124.164 112.986 128.826 108.06C130.174 106.606 131.721 105.352 133.422 104.334C133.915 104.042 134.426 103.782 134.952 103.554C136.297 102.924 137.769 102.612 139.254 102.642H139.302H139.518H139.74C139.819 102.646 139.897 102.656 139.974 102.672C141.035 102.822 142.038 103.249 142.88 103.911C143.723 104.572 144.377 105.445 144.774 106.44C147.348 112.134 144.396 122.04 138.174 128.64C135.546 131.448 132.78 133.2 130.26 133.8Z" fill="#37474F"/>
<path d="M139.68 109.32L136.476 107.472C135.054 106.668 133.098 106.788 130.938 108.036C126.594 110.544 123.066 116.652 123.066 121.674C123.066 124.182 123.942 125.94 125.364 126.768L128.28 128.43L128.976 127.266C129.771 127.089 130.533 126.792 131.238 126.384C135.588 123.876 139.11 117.768 139.11 112.746C139.11 112.068 139.028 111.393 138.864 110.736L139.68 109.32Z" fill="#1DC0AD"/>
<path opacity="0.1" d="M123.03 121.662C123.03 124.17 123.906 125.928 125.328 126.756L128.25 128.418L128.946 127.254C129.738 127.074 130.498 126.776 131.202 126.372C133.695 124.814 135.722 122.613 137.07 120L125.67 113.4C124.065 115.868 123.154 118.721 123.03 121.662Z" fill="black"/>
<path opacity="0.4" d="M139.68 109.32L136.476 107.472C135.054 106.668 133.104 106.788 130.944 108.036C128.785 109.372 126.982 111.21 125.688 113.394L137.088 119.994C138.333 117.779 139.024 115.297 139.104 112.758C139.102 112.08 139.018 111.405 138.852 110.748L139.68 109.32Z" fill="white"/>
<path d="M133.95 109.8C129.6 112.308 126.072 118.416 126.072 123.438C126.072 128.46 129.6 130.494 133.95 127.986C138.3 125.478 141.822 119.37 141.822 114.348C141.822 109.326 138.3 107.256 133.95 109.8Z" fill="#1DC0AD"/>
<path d="M136.074 115.734C136.076 115.969 136.06 116.204 136.026 116.436C135.993 116.68 135.941 116.92 135.87 117.156C135.787 117.421 135.688 117.682 135.576 117.936C135.45 118.206 135.3 118.488 135.126 118.794L134.034 120.696L135.99 119.562C136.012 119.546 136.038 119.537 136.065 119.537C136.092 119.537 136.118 119.546 136.14 119.562C136.185 119.616 136.206 119.685 136.2 119.754V121.026C136.2 121.117 136.18 121.208 136.14 121.29C136.11 121.366 136.058 121.431 135.99 121.476L131.874 123.876C131.852 123.892 131.826 123.901 131.799 123.901C131.772 123.901 131.746 123.892 131.724 123.876C131.679 123.822 131.658 123.753 131.664 123.684V122.652C131.666 122.513 131.682 122.374 131.712 122.238C131.749 122.087 131.81 121.944 131.892 121.812L134.22 117.9C134.373 117.663 134.488 117.404 134.562 117.132C134.607 116.955 134.631 116.774 134.634 116.592C134.639 116.518 134.639 116.444 134.634 116.37C134.624 116.282 134.593 116.198 134.544 116.124C134.523 116.087 134.494 116.056 134.46 116.031C134.426 116.006 134.387 115.989 134.346 115.98C134.223 115.964 134.098 115.996 133.998 116.07C133.859 116.15 133.738 116.258 133.644 116.388C133.559 116.505 133.489 116.632 133.434 116.766C133.383 116.881 133.347 117.002 133.326 117.126L133.272 117.378C133.26 117.473 133.226 117.565 133.172 117.644C133.117 117.723 133.045 117.789 132.96 117.834L132 118.386C131.983 118.401 131.962 118.409 131.94 118.409C131.918 118.409 131.896 118.401 131.88 118.386C131.861 118.364 131.847 118.338 131.839 118.31C131.831 118.282 131.828 118.253 131.832 118.224C131.839 117.86 131.886 117.498 131.97 117.144C132.063 116.751 132.197 116.368 132.372 116.004C132.552 115.63 132.778 115.279 133.044 114.96C133.308 114.638 133.629 114.367 133.992 114.162C134.263 113.987 134.576 113.885 134.898 113.868C135.141 113.867 135.375 113.955 135.558 114.114C135.748 114.297 135.886 114.527 135.96 114.78C136.044 115.091 136.083 115.412 136.074 115.734Z" fill="#37474F"/>
<path d="M105.228 149.742C103.801 146.077 103.112 142.166 103.2 138.234C103.2 128.634 99.882 121.866 94.494 118.632L93.948 118.314C90.8909 116.723 87.412 116.129 84 116.616C85.4281 120.279 86.1213 124.187 86.04 128.118C86.04 137.784 89.406 144.588 94.866 147.798L111.732 157.734C108.772 155.827 106.494 153.028 105.228 149.742Z" fill="#1DC0AD"/>
<path opacity="0.3" d="M105.228 149.742C103.801 146.077 103.112 142.166 103.2 138.234C103.2 128.634 99.882 121.866 94.494 118.632L93.948 118.314C90.8909 116.723 87.412 116.129 84 116.616C85.4281 120.279 86.1213 124.187 86.04 128.118C86.04 137.784 89.406 144.588 94.866 147.798L111.732 157.734C108.772 155.827 106.494 153.028 105.228 149.742Z" fill="black"/>
<path d="M100.686 137.874C100.496 137.823 100.293 137.842 100.116 137.928L93.6959 140.82C93.5947 140.869 93.484 140.895 93.3716 140.896C93.2592 140.897 93.148 140.873 93.0459 140.826C92.9438 140.779 92.8534 140.71 92.7812 140.624C92.7089 140.538 92.6566 140.437 92.6279 140.328C92.3759 139.518 87.9779 138.588 87.6179 137.892L90.0839 131.76L100.686 137.874Z" fill="#455A64"/>
<path d="M90.0899 131.784C90.0039 131.739 89.9081 131.715 89.8109 131.715C89.7137 131.715 89.618 131.739 89.5319 131.784L84.7919 120.816C84.8965 120.597 84.9158 120.348 84.8458 120.116C84.7759 119.884 84.6219 119.686 84.4139 119.562L79.7999 116.862C79.5879 116.743 79.3392 116.708 79.1026 116.764C78.8661 116.819 78.6589 116.961 78.5219 117.162L73.1879 125.184C73.0215 125.396 72.8095 125.569 72.5675 125.688C72.3255 125.808 72.0598 125.871 71.7899 125.874C71.1686 125.86 70.547 125.89 69.9299 125.964V120.096L66.3659 118.044C66.27 117.999 66.164 117.981 66.0587 117.99C65.9533 118 65.8523 118.037 65.7659 118.098L58.5659 122.262C58.3314 122.409 58.1309 122.605 57.9778 122.835C57.8247 123.066 57.7225 123.327 57.6779 123.6L56.9579 131.628C56.8751 132.194 56.6121 132.718 56.2079 133.122C54.7788 134.458 53.4399 135.887 52.1999 137.4C52.0259 137.594 51.8006 137.734 51.55 137.806C51.2994 137.877 51.0338 137.875 50.7839 137.802L46.1579 136.188C45.9185 136.11 45.66 136.115 45.4238 136.203C45.1877 136.29 44.9877 136.454 44.8559 136.668L39.5519 145.8C39.4339 146.022 39.3929 146.276 39.4352 146.524C39.4776 146.772 39.6009 146.998 39.7859 147.168L43.4999 150.366C43.6893 150.545 43.8237 150.775 43.8874 151.028C43.9511 151.281 43.9416 151.546 43.8599 151.794C43.177 153.618 42.6197 155.486 42.1919 157.386C42.0419 157.939 41.718 158.429 41.2679 158.784L34.6679 163.422C34.4514 163.592 34.2736 163.806 34.1463 164.05C34.0191 164.295 33.9453 164.563 33.9299 164.838V173.166C33.923 173.27 33.9431 173.373 33.9883 173.467C34.0336 173.561 34.1023 173.641 34.1879 173.7L42.5339 178.5L39.4919 184.644C39.3859 184.862 39.3659 185.112 39.436 185.345C39.506 185.577 39.6609 185.775 39.8699 185.898L51.2219 192.498C51.4339 192.617 51.6827 192.652 51.9192 192.596C52.1558 192.541 52.363 192.399 52.4999 192.198L57.6599 186.924C57.6621 187.022 57.6884 187.119 57.7365 187.204C57.7846 187.29 57.8531 187.363 57.9359 187.416L68.5079 193.518L68.7899 185.238C68.7899 185.238 66.5999 182.4 66.5999 181.884L78.1259 169.332C78.3655 169.406 78.623 169.4 78.8584 169.313C79.0938 169.226 79.294 169.064 79.4279 168.852L84.7319 159.666C84.8499 159.444 84.891 159.19 84.8486 158.942C84.8063 158.694 84.6829 158.468 84.4979 158.298L89.6039 142.044C89.8182 141.872 89.9941 141.658 90.1202 141.414C90.2463 141.17 90.3198 140.902 90.3359 140.628L90.0899 131.784ZM62.1479 166.8C59.0519 168.6 56.4959 168.972 54.6359 168.108C52.4519 167.088 70.1579 136.74 72.0359 138.396C73.5419 139.74 74.3579 142.224 74.3579 145.698C74.3339 153.48 68.8739 162.93 62.1479 166.8Z" fill="#263238"/>
<path d="M78.984 149.622L75.78 147.774C74.358 146.97 72.408 147.09 70.248 148.338C65.898 150.846 62.37 156.954 62.37 161.976C62.37 164.484 63.252 166.242 64.674 167.07L67.59 168.732L68.286 167.568C69.078 167.392 69.8387 167.097 70.542 166.692C74.892 164.178 78.42 158.07 78.42 153.048C78.4173 152.371 78.3347 151.696 78.174 151.038L78.984 149.622Z" fill="#1DC0AD"/>
<path opacity="0.1" d="M62.34 161.964C62.34 164.472 63.216 166.23 64.632 167.058L67.548 168.72L68.244 167.556C69.0362 167.378 69.7969 167.08 70.5 166.674C72.9951 165.107 75.0205 162.895 76.362 160.272L64.962 153.672C63.356 156.149 62.45 159.014 62.34 161.964Z" fill="black"/>
<path opacity="0.4" d="M78.9839 149.622L75.7799 147.774H75.7499C74.3279 146.97 72.3779 147.09 70.2179 148.338C68.0578 149.672 66.2541 151.511 64.9619 153.696L76.3619 160.296C77.6066 158.081 78.2982 155.599 78.3779 153.06C78.3752 152.383 78.2926 151.708 78.1319 151.05L78.9839 149.622Z" fill="white"/>
<path d="M73.254 150.072C68.904 152.586 65.382 158.688 65.382 163.71C65.382 168.732 68.904 170.766 73.254 168.258C77.604 165.75 81.132 159.642 81.132 154.62C81.132 149.598 77.604 147.564 73.254 150.072Z" fill="#1DC0AD"/>
<path d="M70.9559 158.88C70.9343 158.848 70.9195 158.811 70.9122 158.773C70.905 158.735 70.9056 158.696 70.9139 158.658C70.9272 158.566 70.9556 158.477 70.9979 158.394L72.6779 155.448C72.7139 155.376 72.7679 155.292 72.8279 155.19C72.8775 155.104 72.9476 155.032 73.0319 154.98L73.9859 154.428C74.0057 154.41 74.0314 154.4 74.0579 154.4C74.0845 154.4 74.1101 154.41 74.1299 154.428C74.154 154.453 74.1723 154.484 74.1837 154.517C74.195 154.55 74.1992 154.585 74.1959 154.62V162.372C74.1932 162.464 74.1707 162.554 74.1299 162.636C74.1038 162.711 74.053 162.774 73.9859 162.816L72.9659 163.416C72.9458 163.435 72.9189 163.446 72.8909 163.446C72.8629 163.446 72.8361 163.435 72.8159 163.416C72.7934 163.391 72.7765 163.361 72.7661 163.329C72.7558 163.297 72.7523 163.263 72.7559 163.23V157.986L71.8259 159.6C71.7938 159.669 71.7386 159.724 71.6699 159.756C71.6451 159.767 71.6171 159.768 71.5916 159.759C71.566 159.75 71.5447 159.732 71.5319 159.708L70.9559 158.88Z" fill="#37474F"/>
<path d="M91.854 124.872L90.42 127.8L85.8 133.086L80.4 129.948L72.792 125.55C72.945 125.455 73.0759 125.328 73.176 125.178L78.51 117.162C78.6457 116.963 78.8503 116.822 79.0842 116.766C79.318 116.709 79.5645 116.741 79.776 116.856L84.432 119.544L91.476 123.6C91.6884 123.725 91.8456 123.925 91.9158 124.161C91.986 124.398 91.9639 124.652 91.854 124.872Z" fill="#455A64"/>
<path d="M41.7539 158.292C41.622 158.49 41.4577 158.665 41.2679 158.808L34.6679 163.446C34.48 163.587 34.3245 163.767 34.2119 163.974L45.3059 170.4L54.0539 165.426L41.7539 158.292Z" fill="#455A64"/>
<path d="M45.7199 136.11C45.5446 136.124 45.3751 136.179 45.225 136.271C45.0749 136.363 44.9485 136.488 44.8559 136.638L39.5519 145.8C39.4342 146.016 39.3919 146.265 39.4319 146.508L51.0419 153.222L58.3019 143.406L45.7199 136.11Z" fill="#455A64"/>
<path d="M76.938 124.164V126.804L70.518 130.512L57.798 123.162C57.9465 122.792 58.2065 122.477 58.542 122.262L65.742 118.098C65.8508 118.032 65.9747 117.995 66.102 117.99C66.1794 117.989 66.2559 118.007 66.324 118.044L69.798 120.042L69.888 120.096L74.688 122.868L76.938 124.164Z" fill="#455A64"/>
<path d="M100.95 146.742V138.414C100.965 138.313 100.95 138.209 100.908 138.116C100.866 138.022 100.798 137.943 100.712 137.888C100.626 137.832 100.526 137.802 100.423 137.802C100.321 137.802 100.22 137.831 100.134 137.886L93.714 140.778C93.6128 140.827 93.502 140.853 93.3896 140.854C93.2772 140.855 93.166 140.831 93.064 140.784C92.9619 140.737 92.8715 140.668 92.7992 140.582C92.727 140.496 92.6746 140.395 92.646 140.286C92.2932 139.17 91.8077 138.1 91.2 137.1C91.0687 136.865 90.9919 136.603 90.9752 136.334C90.9586 136.065 91.0026 135.796 91.104 135.546L95.4 126.918C95.5046 126.699 95.5238 126.45 95.4539 126.218C95.384 125.986 95.2299 125.788 95.022 125.664L90.372 123C90.1603 122.88 89.9111 122.844 89.6742 122.9C89.4372 122.955 89.23 123.098 89.094 123.3L83.76 131.316C83.5942 131.53 83.3824 131.703 83.1404 131.824C82.8983 131.944 82.6323 132.008 82.362 132.012C81.1958 131.986 80.0309 132.105 78.894 132.366C78.7853 132.395 78.6714 132.401 78.5605 132.381C78.4496 132.362 78.3443 132.318 78.2521 132.253C78.16 132.189 78.0831 132.104 78.0271 132.007C77.9711 131.909 77.9372 131.8 77.928 131.688L77.226 124.68C77.2317 124.577 77.2073 124.474 77.1557 124.384C77.1042 124.295 77.0277 124.222 76.9355 124.175C76.8434 124.128 76.7395 124.108 76.6367 124.119C76.5338 124.13 76.4362 124.171 76.356 124.236L69.156 128.4C68.9247 128.549 68.7284 128.746 68.5803 128.978C68.4323 129.21 68.336 129.471 68.298 129.744L67.572 137.766C67.4904 138.334 67.2273 138.86 66.822 139.266C65.394 140.59 64.0551 142.007 62.814 143.508C62.6399 143.702 62.4146 143.842 62.164 143.914C61.9135 143.985 61.6479 143.983 61.398 143.91L56.772 142.296C56.5325 142.218 56.274 142.224 56.0379 142.311C55.8017 142.398 55.6017 142.562 55.47 142.776L50.166 151.962C50.0484 152.183 50.0076 152.436 50.05 152.683C50.0923 152.93 50.2154 153.155 50.4 153.324L54.114 156.528C54.3033 156.707 54.4377 156.937 54.5014 157.19C54.5652 157.443 54.5557 157.708 54.474 157.956C53.789 159.773 53.2297 161.636 52.8 163.53C52.65 164.083 52.326 164.573 51.876 164.928L45.276 169.566C45.0577 169.738 44.8793 169.955 44.7529 170.203C44.6266 170.45 44.5553 170.722 44.544 171V179.328C44.5293 179.43 44.5441 179.534 44.5867 179.628C44.6293 179.722 44.6978 179.802 44.7843 179.858C44.8707 179.914 44.9714 179.944 45.0745 179.945C45.1776 179.946 45.2787 179.917 45.366 179.862L51.786 176.964C51.8876 176.915 51.9987 176.89 52.1115 176.889C52.2242 176.888 52.3356 176.913 52.4378 176.96C52.5399 177.008 52.6302 177.078 52.7022 177.164C52.7742 177.251 52.826 177.353 52.854 177.462C53.2013 178.576 53.6829 179.644 54.288 180.642C54.4202 180.878 54.4975 181.141 54.5141 181.411C54.5307 181.681 54.4862 181.951 54.384 182.202L50.106 190.8C49.9999 191.018 49.9799 191.268 50.05 191.501C50.12 191.733 50.275 191.931 50.484 192.054L55.128 194.736C55.3399 194.855 55.5887 194.89 55.8253 194.834C56.0618 194.779 56.269 194.637 56.406 194.436L61.74 186.414C61.9057 186.202 62.1168 186.03 62.3577 185.911C62.5986 185.792 62.8631 185.728 63.132 185.724C64.2967 185.753 65.4608 185.645 66.6 185.4C66.7087 185.371 66.8225 185.365 66.9334 185.385C67.0443 185.404 67.1496 185.448 67.2418 185.513C67.334 185.577 67.4108 185.662 67.4668 185.759C67.5228 185.857 67.5567 185.966 67.566 186.078L68.268 193.086C68.2648 193.188 68.2908 193.289 68.3429 193.378C68.395 193.466 68.471 193.537 68.5622 193.584C68.6534 193.63 68.756 193.65 68.8579 193.64C68.9598 193.631 69.057 193.593 69.138 193.53L76.338 189.366C76.5686 189.216 76.7646 189.019 76.9126 188.787C77.0606 188.555 77.1572 188.294 77.196 188.022L77.94 180C78.0228 179.433 78.2857 178.907 78.69 178.5C80.1189 177.181 81.456 175.765 82.692 174.264C82.8661 174.068 83.0924 173.927 83.3443 173.856C83.5962 173.784 83.8633 173.787 84.114 173.862L88.74 175.476C88.9796 175.55 89.237 175.544 89.4724 175.457C89.7078 175.37 89.908 175.208 90.042 174.996L95.346 165.81C95.464 165.588 95.505 165.334 95.4627 165.086C95.4203 164.838 95.297 164.612 95.112 164.442L91.398 161.244C91.2092 161.064 91.0753 160.835 91.0116 160.582C90.9478 160.329 90.957 160.064 91.038 159.816C91.7146 157.99 92.2718 156.122 92.706 154.224C92.8544 153.67 93.1786 153.18 93.63 152.826L100.23 148.188C100.447 148.013 100.623 147.793 100.747 147.543C100.871 147.294 100.941 147.021 100.95 146.742ZM72.75 172.932C66.018 176.82 60.564 173.67 60.564 165.9C60.564 158.13 66.018 148.68 72.75 144.792C79.482 140.904 84.936 144.06 84.936 151.83C84.936 159.6 79.476 169.05 72.75 172.932Z" fill="#37474F"/>
<path d="M93.93 118.314C90.878 116.726 87.406 116.133 84 116.616C80.0127 117.177 76.181 118.542 72.738 120.63C56.754 129.858 43.65 151.65 42.378 170.466L25.2 160.356C26.466 141.54 39.6 119.742 55.566 110.514C63.876 105.714 71.406 105.21 76.902 108.27L77.55 108.654L93.93 118.314Z" fill="#1DC0AD"/>
<path d="M242.712 108.084H230.712V95.334C230.712 92.947 231.66 90.6578 233.348 88.97C235.036 87.2822 237.325 86.334 239.712 86.334H242.94C245.327 86.334 247.616 87.2822 249.304 88.97C250.992 90.6578 251.94 92.947 251.94 95.334V98.892C251.94 100.102 251.701 101.3 251.237 102.418C250.773 103.536 250.092 104.55 249.235 105.404C248.378 106.258 247.36 106.935 246.241 107.395C245.121 107.854 243.922 108.089 242.712 108.084Z" fill="#263238"/>
<path d="M250.512 87.5039L248.958 88.89C248.855 88.7901 248.773 88.6701 248.718 88.5373C248.664 88.4046 248.637 88.262 248.64 88.1184C248.643 87.9748 248.675 87.8334 248.735 87.7029C248.795 87.5725 248.882 87.4558 248.989 87.3602C249.096 87.2646 249.222 87.1922 249.358 87.1474C249.495 87.1026 249.639 87.0865 249.782 87.1C249.925 87.1134 250.063 87.1563 250.189 87.2258C250.315 87.2953 250.425 87.39 250.512 87.5039Z" fill="#263238"/>
<path d="M250.908 89.52L248.868 89.082C248.927 88.8115 249.091 88.5755 249.324 88.4258C249.557 88.2762 249.84 88.2251 250.11 88.284C250.244 88.3117 250.371 88.3659 250.484 88.4433C250.597 88.5207 250.694 88.6198 250.768 88.7348C250.842 88.8499 250.893 88.9785 250.917 89.1133C250.941 89.2481 250.938 89.3864 250.908 89.52Z" fill="#263238"/>
<path d="M230.4 211.296C229.17 212.595 227.818 213.773 226.362 214.812C226.129 214.964 225.935 215.17 225.798 215.412C225.612 215.808 225.312 216.786 227.118 217.416C228.032 217.734 229.003 217.851 229.966 217.759C230.93 217.667 231.861 217.368 232.698 216.882C234.18 215.952 234.246 214.02 235.644 212.922C236.682 212.106 237.978 211.896 238.818 210.828C239.418 210.084 239.25 209.094 238.944 207.87C238.614 206.538 238.458 205.524 238.02 205.626L238.092 206.226C237.54 207.102 234.678 207.366 233.406 206.76C232.484 208.324 231.481 209.838 230.4 211.296Z" fill="#263238"/>
<path d="M229.152 212.544C229.584 212.148 230.004 211.746 230.406 211.302C231.255 210.206 232.035 209.058 232.74 207.864C233.232 207.14 233.462 206.27 233.394 205.398L233.04 202.11L237.57 201.786L238.098 206.232C238.206 207.234 237.372 208.128 235.902 209.4C234.432 210.672 232.554 213.636 231.216 214.38C229.878 215.124 228.93 215.094 228.36 214.716C227.79 214.338 227.718 214.014 229.152 212.544Z" fill="#FFA8A7"/>
<path d="M247.638 211.704V211.02C247.368 211.818 246.12 215.256 244.236 216.978C242.73 218.352 240.684 219.936 240.162 221.46C239.64 222.984 243.012 223.584 244.416 223.332C246.048 223.044 248.154 222.132 249.306 220.71C250.11 219.72 250.626 218.544 251.202 217.764C251.778 216.984 253.104 216.114 253.416 215.208C253.59 214.71 253.386 213.63 253.146 212.712C252.906 211.794 252.684 210.942 252.396 211.02V211.542C251.712 212.077 250.865 212.361 249.996 212.346C249.318 212.4 247.632 212.232 247.638 211.704Z" fill="#263238"/>
<path d="M242.874 218.184C243.342 217.77 243.81 217.362 244.236 216.984C245.556 215.784 246.558 213.738 247.14 212.346C247.466 211.55 247.635 210.698 247.638 209.838V207.12H252.396V211.536V211.656C252.168 212.646 249.996 215.256 248.742 216.99C247.908 218.142 246.342 219.606 244.44 219.858C242.628 220.11 241.71 219.546 242.874 218.184Z" fill="#FFA8A7"/>
<path d="M251.448 137.706C255.144 145.77 251.316 174.168 251.316 174.168C251.43 175.476 252.924 178.05 253.482 183.81C254.142 190.614 252.45 207.696 252.45 207.696C251.725 208.115 250.91 208.351 250.074 208.385C249.237 208.418 248.406 208.248 247.65 207.888C247.65 207.888 243.108 182.16 242.25 175.392C241.506 169.488 240.078 155.592 240.078 155.592L236.016 175.338C236.016 175.338 237.57 178.734 237.816 181.254C238.2 185.232 237.816 202.464 237.816 202.464C237.816 202.464 236.19 203.7 233.07 203.244C233.07 203.244 227.79 179.244 227.37 174.444C227.124 171.588 230.37 136.518 230.37 136.518L251.448 137.706Z" fill="#37474F"/>
<path d="M240.072 155.616L238.872 149.016C238.872 149.016 233.802 147.966 231.504 145.806C233.093 147.668 235.172 149.048 237.504 149.79L238.854 155.55L236.496 173.01L240.072 155.616Z" fill="#263238"/>
<path d="M257.466 134.202C257.43 133.674 256.44 128.028 255.756 124.872L249.12 126.906L250.32 132.714L255.912 137.202C257.64 136.854 257.502 134.73 257.466 134.202Z" fill="#FFA8A7"/>
<path d="M225.372 122.298L222.234 128.052L227.112 132.234L231.582 125.148L225.372 122.298Z" fill="#F28F8F"/>
<path d="M237.138 109.482C234.03 109.518 230.604 110.646 229.428 113.082L224.562 123.114C224.562 123.114 227.31 127.14 231.672 126.858L237.138 109.482Z" fill="#1DC0AD"/>
<path opacity="0.1" d="M237.138 109.482C234.03 109.518 230.604 110.646 229.428 113.082L224.562 123.114C224.562 123.114 227.31 127.14 231.672 126.858L237.138 109.482Z" fill="black"/>
<path d="M244.938 109.698C246.296 110.029 247.563 110.659 248.645 111.544C249.727 112.429 250.596 113.545 251.19 114.81C252.057 116.735 252.136 118.923 251.412 120.906L248.112 130.446C248.112 130.446 249.66 134.178 251.448 137.706C243.174 142.326 232.848 139.896 230.352 136.506C230.25 135.786 230.388 132.564 230.19 128.898C229.974 124.986 229.44 120.576 230.052 118.158C231.192 113.67 233.334 109.458 237.588 109.458L244.938 109.698Z" fill="#1DC0AD"/>
<path d="M246.168 109.698C248.994 110.1 253.14 110.67 254.568 117.378C256.014 124.182 256.434 126.546 256.434 126.546C256.434 126.546 254.112 129.246 249.432 129.222L247.974 124.068L246.168 109.698Z" fill="#1DC0AD"/>
<path opacity="0.1" d="M249.03 127.8C249.03 127.8 248.076 124.77 247.494 122.304C247.487 124.895 247.745 127.481 248.262 130.02L249.03 127.8Z" fill="black"/>
<path d="M234.198 90.66C233.076 91.326 231.696 94.14 231.834 100.038C231.948 105.036 233.568 106.272 234.384 106.638C235.2 107.004 236.784 106.776 238.29 106.524V109.524C238.29 109.524 236.184 111.972 236.316 113.346C236.448 114.72 239.358 115.05 241.332 113.706C242.611 112.786 243.708 111.637 244.566 110.316V103.05C244.727 103.247 244.925 103.409 245.149 103.529C245.373 103.648 245.618 103.722 245.871 103.746C246.124 103.77 246.379 103.744 246.622 103.669C246.864 103.593 247.089 103.471 247.284 103.308C248.97 102.186 249.03 99.42 248.052 98.424C247.074 97.428 244.962 97.746 244.566 99.12C244.566 99.12 242.136 99.21 238.896 97.428C237.636 96.7488 236.554 95.782 235.737 94.606C234.921 93.43 234.394 92.0781 234.198 90.66Z" fill="#FFA8A7"/>
<path d="M237.414 98.778C237.41 98.8604 237.422 98.9427 237.45 99.0202C237.478 99.0978 237.521 99.1692 237.576 99.2302C237.632 99.2912 237.699 99.3407 237.773 99.3758C237.848 99.411 237.929 99.4311 238.011 99.435C238.093 99.439 238.176 99.4266 238.253 99.3988C238.331 99.3709 238.402 99.328 238.463 99.2726C238.524 99.2172 238.574 99.1502 238.609 99.0757C238.644 99.0011 238.664 98.9204 238.668 98.838C238.676 98.6717 238.618 98.5091 238.506 98.3859C238.394 98.2627 238.237 98.189 238.071 98.181C237.905 98.1731 237.742 98.2315 237.619 98.3434C237.496 98.4554 237.422 98.6117 237.414 98.778Z" fill="#263238"/>
<path d="M237.246 103.02L235.788 103.482C235.813 103.58 235.858 103.672 235.921 103.752C235.983 103.832 236.061 103.899 236.149 103.947C236.238 103.996 236.336 104.027 236.437 104.036C236.538 104.046 236.639 104.035 236.736 104.004C236.932 103.938 237.095 103.799 237.19 103.615C237.285 103.431 237.305 103.218 237.246 103.02Z" fill="#F28F8F"/>
<path d="M232.26 96.852L233.532 95.97C233.479 95.8838 233.409 95.8095 233.326 95.7515C233.244 95.6935 233.15 95.6531 233.051 95.6329C232.952 95.6126 232.85 95.6129 232.751 95.6338C232.652 95.6546 232.558 95.6955 232.476 95.754C232.304 95.8731 232.186 96.0543 232.146 96.2592C232.105 96.4642 232.146 96.6767 232.26 96.852Z" fill="#263238"/>
<path d="M232.554 98.328C232.548 98.412 232.559 98.4964 232.586 98.5761C232.614 98.6558 232.656 98.7293 232.712 98.7924C232.768 98.8555 232.836 98.9069 232.912 98.9435C232.987 98.9802 233.07 99.0014 233.154 99.006C233.32 99.011 233.482 98.9513 233.605 98.8393C233.728 98.7274 233.803 98.572 233.814 98.406C233.817 98.3236 233.805 98.2414 233.777 98.164C233.748 98.0866 233.705 98.0155 233.649 97.9547C233.594 97.894 233.527 97.8448 233.452 97.81C233.377 97.7753 233.296 97.7555 233.214 97.752C233.048 97.7448 232.885 97.804 232.763 97.9165C232.64 98.0291 232.567 98.1857 232.56 98.352L232.554 98.328Z" fill="#263238"/>
<path d="M235.518 97.968L235.416 101.748L233.424 101.13L235.518 97.968Z" fill="#F28F8F"/>
<path d="M238.29 106.512C239.898 106.302 243.204 105.348 243.72 104.04C243.513 104.701 243.109 105.283 242.562 105.708C241.572 106.56 238.29 107.508 238.29 107.508V106.512Z" fill="#F28F8F"/>
<path d="M211.98 121.95L230.226 126.756L235.614 149.406L218.262 144.366L211.98 121.95Z" fill="#F5F5F5"/>
<path d="M219.936 136.932C219.768 137.4 218.766 138.684 216.642 138.582L216.378 137.646L219.936 136.932Z" fill="#E0E0E0"/>
<path d="M224.016 137.646C224.094 138.246 225.336 139.362 227.436 140.046C229.836 140.844 233.484 140.424 233.484 140.424L233.154 139.296L224.016 137.646Z" fill="#E0E0E0"/>
<path d="M217.32 125.226L217.17 124.53C217.086 124.146 218.16 124.128 219.57 124.494L222.258 125.19C223.662 125.556 224.868 126.162 224.952 126.546L225.102 127.242L217.32 125.226Z" fill="#E0E0E0"/>
<path d="M216.054 122.604C216.006 122.364 216.438 122.298 217.026 122.46L218.088 122.754C218.088 122.754 217.77 121.248 220.134 121.776C222.498 122.304 223.014 124.008 223.014 124.008L224.154 124.332C224.754 124.512 225.354 124.848 225.426 125.088L225.558 125.52L216.156 123.048L216.054 122.604Z" fill="#37474F"/>
<path d="M217.35 123.354C218.214 123.558 218.55 123.678 218.7 124.266C218.85 124.854 218.904 125.466 218.904 125.466L223.068 126.564C223.068 126.564 222.864 125.706 222.804 125.364C222.744 125.022 222.882 124.824 223.542 125.004L223.596 124.734L217.08 123.078L217.35 123.354Z" fill="#37474F"/>
<path d="M217.2 125.292L217.05 124.596C216.966 124.212 218.04 124.194 219.45 124.56L222.138 125.256C223.542 125.622 224.748 126.228 224.832 126.612L224.982 127.308L217.2 125.292Z" fill="#37474F"/>
<path d="M255.894 137.202L250.302 132.714C250.302 132.714 237.942 134.916 236.502 135.03C235.736 135.047 234.983 134.833 234.341 134.415C233.699 133.998 233.197 133.397 232.902 132.69C232.35 131.268 231.378 131.442 231.378 131.442L231.942 133.842C232.08 134.442 228.6 134.892 226.668 134.238C224.736 133.584 221.946 134.532 223.668 137.16C225.39 139.788 228.768 140.094 231.102 140.094C232.081 140.087 233.059 140.021 234.03 139.896C234.786 139.8 235.536 139.722 236.298 139.668C241.056 139.314 253.716 137.886 255.894 137.202Z" fill="#FFA8A7"/>
<path d="M213.834 128.568L214.644 131.46C214.8 132.012 216.924 133.026 218.244 133.392C219.564 133.758 221.058 134.196 220.422 136.074C219.822 137.802 217.626 138.198 216.504 138.15C215.382 138.102 213.84 137.028 213.234 135.294C212.46 133.086 212.88 130.728 212.574 129.438C212.268 128.148 213.162 127.8 213.834 128.568Z" fill="#FFA8A7"/>
<circle cx="25" cy="339" r="24.5" fill="#2C2C2C" fill-opacity="0.1" stroke="#2C2C2C"/>
<path d="M75.084 345.162C74.64 345.162 74.28 345.06 74.004 344.856C73.728 344.64 73.512 344.31 73.356 343.866L69.846 334.092C69.654 333.552 69.684 333.096 69.936 332.724C70.2 332.34 70.662 332.148 71.322 332.148C71.766 332.148 72.114 332.256 72.366 332.472C72.618 332.676 72.816 333 72.96 333.444L75.642 341.49H74.796L77.676 333.444C77.844 333 78.054 332.676 78.306 332.472C78.558 332.256 78.882 332.148 79.278 332.148C79.674 332.148 79.992 332.256 80.232 332.472C80.472 332.676 80.67 333.006 80.826 333.462L83.526 341.49H82.806L85.56 333.444C85.704 333 85.896 332.676 86.136 332.472C86.388 332.256 86.736 332.148 87.18 332.148C87.732 332.148 88.134 332.34 88.386 332.724C88.65 333.096 88.68 333.552 88.476 334.092L84.93 343.884C84.774 344.316 84.558 344.64 84.282 344.856C84.018 345.06 83.664 345.162 83.22 345.162C82.764 345.162 82.398 345.06 82.122 344.856C81.858 344.64 81.648 344.31 81.492 343.866L78.954 336.738H79.404L76.812 343.884C76.644 344.316 76.428 344.64 76.164 344.856C75.9 345.06 75.54 345.162 75.084 345.162ZM93.5078 345.198C92.5238 345.198 91.6658 345.012 90.9338 344.64C90.2018 344.268 89.6318 343.734 89.2238 343.038C88.8158 342.342 88.6118 341.52 88.6118 340.572C88.6118 339.852 88.7258 339.21 88.9538 338.646C89.1818 338.07 89.5118 337.584 89.9438 337.188C90.3758 336.78 90.8918 336.474 91.4918 336.27C92.0918 336.054 92.7638 335.946 93.5078 335.946C94.4918 335.946 95.3498 336.132 96.0818 336.504C96.8138 336.876 97.3778 337.41 97.7738 338.106C98.1818 338.79 98.3858 339.612 98.3858 340.572C98.3858 341.28 98.2718 341.922 98.0438 342.498C97.8158 343.074 97.4858 343.566 97.0538 343.974C96.6338 344.37 96.1178 344.676 95.5058 344.892C94.9058 345.096 94.2398 345.198 93.5078 345.198ZM93.5078 342.84C93.8318 342.84 94.1198 342.762 94.3718 342.606C94.6238 342.438 94.8158 342.192 94.9478 341.868C95.0918 341.532 95.1638 341.1 95.1638 340.572C95.1638 339.768 95.0078 339.192 94.6958 338.844C94.3838 338.484 93.9878 338.304 93.5078 338.304C93.1838 338.304 92.8958 338.382 92.6438 338.538C92.3918 338.694 92.1938 338.94 92.0498 339.276C91.9058 339.6 91.8338 340.032 91.8338 340.572C91.8338 341.364 91.9898 341.94 92.3018 342.3C92.6138 342.66 93.0158 342.84 93.5078 342.84ZM101.492 345.162C100.964 345.162 100.556 345.024 100.268 344.748C99.992 344.472 99.854 344.07 99.854 343.542V337.584C99.854 337.068 99.986 336.672 100.25 336.396C100.526 336.12 100.916 335.982 101.42 335.982C101.924 335.982 102.308 336.12 102.572 336.396C102.836 336.672 102.968 337.068 102.968 337.584V338.322H102.788C102.908 337.602 103.214 337.032 103.706 336.612C104.21 336.192 104.834 335.97 105.578 335.946C105.926 335.934 106.184 336.024 106.352 336.216C106.532 336.396 106.628 336.738 106.64 337.242C106.64 337.674 106.55 338.016 106.37 338.268C106.19 338.52 105.848 338.67 105.344 338.718L104.93 338.754C104.294 338.814 103.832 338.994 103.544 339.294C103.256 339.582 103.112 340.014 103.112 340.59V343.542C103.112 344.07 102.974 344.472 102.698 344.748C102.422 345.024 102.02 345.162 101.492 345.162ZM109.243 345.162C108.739 345.162 108.349 345.024 108.073 344.748C107.797 344.472 107.659 344.07 107.659 343.542V333.768C107.659 333.24 107.797 332.838 108.073 332.562C108.349 332.286 108.739 332.148 109.243 332.148C109.759 332.148 110.155 332.286 110.431 332.562C110.719 332.838 110.863 333.24 110.863 333.768V339.708H110.899L113.095 337.044C113.395 336.684 113.671 336.42 113.923 336.252C114.187 336.072 114.541 335.982 114.985 335.982C115.429 335.982 115.771 336.09 116.011 336.306C116.251 336.522 116.377 336.792 116.389 337.116C116.401 337.44 116.269 337.764 115.993 338.088L113.617 340.896V339.78L116.281 343.128C116.545 343.464 116.653 343.794 116.605 344.118C116.557 344.43 116.401 344.682 116.137 344.874C115.885 345.066 115.561 345.162 115.165 345.162C114.685 345.162 114.301 345.078 114.013 344.91C113.725 344.73 113.437 344.454 113.149 344.082L110.899 341.31H110.863V343.542C110.863 344.622 110.323 345.162 109.243 345.162ZM120.458 345.162C119.942 345.162 119.546 345.024 119.27 344.748C118.994 344.472 118.856 344.07 118.856 343.542V338.502H118.388C118.004 338.502 117.704 338.4 117.488 338.196C117.284 337.992 117.182 337.698 117.182 337.314C117.182 336.93 117.284 336.642 117.488 336.45C117.704 336.246 118.004 336.144 118.388 336.144H119.774L118.856 336.99V336.486C118.856 335.154 119.186 334.158 119.846 333.498C120.518 332.826 121.514 332.424 122.834 332.292L123.356 332.238C123.74 332.19 124.046 332.238 124.274 332.382C124.502 332.514 124.658 332.694 124.742 332.922C124.826 333.138 124.844 333.366 124.796 333.606C124.76 333.846 124.67 334.05 124.526 334.218C124.382 334.386 124.19 334.482 123.95 334.506L123.698 334.524C123.086 334.572 122.66 334.704 122.42 334.92C122.18 335.136 122.06 335.454 122.06 335.874V336.468L121.664 336.144H123.086C123.482 336.144 123.782 336.246 123.986 336.45C124.19 336.642 124.292 336.93 124.292 337.314C124.292 337.698 124.19 337.992 123.986 338.196C123.782 338.4 123.482 338.502 123.086 338.502H122.06V343.542C122.06 344.622 121.526 345.162 120.458 345.162ZM128.702 345.198C127.55 345.198 126.698 344.892 126.146 344.28C125.606 343.656 125.336 342.72 125.336 341.472V333.768C125.336 333.24 125.474 332.838 125.75 332.562C126.026 332.286 126.416 332.148 126.92 332.148C127.436 332.148 127.832 332.286 128.108 332.562C128.396 332.838 128.54 333.24 128.54 333.768V341.364C128.54 341.808 128.624 342.132 128.792 342.336C128.972 342.54 129.2 342.642 129.476 342.642C129.56 342.642 129.644 342.636 129.728 342.624C129.824 342.6 129.926 342.582 130.034 342.57C130.238 342.57 130.388 342.648 130.484 342.804C130.592 342.96 130.646 343.278 130.646 343.758C130.646 344.178 130.562 344.496 130.394 344.712C130.226 344.916 129.968 345.048 129.62 345.108C129.524 345.12 129.386 345.138 129.206 345.162C129.026 345.186 128.858 345.198 128.702 345.198ZM135.977 345.198C134.993 345.198 134.135 345.012 133.403 344.64C132.671 344.268 132.101 343.734 131.693 343.038C131.285 342.342 131.081 341.52 131.081 340.572C131.081 339.852 131.195 339.21 131.423 338.646C131.651 338.07 131.981 337.584 132.413 337.188C132.845 336.78 133.361 336.474 133.961 336.27C134.561 336.054 135.233 335.946 135.977 335.946C136.961 335.946 137.819 336.132 138.551 336.504C139.283 336.876 139.847 337.41 140.243 338.106C140.651 338.79 140.855 339.612 140.855 340.572C140.855 341.28 140.741 341.922 140.513 342.498C140.285 343.074 139.955 343.566 139.523 343.974C139.103 344.37 138.587 344.676 137.975 344.892C137.375 345.096 136.709 345.198 135.977 345.198ZM135.977 342.84C136.301 342.84 136.589 342.762 136.841 342.606C137.093 342.438 137.285 342.192 137.417 341.868C137.561 341.532 137.633 341.1 137.633 340.572C137.633 339.768 137.477 339.192 137.165 338.844C136.853 338.484 136.457 338.304 135.977 338.304C135.653 338.304 135.365 338.382 135.113 338.538C134.861 338.694 134.663 338.94 134.519 339.276C134.375 339.6 134.303 340.032 134.303 340.572C134.303 341.364 134.459 341.94 134.771 342.3C135.083 342.66 135.485 342.84 135.977 342.84ZM145.946 345.162C145.538 345.162 145.184 345.066 144.884 344.874C144.584 344.67 144.344 344.358 144.164 343.938L141.716 338.016C141.56 337.644 141.506 337.308 141.554 337.008C141.602 336.696 141.746 336.45 141.986 336.27C142.238 336.078 142.58 335.982 143.012 335.982C143.384 335.982 143.69 336.072 143.93 336.252C144.17 336.42 144.386 336.756 144.578 337.26L146.306 341.796H145.928L147.746 336.918C147.866 336.594 148.028 336.36 148.232 336.216C148.448 336.06 148.718 335.982 149.042 335.982C149.39 335.982 149.666 336.06 149.87 336.216C150.074 336.372 150.236 336.606 150.356 336.918L152.174 341.796H151.85L153.596 337.152C153.764 336.696 153.98 336.39 154.244 336.234C154.508 336.066 154.79 335.982 155.09 335.982C155.498 335.982 155.81 336.078 156.026 336.27C156.242 336.462 156.362 336.714 156.386 337.026C156.422 337.338 156.362 337.674 156.206 338.034L153.776 343.92C153.608 344.34 153.374 344.652 153.074 344.856C152.774 345.06 152.42 345.162 152.012 345.162C151.592 345.162 151.232 345.06 150.932 344.856C150.644 344.652 150.41 344.34 150.23 343.92L148.25 338.97H149.564L147.692 343.884C147.524 344.316 147.296 344.64 147.008 344.856C146.72 345.06 146.366 345.162 145.946 345.162ZM163.682 345.162C163.31 345.162 162.998 345.078 162.746 344.91C162.494 344.73 162.338 344.49 162.278 344.19C162.218 343.878 162.272 343.53 162.44 343.146L166.922 333.498C167.138 333.03 167.402 332.688 167.714 332.472C168.038 332.256 168.404 332.148 168.812 332.148C169.22 332.148 169.574 332.256 169.874 332.472C170.186 332.688 170.456 333.03 170.684 333.498L175.166 343.146C175.358 343.53 175.424 343.878 175.364 344.19C175.316 344.502 175.166 344.742 174.914 344.91C174.674 345.078 174.374 345.162 174.014 345.162C173.534 345.162 173.162 345.054 172.898 344.838C172.646 344.622 172.418 344.274 172.214 343.794L171.242 341.508L172.502 342.426H165.086L166.364 341.508L165.392 343.794C165.176 344.274 164.954 344.622 164.726 344.838C164.498 345.054 164.15 345.162 163.682 345.162ZM168.776 335.766L166.688 340.752L166.184 339.888H171.422L170.918 340.752L168.812 335.766H168.776ZM179.912 345.198C179.144 345.198 178.514 345.06 178.022 344.784C177.53 344.496 177.158 344.07 176.906 343.506C176.666 342.942 176.546 342.228 176.546 341.364V337.584C176.546 337.056 176.684 336.66 176.96 336.396C177.236 336.12 177.632 335.982 178.148 335.982C178.664 335.982 179.06 336.12 179.336 336.396C179.612 336.66 179.75 337.056 179.75 337.584V341.454C179.75 341.886 179.84 342.21 180.02 342.426C180.2 342.642 180.482 342.75 180.866 342.75C181.298 342.75 181.652 342.594 181.928 342.282C182.204 341.97 182.342 341.556 182.342 341.04V337.584C182.342 337.056 182.48 336.66 182.756 336.396C183.032 336.12 183.428 335.982 183.944 335.982C184.46 335.982 184.856 336.12 185.132 336.396C185.408 336.66 185.546 337.056 185.546 337.584V343.542C185.546 344.622 185.03 345.162 183.998 345.162C183.494 345.162 183.104 345.024 182.828 344.748C182.552 344.472 182.414 344.07 182.414 343.542V342.498L182.702 343.38C182.438 343.968 182.066 344.418 181.586 344.73C181.118 345.042 180.56 345.198 179.912 345.198ZM192.055 345.198C191.155 345.198 190.411 345.06 189.823 344.784C189.247 344.508 188.815 344.094 188.527 343.542C188.239 342.978 188.095 342.276 188.095 341.436V338.502H187.483C187.099 338.502 186.799 338.4 186.583 338.196C186.379 337.992 186.277 337.698 186.277 337.314C186.277 336.93 186.379 336.642 186.583 336.45C186.799 336.246 187.099 336.144 187.483 336.144H188.095V335.028C188.095 334.5 188.233 334.098 188.509 333.822C188.785 333.546 189.181 333.408 189.697 333.408C190.213 333.408 190.609 333.546 190.885 333.822C191.161 334.098 191.299 334.5 191.299 335.028V336.144H192.775C193.171 336.144 193.471 336.246 193.675 336.45C193.891 336.642 193.999 336.93 193.999 337.314C193.999 337.698 193.891 337.992 193.675 338.196C193.471 338.4 193.171 338.502 192.775 338.502H191.299V341.328C191.299 341.772 191.401 342.102 191.605 342.318C191.821 342.522 192.157 342.624 192.613 342.624C192.781 342.624 192.943 342.606 193.099 342.57C193.255 342.534 193.399 342.516 193.531 342.516C193.723 342.504 193.879 342.564 193.999 342.696C194.119 342.816 194.179 343.098 194.179 343.542C194.179 343.902 194.125 344.208 194.017 344.46C193.909 344.7 193.717 344.874 193.441 344.982C193.273 345.042 193.045 345.09 192.757 345.126C192.469 345.174 192.235 345.198 192.055 345.198ZM199.469 345.198C198.485 345.198 197.627 345.012 196.895 344.64C196.163 344.268 195.593 343.734 195.185 343.038C194.777 342.342 194.573 341.52 194.573 340.572C194.573 339.852 194.687 339.21 194.915 338.646C195.143 338.07 195.473 337.584 195.905 337.188C196.337 336.78 196.853 336.474 197.453 336.27C198.053 336.054 198.725 335.946 199.469 335.946C200.453 335.946 201.311 336.132 202.043 336.504C202.775 336.876 203.339 337.41 203.735 338.106C204.143 338.79 204.347 339.612 204.347 340.572C204.347 341.28 204.233 341.922 204.005 342.498C203.777 343.074 203.447 343.566 203.015 343.974C202.595 344.37 202.079 344.676 201.467 344.892C200.867 345.096 200.201 345.198 199.469 345.198ZM199.469 342.84C199.793 342.84 200.081 342.762 200.333 342.606C200.585 342.438 200.777 342.192 200.909 341.868C201.053 341.532 201.125 341.1 201.125 340.572C201.125 339.768 200.969 339.192 200.657 338.844C200.345 338.484 199.949 338.304 199.469 338.304C199.145 338.304 198.857 338.382 198.605 338.538C198.353 338.694 198.155 338.94 198.011 339.276C197.867 339.6 197.795 340.032 197.795 340.572C197.795 341.364 197.951 341.94 198.263 342.3C198.575 342.66 198.977 342.84 199.469 342.84ZM207.435 345.162C206.931 345.162 206.541 345.024 206.265 344.748C205.989 344.472 205.851 344.07 205.851 343.542V337.584C205.851 337.068 205.983 336.672 206.247 336.396C206.523 336.12 206.913 335.982 207.417 335.982C207.921 335.982 208.305 336.12 208.569 336.396C208.833 336.672 208.965 337.068 208.965 337.584V338.574L208.767 337.692C209.019 337.164 209.391 336.744 209.883 336.432C210.387 336.108 210.981 335.946 211.665 335.946C212.313 335.946 212.865 336.102 213.321 336.414C213.789 336.726 214.125 337.2 214.329 337.836H214.077C214.353 337.248 214.767 336.786 215.319 336.45C215.871 336.114 216.483 335.946 217.155 335.946C217.851 335.946 218.421 336.084 218.865 336.36C219.309 336.624 219.639 337.044 219.855 337.62C220.083 338.184 220.197 338.898 220.197 339.762V343.542C220.197 344.07 220.053 344.472 219.765 344.748C219.489 345.024 219.093 345.162 218.577 345.162C218.073 345.162 217.683 345.024 217.407 344.748C217.131 344.472 216.993 344.07 216.993 343.542V339.852C216.993 339.336 216.915 338.964 216.759 338.736C216.603 338.508 216.345 338.394 215.985 338.394C215.541 338.394 215.199 338.55 214.959 338.862C214.731 339.174 214.617 339.618 214.617 340.194V343.542C214.617 344.07 214.479 344.472 214.203 344.748C213.927 345.024 213.531 345.162 213.015 345.162C212.499 345.162 212.103 345.024 211.827 344.748C211.551 344.472 211.413 344.07 211.413 343.542V339.852C211.413 339.336 211.335 338.964 211.179 338.736C211.023 338.508 210.765 338.394 210.405 338.394C209.973 338.394 209.637 338.55 209.397 338.862C209.169 339.174 209.055 339.618 209.055 340.194V343.542C209.055 344.622 208.515 345.162 207.435 345.162ZM225.135 345.198C224.451 345.198 223.845 345.072 223.317 344.82C222.801 344.568 222.393 344.226 222.093 343.794C221.805 343.35 221.661 342.846 221.661 342.282C221.661 341.634 221.829 341.124 222.165 340.752C222.501 340.38 223.041 340.116 223.785 339.96C224.529 339.792 225.519 339.708 226.755 339.708H227.745V341.22H226.755C226.287 341.22 225.897 341.256 225.585 341.328C225.285 341.388 225.063 341.49 224.919 341.634C224.775 341.766 224.703 341.94 224.703 342.156C224.703 342.432 224.799 342.66 224.991 342.84C225.195 343.02 225.483 343.11 225.855 343.11C226.155 343.11 226.419 343.044 226.647 342.912C226.887 342.78 227.079 342.6 227.223 342.372C227.367 342.132 227.439 341.856 227.439 341.544V339.456C227.439 339.024 227.325 338.718 227.097 338.538C226.881 338.358 226.503 338.268 225.963 338.268C225.675 338.268 225.351 338.304 224.991 338.376C224.631 338.436 224.229 338.55 223.785 338.718C223.461 338.838 223.185 338.856 222.957 338.772C222.729 338.688 222.549 338.544 222.417 338.34C222.297 338.136 222.237 337.914 222.237 337.674C222.249 337.434 222.327 337.206 222.471 336.99C222.627 336.774 222.861 336.606 223.173 336.486C223.749 336.27 224.277 336.126 224.757 336.054C225.249 335.982 225.699 335.946 226.107 335.946C227.091 335.946 227.901 336.09 228.537 336.378C229.185 336.654 229.665 337.086 229.977 337.674C230.301 338.25 230.463 338.994 230.463 339.906V343.542C230.463 344.07 230.337 344.472 230.085 344.748C229.833 345.024 229.467 345.162 228.987 345.162C228.495 345.162 228.117 345.024 227.853 344.748C227.601 344.472 227.475 344.07 227.475 343.542V343.074L227.583 343.326C227.523 343.71 227.385 344.04 227.169 344.316C226.953 344.592 226.671 344.808 226.323 344.964C225.975 345.12 225.579 345.198 225.135 345.198ZM236.932 345.198C236.032 345.198 235.288 345.06 234.7 344.784C234.124 344.508 233.692 344.094 233.404 343.542C233.116 342.978 232.972 342.276 232.972 341.436V338.502H232.36C231.976 338.502 231.676 338.4 231.46 338.196C231.256 337.992 231.154 337.698 231.154 337.314C231.154 336.93 231.256 336.642 231.46 336.45C231.676 336.246 231.976 336.144 232.36 336.144H232.972V335.028C232.972 334.5 233.11 334.098 233.386 333.822C233.662 333.546 234.058 333.408 234.574 333.408C235.09 333.408 235.486 333.546 235.762 333.822C236.038 334.098 236.176 334.5 236.176 335.028V336.144H237.652C238.048 336.144 238.348 336.246 238.552 336.45C238.768 336.642 238.876 336.93 238.876 337.314C238.876 337.698 238.768 337.992 238.552 338.196C238.348 338.4 238.048 338.502 237.652 338.502H236.176V341.328C236.176 341.772 236.278 342.102 236.482 342.318C236.698 342.522 237.034 342.624 237.49 342.624C237.658 342.624 237.82 342.606 237.976 342.57C238.132 342.534 238.276 342.516 238.408 342.516C238.6 342.504 238.756 342.564 238.876 342.696C238.996 342.816 239.056 343.098 239.056 343.542C239.056 343.902 239.002 344.208 238.894 344.46C238.786 344.7 238.594 344.874 238.318 344.982C238.15 345.042 237.922 345.09 237.634 345.126C237.346 345.174 237.112 345.198 236.932 345.198ZM241.834 345.162C241.33 345.162 240.94 345.012 240.664 344.712C240.388 344.412 240.25 343.98 240.25 343.416V337.728C240.25 337.164 240.388 336.732 240.664 336.432C240.94 336.132 241.33 335.982 241.834 335.982C242.35 335.982 242.746 336.132 243.022 336.432C243.31 336.732 243.454 337.164 243.454 337.728V343.416C243.454 343.98 243.316 344.412 243.04 344.712C242.764 345.012 242.362 345.162 241.834 345.162ZM241.834 334.704C241.27 334.704 240.832 334.572 240.52 334.308C240.22 334.044 240.07 333.66 240.07 333.156C240.07 332.664 240.22 332.286 240.52 332.022C240.832 331.758 241.27 331.626 241.834 331.626C242.422 331.626 242.866 331.758 243.166 332.022C243.466 332.286 243.616 332.664 243.616 333.156C243.616 333.66 243.466 334.044 243.166 334.308C242.866 334.572 242.422 334.704 241.834 334.704ZM249.795 345.198C248.811 345.198 247.953 345.012 247.221 344.64C246.489 344.268 245.919 343.734 245.511 343.038C245.103 342.342 244.899 341.52 244.899 340.572C244.899 339.852 245.013 339.21 245.241 338.646C245.469 338.07 245.799 337.584 246.231 337.188C246.663 336.78 247.179 336.474 247.779 336.27C248.379 336.054 249.051 335.946 249.795 335.946C250.779 335.946 251.637 336.132 252.369 336.504C253.101 336.876 253.665 337.41 254.061 338.106C254.469 338.79 254.673 339.612 254.673 340.572C254.673 341.28 254.559 341.922 254.331 342.498C254.103 343.074 253.773 343.566 253.341 343.974C252.921 344.37 252.405 344.676 251.793 344.892C251.193 345.096 250.527 345.198 249.795 345.198ZM249.795 342.84C250.119 342.84 250.407 342.762 250.659 342.606C250.911 342.438 251.103 342.192 251.235 341.868C251.379 341.532 251.451 341.1 251.451 340.572C251.451 339.768 251.295 339.192 250.983 338.844C250.671 338.484 250.275 338.304 249.795 338.304C249.471 338.304 249.183 338.382 248.931 338.538C248.679 338.694 248.481 338.94 248.337 339.276C248.193 339.6 248.121 340.032 248.121 340.572C248.121 341.364 248.277 341.94 248.589 342.3C248.901 342.66 249.303 342.84 249.795 342.84ZM257.725 345.162C257.221 345.162 256.831 345.024 256.555 344.748C256.279 344.472 256.141 344.07 256.141 343.542V337.584C256.141 337.068 256.273 336.672 256.537 336.396C256.813 336.12 257.203 335.982 257.707 335.982C258.211 335.982 258.595 336.12 258.859 336.396C259.123 336.672 259.255 337.068 259.255 337.584V338.43L259.057 337.692C259.345 337.128 259.753 336.696 260.281 336.396C260.821 336.096 261.433 335.946 262.117 335.946C262.825 335.946 263.407 336.084 263.863 336.36C264.319 336.624 264.661 337.044 264.889 337.62C265.117 338.184 265.231 338.898 265.231 339.762V343.542C265.231 344.07 265.093 344.472 264.817 344.748C264.541 345.024 264.145 345.162 263.629 345.162C263.113 345.162 262.717 345.024 262.441 344.748C262.165 344.472 262.027 344.07 262.027 343.542V339.888C262.027 339.348 261.931 338.964 261.739 338.736C261.559 338.508 261.289 338.394 260.929 338.394C260.449 338.394 260.065 338.55 259.777 338.862C259.489 339.162 259.345 339.57 259.345 340.086V343.542C259.345 344.622 258.805 345.162 257.725 345.162Z" fill="#2C2C2C"/>
<g clip-path="url(#clip0_10_7076)">
<path d="M25 335.667C24.3407 335.667 23.6962 335.862 23.1481 336.228C22.5999 336.595 22.1727 337.115 21.9204 337.724C21.6681 338.333 21.6021 339.004 21.7307 339.65C21.8593 340.297 22.1768 340.891 22.6429 341.357C23.1091 341.823 23.7031 342.141 24.3497 342.269C24.9963 342.398 25.6665 342.332 26.2756 342.08C26.8847 341.827 27.4053 341.4 27.7715 340.852C28.1378 340.304 28.3333 339.659 28.3333 339C28.3333 338.116 27.9821 337.268 27.357 336.643C26.7319 336.018 25.884 335.667 25 335.667ZM25 340.667C24.6703 340.667 24.3481 340.569 24.074 340.386C23.7999 340.203 23.5863 339.942 23.4602 339.638C23.334 339.333 23.301 338.998 23.3653 338.675C23.4296 338.352 23.5884 338.055 23.8215 337.822C24.0545 337.588 24.3515 337.43 24.6748 337.365C24.9981 337.301 25.3332 337.334 25.6378 337.46C25.9423 337.586 26.2026 337.8 26.3858 338.074C26.5689 338.348 26.6666 338.67 26.6666 339C26.6666 339.442 26.491 339.866 26.1785 340.179C25.8659 340.491 25.442 340.667 25 340.667Z" fill="#2C2C2C"/>
<path d="M32.745 340.583L32.375 340.37C32.5416 339.464 32.5416 338.535 32.375 337.628L32.745 337.415C33.0296 337.251 33.279 337.032 33.479 336.772C33.6791 336.511 33.8259 336.214 33.911 335.897C33.9961 335.579 34.0179 335.248 33.9751 334.923C33.9324 334.597 33.8258 334.283 33.6617 333.998C33.4975 333.714 33.279 333.464 33.0184 333.264C32.7579 333.064 32.4605 332.918 32.1432 332.832C31.8259 332.747 31.495 332.725 31.1693 332.768C30.8436 332.811 30.5296 332.918 30.245 333.082L29.8742 333.296C29.1738 332.697 28.3689 332.234 27.5 331.927V331.5C27.5 330.837 27.2366 330.201 26.7678 329.732C26.299 329.263 25.6631 329 25 329C24.337 329 23.7011 329.263 23.2323 329.732C22.7634 330.201 22.5 330.837 22.5 331.5V331.927C21.6312 332.235 20.8266 332.7 20.1267 333.299L19.7542 333.083C19.1796 332.752 18.4968 332.662 17.856 332.834C17.2153 333.006 16.6691 333.425 16.3375 334C16.006 334.575 15.9163 335.257 16.0883 335.898C16.2602 336.539 16.6796 337.085 17.2542 337.417L17.6242 337.63C17.4576 338.536 17.4576 339.465 17.6242 340.372L17.2542 340.585C16.6796 340.917 16.2602 341.463 16.0883 342.103C15.9163 342.744 16.006 343.427 16.3375 344.002C16.6691 344.576 17.2153 344.996 17.856 345.168C18.4968 345.34 19.1796 345.25 19.7542 344.918L20.125 344.704C20.8257 345.303 21.6309 345.767 22.5 346.072V346.5C22.5 347.163 22.7634 347.799 23.2323 348.268C23.7011 348.737 24.337 349 25 349C25.6631 349 26.299 348.737 26.7678 348.268C27.2366 347.799 27.5 347.163 27.5 346.5V346.072C28.3689 345.765 29.1735 345.3 29.8734 344.701L30.2459 344.916C30.8205 345.247 31.5033 345.337 32.144 345.165C32.7848 344.993 33.331 344.574 33.6625 343.999C33.9941 343.425 34.0837 342.742 33.9118 342.101C33.7399 341.46 33.3205 340.914 32.7459 340.582L32.745 340.583ZM30.6217 337.437C30.9039 338.459 30.9039 339.539 30.6217 340.562C30.5724 340.74 30.5837 340.929 30.6536 341.1C30.7236 341.271 30.8484 341.414 31.0084 341.506L31.9117 342.027C32.1032 342.138 32.243 342.32 32.3002 342.534C32.3575 342.747 32.3276 342.975 32.2171 343.166C32.1066 343.358 31.9245 343.498 31.711 343.555C31.4974 343.612 31.2699 343.582 31.0784 343.472L30.1734 342.948C30.0133 342.856 29.8269 342.819 29.6436 342.844C29.4603 342.869 29.2904 342.954 29.1609 343.086C28.4191 343.843 27.4847 344.383 26.4584 344.648C26.2792 344.694 26.1205 344.799 26.0072 344.945C25.8939 345.091 25.8324 345.271 25.8325 345.456V346.5C25.8325 346.721 25.7447 346.933 25.5885 347.089C25.4322 347.246 25.2202 347.333 24.9992 347.333C24.7782 347.333 24.5662 347.246 24.4099 347.089C24.2537 346.933 24.1659 346.721 24.1659 346.5V345.457C24.166 345.272 24.1045 345.092 23.9912 344.946C23.8779 344.8 23.7192 344.695 23.54 344.649C22.5137 344.383 21.5795 343.842 20.8384 343.083C20.7088 342.951 20.539 342.866 20.3557 342.841C20.1723 342.816 19.986 342.853 19.8259 342.946L18.9225 343.468C18.8277 343.524 18.7229 343.56 18.614 343.575C18.5051 343.59 18.3943 343.583 18.2881 343.555C18.1818 343.527 18.0822 343.478 17.9949 343.411C17.9076 343.345 17.8343 343.261 17.7794 343.166C17.7244 343.071 17.6889 342.966 17.6747 342.857C17.6605 342.748 17.6681 342.637 17.6969 342.531C17.7257 342.425 17.7751 342.326 17.8425 342.239C17.9098 342.152 17.9937 342.079 18.0892 342.025L18.9925 341.503C19.1525 341.411 19.2773 341.268 19.3473 341.097C19.4172 340.926 19.4285 340.737 19.3792 340.559C19.097 339.537 19.097 338.457 19.3792 337.434C19.4276 337.257 19.4158 337.068 19.3457 336.898C19.2756 336.728 19.1511 336.585 18.9917 336.493L18.0884 335.972C17.8969 335.861 17.7571 335.679 17.6998 335.466C17.6425 335.252 17.6724 335.024 17.783 334.833C17.8935 334.641 18.0755 334.502 18.2891 334.444C18.5026 334.387 18.7302 334.417 18.9217 334.527L19.8267 335.051C19.9864 335.144 20.1724 335.181 20.3555 335.157C20.5386 335.132 20.7085 335.048 20.8384 334.917C21.5801 334.159 22.5146 333.619 23.5409 333.354C23.7206 333.308 23.8797 333.203 23.9931 333.056C24.1064 332.909 24.1675 332.729 24.1667 332.543V331.5C24.1667 331.279 24.2545 331.067 24.4108 330.911C24.5671 330.754 24.779 330.667 25 330.667C25.221 330.667 25.433 330.754 25.5893 330.911C25.7456 331.067 25.8334 331.279 25.8334 331.5V332.543C25.8333 332.728 25.8947 332.908 26.008 333.054C26.1213 333.2 26.2801 333.305 26.4592 333.351C27.4859 333.617 28.4204 334.158 29.1617 334.917C29.2913 335.049 29.4611 335.134 29.6444 335.159C29.8277 335.184 30.0141 335.147 30.1742 335.054L31.0775 334.532C31.1723 334.476 31.2772 334.44 31.3861 334.425C31.495 334.41 31.6057 334.417 31.712 334.445C31.8182 334.473 31.9179 334.522 32.0052 334.589C32.0925 334.655 32.1657 334.739 32.2207 334.834C32.2756 334.929 32.3112 335.034 32.3254 335.143C32.3395 335.252 32.332 335.363 32.3032 335.469C32.2744 335.575 32.2249 335.674 32.1576 335.761C32.0903 335.848 32.0064 335.921 31.9109 335.975L31.0075 336.497C30.8484 336.589 30.7243 336.731 30.6545 336.901C30.5847 337.072 30.5732 337.26 30.6217 337.437V337.437Z" fill="#2C2C2C"/>
</g>
<defs>
<clipPath id="clip0_10_7076">
<rect width="20" height="20" fill="white" transform="translate(15 329)"/>
</clipPath>
</defs>
</svg>
